<mxfile host="app.diagrams.net" modified="2022-04-20T08:30:43.610Z" agent="5.0 (Windows NT 10.0; Win64; x64) AppleWebKit/537.36 (KHTML, like Gecko) Chrome/100.0.4896.60 Safari/537.36" etag="uxbvB6-RvVx6gNFiLxg4" version="17.4.1" type="github">
  <diagram id="MxeaoJ1tU_wyJYdL1BjK" name="第 1 页">
    <mxGraphModel dx="1039" dy="570" grid="0" gridSize="10" guides="1" tooltips="1" connect="1" arrows="1" fold="1" page="0" pageScale="1" pageWidth="827" pageHeight="1169" math="0" shadow="0">
      <root>
        <mxCell id="0" />
        <mxCell id="1" parent="0" />
        <mxCell id="SBuyi_CQ05QwC0BAwkS6-33" value="" style="shape=table;startSize=0;container=1;collapsible=0;childLayout=tableLayout;rounded=0;shadow=0;glass=0;sketch=0;strokeColor=#6c8ebf;strokeWidth=1;fillColor=#dae8fc;movable=1;resizable=1;rotatable=1;deletable=1;editable=1;connectable=1;" parent="1" vertex="1">
          <mxGeometry x="192" y="974" width="54" height="54" as="geometry" />
        </mxCell>
        <mxCell id="SBuyi_CQ05QwC0BAwkS6-34" value="" style="shape=partialRectangle;collapsible=0;dropTarget=0;pointerEvents=0;fillColor=#dae8fc;top=0;left=0;bottom=0;right=0;points=[[0,0.5],[1,0.5]];portConstraint=eastwest;rounded=0;shadow=0;glass=0;sketch=0;strokeColor=#6c8ebf;strokeWidth=1;movable=1;resizable=1;rotatable=1;deletable=1;editable=1;connectable=1;" parent="SBuyi_CQ05QwC0BAwkS6-33" vertex="1">
          <mxGeometry width="54" height="18" as="geometry" />
        </mxCell>
        <mxCell id="SBuyi_CQ05QwC0BAwkS6-35" value="" style="shape=partialRectangle;html=1;whiteSpace=wrap;connectable=1;overflow=hidden;fillColor=#dae8fc;top=0;left=0;bottom=0;right=0;pointerEvents=1;rounded=0;shadow=0;glass=0;sketch=0;strokeColor=#6c8ebf;strokeWidth=1;movable=1;resizable=1;rotatable=1;deletable=1;editable=1;" parent="SBuyi_CQ05QwC0BAwkS6-34" vertex="1">
          <mxGeometry width="18" height="18" as="geometry">
            <mxRectangle width="18" height="18" as="alternateBounds" />
          </mxGeometry>
        </mxCell>
        <mxCell id="SBuyi_CQ05QwC0BAwkS6-36" value="" style="shape=partialRectangle;html=1;whiteSpace=wrap;connectable=1;overflow=hidden;fillColor=#dae8fc;top=0;left=0;bottom=0;right=0;pointerEvents=1;rounded=0;shadow=0;glass=0;sketch=0;strokeColor=#6c8ebf;strokeWidth=1;movable=1;resizable=1;rotatable=1;deletable=1;editable=1;" parent="SBuyi_CQ05QwC0BAwkS6-34" vertex="1">
          <mxGeometry x="18" width="18" height="18" as="geometry">
            <mxRectangle width="18" height="18" as="alternateBounds" />
          </mxGeometry>
        </mxCell>
        <mxCell id="SBuyi_CQ05QwC0BAwkS6-37" value="" style="shape=partialRectangle;html=1;whiteSpace=wrap;connectable=1;overflow=hidden;fillColor=#dae8fc;top=0;left=0;bottom=0;right=0;pointerEvents=1;rounded=0;shadow=0;glass=0;sketch=0;strokeColor=#6c8ebf;strokeWidth=1;movable=1;resizable=1;rotatable=1;deletable=1;editable=1;" parent="SBuyi_CQ05QwC0BAwkS6-34" vertex="1">
          <mxGeometry x="36" width="18" height="18" as="geometry">
            <mxRectangle width="18" height="18" as="alternateBounds" />
          </mxGeometry>
        </mxCell>
        <mxCell id="SBuyi_CQ05QwC0BAwkS6-38" value="" style="shape=partialRectangle;collapsible=0;dropTarget=0;pointerEvents=0;fillColor=#dae8fc;top=0;left=0;bottom=0;right=0;points=[[0,0.5],[1,0.5]];portConstraint=eastwest;rounded=0;shadow=0;glass=0;sketch=0;strokeColor=#6c8ebf;strokeWidth=1;movable=1;resizable=1;rotatable=1;deletable=1;editable=1;connectable=1;" parent="SBuyi_CQ05QwC0BAwkS6-33" vertex="1">
          <mxGeometry y="18" width="54" height="18" as="geometry" />
        </mxCell>
        <mxCell id="SBuyi_CQ05QwC0BAwkS6-39" value="" style="shape=partialRectangle;html=1;whiteSpace=wrap;connectable=1;overflow=hidden;fillColor=#dae8fc;top=0;left=0;bottom=0;right=0;pointerEvents=1;rounded=0;shadow=0;glass=0;sketch=0;strokeColor=#6c8ebf;strokeWidth=1;movable=1;resizable=1;rotatable=1;deletable=1;editable=1;" parent="SBuyi_CQ05QwC0BAwkS6-38" vertex="1">
          <mxGeometry width="18" height="18" as="geometry">
            <mxRectangle width="18" height="18" as="alternateBounds" />
          </mxGeometry>
        </mxCell>
        <mxCell id="SBuyi_CQ05QwC0BAwkS6-40" value="" style="shape=partialRectangle;html=1;whiteSpace=wrap;connectable=1;overflow=hidden;fillColor=#dae8fc;top=0;left=0;bottom=0;right=0;pointerEvents=1;rounded=0;shadow=0;glass=0;sketch=0;strokeColor=#6c8ebf;strokeWidth=1;movable=1;resizable=1;rotatable=1;deletable=1;editable=1;" parent="SBuyi_CQ05QwC0BAwkS6-38" vertex="1">
          <mxGeometry x="18" width="18" height="18" as="geometry">
            <mxRectangle width="18" height="18" as="alternateBounds" />
          </mxGeometry>
        </mxCell>
        <mxCell id="SBuyi_CQ05QwC0BAwkS6-41" value="" style="shape=partialRectangle;html=1;whiteSpace=wrap;connectable=1;overflow=hidden;fillColor=#dae8fc;top=0;left=0;bottom=0;right=0;pointerEvents=1;rounded=0;shadow=0;glass=0;sketch=0;strokeColor=#6c8ebf;strokeWidth=1;movable=1;resizable=1;rotatable=1;deletable=1;editable=1;" parent="SBuyi_CQ05QwC0BAwkS6-38" vertex="1">
          <mxGeometry x="36" width="18" height="18" as="geometry">
            <mxRectangle width="18" height="18" as="alternateBounds" />
          </mxGeometry>
        </mxCell>
        <mxCell id="SBuyi_CQ05QwC0BAwkS6-42" value="" style="shape=partialRectangle;collapsible=0;dropTarget=0;pointerEvents=0;fillColor=#dae8fc;top=0;left=0;bottom=0;right=0;points=[[0,0.5],[1,0.5]];portConstraint=eastwest;rounded=0;shadow=0;glass=0;sketch=0;strokeColor=#6c8ebf;strokeWidth=1;movable=1;resizable=1;rotatable=1;deletable=1;editable=1;connectable=1;" parent="SBuyi_CQ05QwC0BAwkS6-33" vertex="1">
          <mxGeometry y="36" width="54" height="18" as="geometry" />
        </mxCell>
        <mxCell id="SBuyi_CQ05QwC0BAwkS6-43" value="" style="shape=partialRectangle;html=1;whiteSpace=wrap;connectable=1;overflow=hidden;fillColor=#dae8fc;top=0;left=0;bottom=0;right=0;pointerEvents=1;rounded=0;shadow=0;glass=0;sketch=0;strokeColor=#6c8ebf;strokeWidth=1;movable=1;resizable=1;rotatable=1;deletable=1;editable=1;" parent="SBuyi_CQ05QwC0BAwkS6-42" vertex="1">
          <mxGeometry width="18" height="18" as="geometry">
            <mxRectangle width="18" height="18" as="alternateBounds" />
          </mxGeometry>
        </mxCell>
        <mxCell id="SBuyi_CQ05QwC0BAwkS6-44" value="" style="shape=partialRectangle;html=1;whiteSpace=wrap;connectable=1;overflow=hidden;fillColor=#dae8fc;top=0;left=0;bottom=0;right=0;pointerEvents=1;rounded=0;shadow=0;glass=0;sketch=0;strokeColor=#6c8ebf;strokeWidth=1;movable=1;resizable=1;rotatable=1;deletable=1;editable=1;" parent="SBuyi_CQ05QwC0BAwkS6-42" vertex="1">
          <mxGeometry x="18" width="18" height="18" as="geometry">
            <mxRectangle width="18" height="18" as="alternateBounds" />
          </mxGeometry>
        </mxCell>
        <mxCell id="SBuyi_CQ05QwC0BAwkS6-45" value="" style="shape=partialRectangle;html=1;whiteSpace=wrap;connectable=1;overflow=hidden;fillColor=#dae8fc;top=0;left=0;bottom=0;right=0;pointerEvents=1;rounded=0;shadow=0;glass=0;sketch=0;strokeColor=#6c8ebf;strokeWidth=1;movable=1;resizable=1;rotatable=1;deletable=1;editable=1;" parent="SBuyi_CQ05QwC0BAwkS6-42" vertex="1">
          <mxGeometry x="36" width="18" height="18" as="geometry">
            <mxRectangle width="18" height="18" as="alternateBounds" />
          </mxGeometry>
        </mxCell>
        <mxCell id="SBuyi_CQ05QwC0BAwkS6-46" value="" style="shape=table;startSize=0;container=1;collapsible=0;childLayout=tableLayout;rounded=0;shadow=0;glass=0;sketch=0;strokeColor=#6c8ebf;strokeWidth=1;fillColor=#dae8fc;movable=1;resizable=1;rotatable=1;deletable=1;editable=1;connectable=1;" parent="1" vertex="1">
          <mxGeometry x="181" y="986" width="54" height="54" as="geometry" />
        </mxCell>
        <mxCell id="SBuyi_CQ05QwC0BAwkS6-47" value="" style="shape=partialRectangle;collapsible=0;dropTarget=0;pointerEvents=0;fillColor=#dae8fc;top=0;left=0;bottom=0;right=0;points=[[0,0.5],[1,0.5]];portConstraint=eastwest;rounded=0;shadow=0;glass=0;sketch=0;strokeColor=#6c8ebf;strokeWidth=1;movable=1;resizable=1;rotatable=1;deletable=1;editable=1;connectable=1;" parent="SBuyi_CQ05QwC0BAwkS6-46" vertex="1">
          <mxGeometry width="54" height="18" as="geometry" />
        </mxCell>
        <mxCell id="SBuyi_CQ05QwC0BAwkS6-48" value="" style="shape=partialRectangle;html=1;whiteSpace=wrap;connectable=1;overflow=hidden;fillColor=#dae8fc;top=0;left=0;bottom=0;right=0;pointerEvents=1;rounded=0;shadow=0;glass=0;sketch=0;strokeColor=#6c8ebf;strokeWidth=1;movable=1;resizable=1;rotatable=1;deletable=1;editable=1;" parent="SBuyi_CQ05QwC0BAwkS6-47" vertex="1">
          <mxGeometry width="18" height="18" as="geometry">
            <mxRectangle width="18" height="18" as="alternateBounds" />
          </mxGeometry>
        </mxCell>
        <mxCell id="SBuyi_CQ05QwC0BAwkS6-49" value="" style="shape=partialRectangle;html=1;whiteSpace=wrap;connectable=1;overflow=hidden;fillColor=#dae8fc;top=0;left=0;bottom=0;right=0;pointerEvents=1;rounded=0;shadow=0;glass=0;sketch=0;strokeColor=#6c8ebf;strokeWidth=1;movable=1;resizable=1;rotatable=1;deletable=1;editable=1;" parent="SBuyi_CQ05QwC0BAwkS6-47" vertex="1">
          <mxGeometry x="18" width="18" height="18" as="geometry">
            <mxRectangle width="18" height="18" as="alternateBounds" />
          </mxGeometry>
        </mxCell>
        <mxCell id="SBuyi_CQ05QwC0BAwkS6-50" value="" style="shape=partialRectangle;html=1;whiteSpace=wrap;connectable=1;overflow=hidden;fillColor=#dae8fc;top=0;left=0;bottom=0;right=0;pointerEvents=1;rounded=0;shadow=0;glass=0;sketch=0;strokeColor=#6c8ebf;strokeWidth=1;movable=1;resizable=1;rotatable=1;deletable=1;editable=1;" parent="SBuyi_CQ05QwC0BAwkS6-47" vertex="1">
          <mxGeometry x="36" width="18" height="18" as="geometry">
            <mxRectangle width="18" height="18" as="alternateBounds" />
          </mxGeometry>
        </mxCell>
        <mxCell id="SBuyi_CQ05QwC0BAwkS6-51" value="" style="shape=partialRectangle;collapsible=0;dropTarget=0;pointerEvents=0;fillColor=#dae8fc;top=0;left=0;bottom=0;right=0;points=[[0,0.5],[1,0.5]];portConstraint=eastwest;rounded=0;shadow=0;glass=0;sketch=0;strokeColor=#6c8ebf;strokeWidth=1;movable=1;resizable=1;rotatable=1;deletable=1;editable=1;connectable=1;" parent="SBuyi_CQ05QwC0BAwkS6-46" vertex="1">
          <mxGeometry y="18" width="54" height="18" as="geometry" />
        </mxCell>
        <mxCell id="SBuyi_CQ05QwC0BAwkS6-52" value="" style="shape=partialRectangle;html=1;whiteSpace=wrap;connectable=1;overflow=hidden;fillColor=#dae8fc;top=0;left=0;bottom=0;right=0;pointerEvents=1;rounded=0;shadow=0;glass=0;sketch=0;strokeColor=#6c8ebf;strokeWidth=1;movable=1;resizable=1;rotatable=1;deletable=1;editable=1;" parent="SBuyi_CQ05QwC0BAwkS6-51" vertex="1">
          <mxGeometry width="18" height="18" as="geometry">
            <mxRectangle width="18" height="18" as="alternateBounds" />
          </mxGeometry>
        </mxCell>
        <mxCell id="SBuyi_CQ05QwC0BAwkS6-53" value="" style="shape=partialRectangle;html=1;whiteSpace=wrap;connectable=1;overflow=hidden;fillColor=#dae8fc;top=0;left=0;bottom=0;right=0;pointerEvents=1;rounded=0;shadow=0;glass=0;sketch=0;strokeColor=#6c8ebf;strokeWidth=1;movable=1;resizable=1;rotatable=1;deletable=1;editable=1;" parent="SBuyi_CQ05QwC0BAwkS6-51" vertex="1">
          <mxGeometry x="18" width="18" height="18" as="geometry">
            <mxRectangle width="18" height="18" as="alternateBounds" />
          </mxGeometry>
        </mxCell>
        <mxCell id="SBuyi_CQ05QwC0BAwkS6-54" value="" style="shape=partialRectangle;html=1;whiteSpace=wrap;connectable=1;overflow=hidden;fillColor=#dae8fc;top=0;left=0;bottom=0;right=0;pointerEvents=1;rounded=0;shadow=0;glass=0;sketch=0;strokeColor=#6c8ebf;strokeWidth=1;movable=1;resizable=1;rotatable=1;deletable=1;editable=1;" parent="SBuyi_CQ05QwC0BAwkS6-51" vertex="1">
          <mxGeometry x="36" width="18" height="18" as="geometry">
            <mxRectangle width="18" height="18" as="alternateBounds" />
          </mxGeometry>
        </mxCell>
        <mxCell id="SBuyi_CQ05QwC0BAwkS6-55" value="" style="shape=partialRectangle;collapsible=0;dropTarget=0;pointerEvents=0;fillColor=#dae8fc;top=0;left=0;bottom=0;right=0;points=[[0,0.5],[1,0.5]];portConstraint=eastwest;rounded=0;shadow=0;glass=0;sketch=0;strokeColor=#6c8ebf;strokeWidth=1;movable=1;resizable=1;rotatable=1;deletable=1;editable=1;connectable=1;" parent="SBuyi_CQ05QwC0BAwkS6-46" vertex="1">
          <mxGeometry y="36" width="54" height="18" as="geometry" />
        </mxCell>
        <mxCell id="SBuyi_CQ05QwC0BAwkS6-56" value="" style="shape=partialRectangle;html=1;whiteSpace=wrap;connectable=1;overflow=hidden;fillColor=#dae8fc;top=0;left=0;bottom=0;right=0;pointerEvents=1;rounded=0;shadow=0;glass=0;sketch=0;strokeColor=#6c8ebf;strokeWidth=1;movable=1;resizable=1;rotatable=1;deletable=1;editable=1;" parent="SBuyi_CQ05QwC0BAwkS6-55" vertex="1">
          <mxGeometry width="18" height="18" as="geometry">
            <mxRectangle width="18" height="18" as="alternateBounds" />
          </mxGeometry>
        </mxCell>
        <mxCell id="SBuyi_CQ05QwC0BAwkS6-57" value="" style="shape=partialRectangle;html=1;whiteSpace=wrap;connectable=1;overflow=hidden;fillColor=#dae8fc;top=0;left=0;bottom=0;right=0;pointerEvents=1;rounded=0;shadow=0;glass=0;sketch=0;strokeColor=#6c8ebf;strokeWidth=1;movable=1;resizable=1;rotatable=1;deletable=1;editable=1;" parent="SBuyi_CQ05QwC0BAwkS6-55" vertex="1">
          <mxGeometry x="18" width="18" height="18" as="geometry">
            <mxRectangle width="18" height="18" as="alternateBounds" />
          </mxGeometry>
        </mxCell>
        <mxCell id="SBuyi_CQ05QwC0BAwkS6-58" value="" style="shape=partialRectangle;html=1;whiteSpace=wrap;connectable=1;overflow=hidden;fillColor=#dae8fc;top=0;left=0;bottom=0;right=0;pointerEvents=1;rounded=0;shadow=0;glass=0;sketch=0;strokeColor=#6c8ebf;strokeWidth=1;movable=1;resizable=1;rotatable=1;deletable=1;editable=1;" parent="SBuyi_CQ05QwC0BAwkS6-55" vertex="1">
          <mxGeometry x="36" width="18" height="18" as="geometry">
            <mxRectangle width="18" height="18" as="alternateBounds" />
          </mxGeometry>
        </mxCell>
        <mxCell id="SBuyi_CQ05QwC0BAwkS6-4" value="" style="whiteSpace=wrap;html=1;aspect=fixed;shadow=1;strokeColor=#FFFFFF;fillColor=#0000FF;strokeWidth=2;" parent="1" vertex="1">
          <mxGeometry x="-13" y="904" width="80" height="80" as="geometry" />
        </mxCell>
        <mxCell id="OxLfMOfWld4eNJETsRqd-1" value="" style="whiteSpace=wrap;html=1;strokeColor=#004C99;fillColor=#fff2cc;fontFamily=Helvetica;" parent="1" vertex="1">
          <mxGeometry x="208" y="80" width="230" height="320" as="geometry" />
        </mxCell>
        <mxCell id="OxLfMOfWld4eNJETsRqd-4" value="" style="rounded=0;whiteSpace=wrap;html=1;strokeColor=#000000;fillColor=#FFE6CC;" parent="1" vertex="1">
          <mxGeometry x="245.5" y="105" width="165" height="270" as="geometry" />
        </mxCell>
        <mxCell id="OxLfMOfWld4eNJETsRqd-5" value="&lt;font style=&quot;font-size: 14px&quot;&gt;Focus(3,64,1,1)/2&lt;/font&gt;" style="text;html=1;strokeColor=none;fillColor=none;align=left;verticalAlign=middle;whiteSpace=wrap;rounded=0;" parent="1" vertex="1">
          <mxGeometry x="254" y="110" width="60" height="30" as="geometry" />
        </mxCell>
        <mxCell id="OxLfMOfWld4eNJETsRqd-6" value="&lt;font style=&quot;font-size: 14px&quot;&gt;Conv(64,128,3,2)/2&lt;/font&gt;" style="text;html=1;strokeColor=none;fillColor=none;align=left;verticalAlign=middle;whiteSpace=wrap;rounded=0;" parent="1" vertex="1">
          <mxGeometry x="254" y="136" width="60" height="30" as="geometry" />
        </mxCell>
        <mxCell id="OxLfMOfWld4eNJETsRqd-7" value="&lt;font style=&quot;font-size: 14px&quot;&gt;C3(128,128)*3&lt;/font&gt;" style="text;html=1;strokeColor=none;fillColor=none;align=left;verticalAlign=middle;whiteSpace=wrap;rounded=0;" parent="1" vertex="1">
          <mxGeometry x="254" y="162" width="60" height="30" as="geometry" />
        </mxCell>
        <mxCell id="OxLfMOfWld4eNJETsRqd-8" value="&lt;font style=&quot;font-size: 14px&quot;&gt;Conv(128,256,3,2)*3&lt;/font&gt;" style="text;html=1;strokeColor=none;fillColor=none;align=left;verticalAlign=middle;whiteSpace=wrap;rounded=0;" parent="1" vertex="1">
          <mxGeometry x="254" y="183" width="150" height="40" as="geometry" />
        </mxCell>
        <mxCell id="OxLfMOfWld4eNJETsRqd-9" value="&lt;font style=&quot;font-size: 14px&quot;&gt;C3(256,256)*9&lt;/font&gt;" style="text;html=1;strokeColor=none;fillColor=none;align=left;verticalAlign=middle;whiteSpace=wrap;rounded=0;" parent="1" vertex="1">
          <mxGeometry x="254" y="214" width="60" height="30" as="geometry" />
        </mxCell>
        <mxCell id="OxLfMOfWld4eNJETsRqd-11" value="&lt;font style=&quot;font-size: 14px&quot;&gt;Conv(256,512,3,2)/2&lt;/font&gt;" style="text;html=1;strokeColor=none;fillColor=none;align=left;verticalAlign=middle;whiteSpace=wrap;rounded=0;fontFamily=Helvetica;" parent="1" vertex="1">
          <mxGeometry x="254" y="236" width="170" height="40" as="geometry" />
        </mxCell>
        <mxCell id="OxLfMOfWld4eNJETsRqd-12" value="&lt;font style=&quot;font-size: 14px&quot;&gt;C3(512,512)*9&lt;/font&gt;" style="text;html=1;strokeColor=none;fillColor=none;align=left;verticalAlign=middle;whiteSpace=wrap;rounded=0;" parent="1" vertex="1">
          <mxGeometry x="254" y="267" width="60" height="30" as="geometry" />
        </mxCell>
        <mxCell id="OxLfMOfWld4eNJETsRqd-13" value="&lt;font style=&quot;font-size: 14px&quot;&gt;Conv(512,1024,3,2)/2&lt;/font&gt;" style="text;html=1;strokeColor=none;fillColor=none;align=left;verticalAlign=middle;whiteSpace=wrap;rounded=0;fontFamily=Helvetica;" parent="1" vertex="1">
          <mxGeometry x="254" y="288" width="170" height="40" as="geometry" />
        </mxCell>
        <mxCell id="OxLfMOfWld4eNJETsRqd-14" value="&lt;font style=&quot;font-size: 14px&quot;&gt;SPP(512,1024,[5,9,13])&lt;/font&gt;" style="text;html=1;strokeColor=none;fillColor=none;align=left;verticalAlign=middle;whiteSpace=wrap;rounded=0;fontFamily=Helvetica;" parent="1" vertex="1">
          <mxGeometry x="254" y="314" width="170" height="40" as="geometry" />
        </mxCell>
        <mxCell id="OxLfMOfWld4eNJETsRqd-15" value="&lt;font style=&quot;font-size: 14px&quot;&gt;C3(1024,1024)*3&lt;/font&gt;" style="text;html=1;strokeColor=none;fillColor=none;align=left;verticalAlign=middle;whiteSpace=wrap;rounded=0;" parent="1" vertex="1">
          <mxGeometry x="254" y="345" width="60" height="30" as="geometry" />
        </mxCell>
        <mxCell id="OxLfMOfWld4eNJETsRqd-18" value="&lt;font style=&quot;font-size: 14px&quot;&gt;0&lt;/font&gt;" style="text;html=1;strokeColor=none;fillColor=none;align=left;verticalAlign=middle;whiteSpace=wrap;rounded=0;fontColor=#FF8000;" parent="1" vertex="1">
          <mxGeometry x="222.5" y="110" width="30" height="30" as="geometry" />
        </mxCell>
        <mxCell id="OxLfMOfWld4eNJETsRqd-19" value="&lt;font style=&quot;font-size: 14px&quot;&gt;1&lt;/font&gt;" style="text;html=1;strokeColor=none;fillColor=none;align=left;verticalAlign=middle;whiteSpace=wrap;rounded=0;fontColor=#FF8000;" parent="1" vertex="1">
          <mxGeometry x="222.5" y="136" width="30" height="34" as="geometry" />
        </mxCell>
        <mxCell id="OxLfMOfWld4eNJETsRqd-20" value="&lt;font style=&quot;font-size: 14px&quot;&gt;2&lt;/font&gt;" style="text;html=1;strokeColor=none;fillColor=none;align=left;verticalAlign=middle;whiteSpace=wrap;rounded=0;fontColor=#FF8000;" parent="1" vertex="1">
          <mxGeometry x="222.5" y="162" width="30" height="30" as="geometry" />
        </mxCell>
        <mxCell id="OxLfMOfWld4eNJETsRqd-21" value="&lt;font style=&quot;font-size: 14px&quot;&gt;3&lt;/font&gt;" style="text;html=1;strokeColor=none;fillColor=none;align=left;verticalAlign=middle;whiteSpace=wrap;rounded=0;fontColor=#FF8000;" parent="1" vertex="1">
          <mxGeometry x="222.5" y="188" width="30" height="30" as="geometry" />
        </mxCell>
        <mxCell id="OxLfMOfWld4eNJETsRqd-22" value="&lt;font style=&quot;font-size: 14px&quot;&gt;4&lt;/font&gt;" style="text;html=1;strokeColor=none;fillColor=none;align=left;verticalAlign=middle;whiteSpace=wrap;rounded=0;fontColor=#FF8000;" parent="1" vertex="1">
          <mxGeometry x="222.5" y="214" width="30" height="30" as="geometry" />
        </mxCell>
        <mxCell id="OxLfMOfWld4eNJETsRqd-23" value="&lt;font style=&quot;font-size: 14px&quot;&gt;5&lt;/font&gt;" style="text;html=1;strokeColor=none;fillColor=none;align=left;verticalAlign=middle;whiteSpace=wrap;rounded=0;fontColor=#FF8000;" parent="1" vertex="1">
          <mxGeometry x="222.5" y="241" width="30" height="30" as="geometry" />
        </mxCell>
        <mxCell id="OxLfMOfWld4eNJETsRqd-24" value="&lt;font style=&quot;font-size: 14px&quot;&gt;6&lt;/font&gt;" style="text;html=1;strokeColor=none;fillColor=none;align=left;verticalAlign=middle;whiteSpace=wrap;rounded=0;fontColor=#FF8000;" parent="1" vertex="1">
          <mxGeometry x="222.5" y="267" width="30" height="30" as="geometry" />
        </mxCell>
        <mxCell id="OxLfMOfWld4eNJETsRqd-25" value="&lt;font style=&quot;font-size: 14px&quot;&gt;7&lt;/font&gt;" style="text;html=1;strokeColor=none;fillColor=none;align=left;verticalAlign=middle;whiteSpace=wrap;rounded=0;fontColor=#FF8000;" parent="1" vertex="1">
          <mxGeometry x="222.5" y="293" width="30" height="30" as="geometry" />
        </mxCell>
        <mxCell id="OxLfMOfWld4eNJETsRqd-26" value="&lt;font style=&quot;font-size: 14px&quot;&gt;8&lt;/font&gt;" style="text;html=1;strokeColor=none;fillColor=none;align=left;verticalAlign=middle;whiteSpace=wrap;rounded=0;fontColor=#FF8000;" parent="1" vertex="1">
          <mxGeometry x="222.5" y="320" width="30" height="29" as="geometry" />
        </mxCell>
        <mxCell id="OxLfMOfWld4eNJETsRqd-27" value="&lt;font style=&quot;font-size: 14px&quot;&gt;9&lt;/font&gt;" style="text;html=1;strokeColor=none;fillColor=none;align=left;verticalAlign=middle;whiteSpace=wrap;rounded=0;fontColor=#FF8000;" parent="1" vertex="1">
          <mxGeometry x="222.5" y="345" width="30" height="30" as="geometry" />
        </mxCell>
        <mxCell id="SBuyi_CQ05QwC0BAwkS6-184" style="edgeStyle=orthogonalEdgeStyle;curved=1;rounded=0;orthogonalLoop=1;jettySize=auto;html=1;exitX=1;exitY=0.5;exitDx=0;exitDy=0;entryX=0;entryY=0.25;entryDx=0;entryDy=0;strokeColor=#B5739D;" parent="1" source="SBuyi_CQ05QwC0BAwkS6-2" target="SBuyi_CQ05QwC0BAwkS6-153" edge="1">
          <mxGeometry relative="1" as="geometry" />
        </mxCell>
        <mxCell id="SBuyi_CQ05QwC0BAwkS6-2" value="" style="whiteSpace=wrap;html=1;aspect=fixed;shadow=1;fillColor=#00FF00;strokeColor=#FFFFFF;strokeWidth=2;" parent="1" vertex="1">
          <mxGeometry x="-33" y="924" width="80" height="80" as="geometry" />
        </mxCell>
        <mxCell id="SBuyi_CQ05QwC0BAwkS6-185" style="edgeStyle=orthogonalEdgeStyle;curved=1;rounded=0;orthogonalLoop=1;jettySize=auto;html=1;exitX=1;exitY=0.5;exitDx=0;exitDy=0;entryX=0;entryY=0.75;entryDx=0;entryDy=0;strokeColor=#B5739D;" parent="1" source="SBuyi_CQ05QwC0BAwkS6-1" target="SBuyi_CQ05QwC0BAwkS6-170" edge="1">
          <mxGeometry relative="1" as="geometry" />
        </mxCell>
        <mxCell id="SBuyi_CQ05QwC0BAwkS6-1" value="" style="whiteSpace=wrap;html=1;aspect=fixed;fillColor=#e51400;fontColor=#ffffff;strokeColor=#FFFFFF;shadow=1;sketch=0;glass=0;rounded=0;strokeWidth=2;" parent="1" vertex="1">
          <mxGeometry x="-53" y="944" width="80" height="80" as="geometry" />
        </mxCell>
        <mxCell id="SBuyi_CQ05QwC0BAwkS6-20" value="" style="shape=table;startSize=0;container=1;collapsible=0;childLayout=tableLayout;rounded=0;shadow=0;glass=0;sketch=0;strokeColor=#6c8ebf;strokeWidth=1;fillColor=#dae8fc;movable=1;resizable=1;rotatable=1;deletable=1;editable=1;connectable=1;" parent="1" vertex="1">
          <mxGeometry x="172" y="998" width="54" height="54" as="geometry" />
        </mxCell>
        <mxCell id="SBuyi_CQ05QwC0BAwkS6-21" value="" style="shape=partialRectangle;collapsible=0;dropTarget=0;pointerEvents=0;fillColor=#dae8fc;top=0;left=0;bottom=0;right=0;points=[[0,0.5],[1,0.5]];portConstraint=eastwest;rounded=0;shadow=0;glass=0;sketch=0;strokeColor=#6c8ebf;strokeWidth=1;movable=1;resizable=1;rotatable=1;deletable=1;editable=1;connectable=1;" parent="SBuyi_CQ05QwC0BAwkS6-20" vertex="1">
          <mxGeometry width="54" height="18" as="geometry" />
        </mxCell>
        <mxCell id="SBuyi_CQ05QwC0BAwkS6-22" value="" style="shape=partialRectangle;html=1;whiteSpace=wrap;connectable=1;overflow=hidden;fillColor=#dae8fc;top=0;left=0;bottom=0;right=0;pointerEvents=1;rounded=0;shadow=0;glass=0;sketch=0;strokeColor=#6c8ebf;strokeWidth=1;movable=1;resizable=1;rotatable=1;deletable=1;editable=1;" parent="SBuyi_CQ05QwC0BAwkS6-21" vertex="1">
          <mxGeometry width="18" height="18" as="geometry">
            <mxRectangle width="18" height="18" as="alternateBounds" />
          </mxGeometry>
        </mxCell>
        <mxCell id="SBuyi_CQ05QwC0BAwkS6-23" value="" style="shape=partialRectangle;html=1;whiteSpace=wrap;connectable=1;overflow=hidden;fillColor=#dae8fc;top=0;left=0;bottom=0;right=0;pointerEvents=1;rounded=0;shadow=0;glass=0;sketch=0;strokeColor=#6c8ebf;strokeWidth=1;movable=1;resizable=1;rotatable=1;deletable=1;editable=1;" parent="SBuyi_CQ05QwC0BAwkS6-21" vertex="1">
          <mxGeometry x="18" width="18" height="18" as="geometry">
            <mxRectangle width="18" height="18" as="alternateBounds" />
          </mxGeometry>
        </mxCell>
        <mxCell id="SBuyi_CQ05QwC0BAwkS6-24" value="" style="shape=partialRectangle;html=1;whiteSpace=wrap;connectable=1;overflow=hidden;fillColor=#dae8fc;top=0;left=0;bottom=0;right=0;pointerEvents=1;rounded=0;shadow=0;glass=0;sketch=0;strokeColor=#6c8ebf;strokeWidth=1;movable=1;resizable=1;rotatable=1;deletable=1;editable=1;" parent="SBuyi_CQ05QwC0BAwkS6-21" vertex="1">
          <mxGeometry x="36" width="18" height="18" as="geometry">
            <mxRectangle width="18" height="18" as="alternateBounds" />
          </mxGeometry>
        </mxCell>
        <mxCell id="SBuyi_CQ05QwC0BAwkS6-25" value="" style="shape=partialRectangle;collapsible=0;dropTarget=0;pointerEvents=0;fillColor=#dae8fc;top=0;left=0;bottom=0;right=0;points=[[0,0.5],[1,0.5]];portConstraint=eastwest;rounded=0;shadow=0;glass=0;sketch=0;strokeColor=#6c8ebf;strokeWidth=1;movable=1;resizable=1;rotatable=1;deletable=1;editable=1;connectable=1;" parent="SBuyi_CQ05QwC0BAwkS6-20" vertex="1">
          <mxGeometry y="18" width="54" height="18" as="geometry" />
        </mxCell>
        <mxCell id="SBuyi_CQ05QwC0BAwkS6-26" value="" style="shape=partialRectangle;html=1;whiteSpace=wrap;connectable=1;overflow=hidden;fillColor=#dae8fc;top=0;left=0;bottom=0;right=0;pointerEvents=1;rounded=0;shadow=0;glass=0;sketch=0;strokeColor=#6c8ebf;strokeWidth=1;movable=1;resizable=1;rotatable=1;deletable=1;editable=1;" parent="SBuyi_CQ05QwC0BAwkS6-25" vertex="1">
          <mxGeometry width="18" height="18" as="geometry">
            <mxRectangle width="18" height="18" as="alternateBounds" />
          </mxGeometry>
        </mxCell>
        <mxCell id="SBuyi_CQ05QwC0BAwkS6-27" value="" style="shape=partialRectangle;html=1;whiteSpace=wrap;connectable=1;overflow=hidden;fillColor=#dae8fc;top=0;left=0;bottom=0;right=0;pointerEvents=1;rounded=0;shadow=0;glass=0;sketch=0;strokeColor=#6c8ebf;strokeWidth=1;movable=1;resizable=1;rotatable=1;deletable=1;editable=1;" parent="SBuyi_CQ05QwC0BAwkS6-25" vertex="1">
          <mxGeometry x="18" width="18" height="18" as="geometry">
            <mxRectangle width="18" height="18" as="alternateBounds" />
          </mxGeometry>
        </mxCell>
        <mxCell id="SBuyi_CQ05QwC0BAwkS6-28" value="" style="shape=partialRectangle;html=1;whiteSpace=wrap;connectable=1;overflow=hidden;fillColor=#dae8fc;top=0;left=0;bottom=0;right=0;pointerEvents=1;rounded=0;shadow=0;glass=0;sketch=0;strokeColor=#6c8ebf;strokeWidth=1;movable=1;resizable=1;rotatable=1;deletable=1;editable=1;" parent="SBuyi_CQ05QwC0BAwkS6-25" vertex="1">
          <mxGeometry x="36" width="18" height="18" as="geometry">
            <mxRectangle width="18" height="18" as="alternateBounds" />
          </mxGeometry>
        </mxCell>
        <mxCell id="SBuyi_CQ05QwC0BAwkS6-29" value="" style="shape=partialRectangle;collapsible=0;dropTarget=0;pointerEvents=0;fillColor=#dae8fc;top=0;left=0;bottom=0;right=0;points=[[0,0.5],[1,0.5]];portConstraint=eastwest;rounded=0;shadow=0;glass=0;sketch=0;strokeColor=#6c8ebf;strokeWidth=1;movable=1;resizable=1;rotatable=1;deletable=1;editable=1;connectable=1;" parent="SBuyi_CQ05QwC0BAwkS6-20" vertex="1">
          <mxGeometry y="36" width="54" height="18" as="geometry" />
        </mxCell>
        <mxCell id="SBuyi_CQ05QwC0BAwkS6-30" value="" style="shape=partialRectangle;html=1;whiteSpace=wrap;connectable=1;overflow=hidden;fillColor=#dae8fc;top=0;left=0;bottom=0;right=0;pointerEvents=1;rounded=0;shadow=0;glass=0;sketch=0;strokeColor=#6c8ebf;strokeWidth=1;movable=1;resizable=1;rotatable=1;deletable=1;editable=1;" parent="SBuyi_CQ05QwC0BAwkS6-29" vertex="1">
          <mxGeometry width="18" height="18" as="geometry">
            <mxRectangle width="18" height="18" as="alternateBounds" />
          </mxGeometry>
        </mxCell>
        <mxCell id="SBuyi_CQ05QwC0BAwkS6-31" value="" style="shape=partialRectangle;html=1;whiteSpace=wrap;connectable=1;overflow=hidden;fillColor=#dae8fc;top=0;left=0;bottom=0;right=0;pointerEvents=1;rounded=0;shadow=0;glass=0;sketch=0;strokeColor=#6c8ebf;strokeWidth=1;movable=1;resizable=1;rotatable=1;deletable=1;editable=1;" parent="SBuyi_CQ05QwC0BAwkS6-29" vertex="1">
          <mxGeometry x="18" width="18" height="18" as="geometry">
            <mxRectangle width="18" height="18" as="alternateBounds" />
          </mxGeometry>
        </mxCell>
        <mxCell id="SBuyi_CQ05QwC0BAwkS6-32" value="" style="shape=partialRectangle;html=1;whiteSpace=wrap;connectable=1;overflow=hidden;fillColor=#dae8fc;top=0;left=0;bottom=0;right=0;pointerEvents=1;rounded=0;shadow=0;glass=0;sketch=0;strokeColor=#6c8ebf;strokeWidth=1;movable=1;resizable=1;rotatable=1;deletable=1;editable=1;" parent="SBuyi_CQ05QwC0BAwkS6-29" vertex="1">
          <mxGeometry x="36" width="18" height="18" as="geometry">
            <mxRectangle width="18" height="18" as="alternateBounds" />
          </mxGeometry>
        </mxCell>
        <mxCell id="SBuyi_CQ05QwC0BAwkS6-60" value="" style="shape=table;startSize=0;container=1;collapsible=0;childLayout=tableLayout;rounded=0;shadow=0;glass=0;sketch=0;strokeColor=#6c8ebf;strokeWidth=1;fillColor=#dae8fc;movable=1;resizable=1;rotatable=1;deletable=1;editable=1;connectable=1;" parent="1" vertex="1">
          <mxGeometry x="214" y="876" width="54" height="54" as="geometry" />
        </mxCell>
        <mxCell id="SBuyi_CQ05QwC0BAwkS6-61" value="" style="shape=partialRectangle;collapsible=0;dropTarget=0;pointerEvents=0;fillColor=#dae8fc;top=0;left=0;bottom=0;right=0;points=[[0,0.5],[1,0.5]];portConstraint=eastwest;rounded=0;shadow=0;glass=0;sketch=0;strokeColor=#6c8ebf;strokeWidth=1;movable=1;resizable=1;rotatable=1;deletable=1;editable=1;connectable=1;" parent="SBuyi_CQ05QwC0BAwkS6-60" vertex="1">
          <mxGeometry width="54" height="18" as="geometry" />
        </mxCell>
        <mxCell id="SBuyi_CQ05QwC0BAwkS6-62" value="" style="shape=partialRectangle;html=1;whiteSpace=wrap;connectable=1;overflow=hidden;fillColor=#dae8fc;top=0;left=0;bottom=0;right=0;pointerEvents=1;rounded=0;shadow=0;glass=0;sketch=0;strokeColor=#6c8ebf;strokeWidth=1;movable=1;resizable=1;rotatable=1;deletable=1;editable=1;" parent="SBuyi_CQ05QwC0BAwkS6-61" vertex="1">
          <mxGeometry width="18" height="18" as="geometry">
            <mxRectangle width="18" height="18" as="alternateBounds" />
          </mxGeometry>
        </mxCell>
        <mxCell id="SBuyi_CQ05QwC0BAwkS6-63" value="" style="shape=partialRectangle;html=1;whiteSpace=wrap;connectable=1;overflow=hidden;fillColor=#dae8fc;top=0;left=0;bottom=0;right=0;pointerEvents=1;rounded=0;shadow=0;glass=0;sketch=0;strokeColor=#6c8ebf;strokeWidth=1;movable=1;resizable=1;rotatable=1;deletable=1;editable=1;" parent="SBuyi_CQ05QwC0BAwkS6-61" vertex="1">
          <mxGeometry x="18" width="18" height="18" as="geometry">
            <mxRectangle width="18" height="18" as="alternateBounds" />
          </mxGeometry>
        </mxCell>
        <mxCell id="SBuyi_CQ05QwC0BAwkS6-64" value="" style="shape=partialRectangle;html=1;whiteSpace=wrap;connectable=1;overflow=hidden;fillColor=#dae8fc;top=0;left=0;bottom=0;right=0;pointerEvents=1;rounded=0;shadow=0;glass=0;sketch=0;strokeColor=#6c8ebf;strokeWidth=1;movable=1;resizable=1;rotatable=1;deletable=1;editable=1;" parent="SBuyi_CQ05QwC0BAwkS6-61" vertex="1">
          <mxGeometry x="36" width="18" height="18" as="geometry">
            <mxRectangle width="18" height="18" as="alternateBounds" />
          </mxGeometry>
        </mxCell>
        <mxCell id="SBuyi_CQ05QwC0BAwkS6-65" value="" style="shape=partialRectangle;collapsible=0;dropTarget=0;pointerEvents=0;fillColor=#dae8fc;top=0;left=0;bottom=0;right=0;points=[[0,0.5],[1,0.5]];portConstraint=eastwest;rounded=0;shadow=0;glass=0;sketch=0;strokeColor=#6c8ebf;strokeWidth=1;movable=1;resizable=1;rotatable=1;deletable=1;editable=1;connectable=1;" parent="SBuyi_CQ05QwC0BAwkS6-60" vertex="1">
          <mxGeometry y="18" width="54" height="18" as="geometry" />
        </mxCell>
        <mxCell id="SBuyi_CQ05QwC0BAwkS6-66" value="" style="shape=partialRectangle;html=1;whiteSpace=wrap;connectable=1;overflow=hidden;fillColor=#dae8fc;top=0;left=0;bottom=0;right=0;pointerEvents=1;rounded=0;shadow=0;glass=0;sketch=0;strokeColor=#6c8ebf;strokeWidth=1;movable=1;resizable=1;rotatable=1;deletable=1;editable=1;" parent="SBuyi_CQ05QwC0BAwkS6-65" vertex="1">
          <mxGeometry width="18" height="18" as="geometry">
            <mxRectangle width="18" height="18" as="alternateBounds" />
          </mxGeometry>
        </mxCell>
        <mxCell id="SBuyi_CQ05QwC0BAwkS6-67" value="" style="shape=partialRectangle;html=1;whiteSpace=wrap;connectable=1;overflow=hidden;fillColor=#dae8fc;top=0;left=0;bottom=0;right=0;pointerEvents=1;rounded=0;shadow=0;glass=0;sketch=0;strokeColor=#6c8ebf;strokeWidth=1;movable=1;resizable=1;rotatable=1;deletable=1;editable=1;" parent="SBuyi_CQ05QwC0BAwkS6-65" vertex="1">
          <mxGeometry x="18" width="18" height="18" as="geometry">
            <mxRectangle width="18" height="18" as="alternateBounds" />
          </mxGeometry>
        </mxCell>
        <mxCell id="SBuyi_CQ05QwC0BAwkS6-68" value="" style="shape=partialRectangle;html=1;whiteSpace=wrap;connectable=1;overflow=hidden;fillColor=#dae8fc;top=0;left=0;bottom=0;right=0;pointerEvents=1;rounded=0;shadow=0;glass=0;sketch=0;strokeColor=#6c8ebf;strokeWidth=1;movable=1;resizable=1;rotatable=1;deletable=1;editable=1;" parent="SBuyi_CQ05QwC0BAwkS6-65" vertex="1">
          <mxGeometry x="36" width="18" height="18" as="geometry">
            <mxRectangle width="18" height="18" as="alternateBounds" />
          </mxGeometry>
        </mxCell>
        <mxCell id="SBuyi_CQ05QwC0BAwkS6-69" value="" style="shape=partialRectangle;collapsible=0;dropTarget=0;pointerEvents=0;fillColor=#dae8fc;top=0;left=0;bottom=0;right=0;points=[[0,0.5],[1,0.5]];portConstraint=eastwest;rounded=0;shadow=0;glass=0;sketch=0;strokeColor=#6c8ebf;strokeWidth=1;movable=1;resizable=1;rotatable=1;deletable=1;editable=1;connectable=1;" parent="SBuyi_CQ05QwC0BAwkS6-60" vertex="1">
          <mxGeometry y="36" width="54" height="18" as="geometry" />
        </mxCell>
        <mxCell id="SBuyi_CQ05QwC0BAwkS6-70" value="" style="shape=partialRectangle;html=1;whiteSpace=wrap;connectable=1;overflow=hidden;fillColor=#dae8fc;top=0;left=0;bottom=0;right=0;pointerEvents=1;rounded=0;shadow=0;glass=0;sketch=0;strokeColor=#6c8ebf;strokeWidth=1;movable=1;resizable=1;rotatable=1;deletable=1;editable=1;" parent="SBuyi_CQ05QwC0BAwkS6-69" vertex="1">
          <mxGeometry width="18" height="18" as="geometry">
            <mxRectangle width="18" height="18" as="alternateBounds" />
          </mxGeometry>
        </mxCell>
        <mxCell id="SBuyi_CQ05QwC0BAwkS6-71" value="" style="shape=partialRectangle;html=1;whiteSpace=wrap;connectable=1;overflow=hidden;fillColor=#dae8fc;top=0;left=0;bottom=0;right=0;pointerEvents=1;rounded=0;shadow=0;glass=0;sketch=0;strokeColor=#6c8ebf;strokeWidth=1;movable=1;resizable=1;rotatable=1;deletable=1;editable=1;" parent="SBuyi_CQ05QwC0BAwkS6-69" vertex="1">
          <mxGeometry x="18" width="18" height="18" as="geometry">
            <mxRectangle width="18" height="18" as="alternateBounds" />
          </mxGeometry>
        </mxCell>
        <mxCell id="SBuyi_CQ05QwC0BAwkS6-72" value="" style="shape=partialRectangle;html=1;whiteSpace=wrap;connectable=1;overflow=hidden;fillColor=#dae8fc;top=0;left=0;bottom=0;right=0;pointerEvents=1;rounded=0;shadow=0;glass=0;sketch=0;strokeColor=#6c8ebf;strokeWidth=1;movable=1;resizable=1;rotatable=1;deletable=1;editable=1;" parent="SBuyi_CQ05QwC0BAwkS6-69" vertex="1">
          <mxGeometry x="36" width="18" height="18" as="geometry">
            <mxRectangle width="18" height="18" as="alternateBounds" />
          </mxGeometry>
        </mxCell>
        <mxCell id="SBuyi_CQ05QwC0BAwkS6-73" value="" style="shape=table;startSize=0;container=1;collapsible=0;childLayout=tableLayout;rounded=0;shadow=0;glass=0;sketch=0;strokeColor=#6c8ebf;strokeWidth=1;fillColor=#dae8fc;movable=1;resizable=1;rotatable=1;deletable=1;editable=1;connectable=1;" parent="1" vertex="1">
          <mxGeometry x="203" y="888" width="54" height="54" as="geometry" />
        </mxCell>
        <mxCell id="SBuyi_CQ05QwC0BAwkS6-74" value="" style="shape=partialRectangle;collapsible=0;dropTarget=0;pointerEvents=0;fillColor=#dae8fc;top=0;left=0;bottom=0;right=0;points=[[0,0.5],[1,0.5]];portConstraint=eastwest;rounded=0;shadow=0;glass=0;sketch=0;strokeColor=#6c8ebf;strokeWidth=1;movable=1;resizable=1;rotatable=1;deletable=1;editable=1;connectable=1;" parent="SBuyi_CQ05QwC0BAwkS6-73" vertex="1">
          <mxGeometry width="54" height="18" as="geometry" />
        </mxCell>
        <mxCell id="SBuyi_CQ05QwC0BAwkS6-75" value="" style="shape=partialRectangle;html=1;whiteSpace=wrap;connectable=1;overflow=hidden;fillColor=#dae8fc;top=0;left=0;bottom=0;right=0;pointerEvents=1;rounded=0;shadow=0;glass=0;sketch=0;strokeColor=#6c8ebf;strokeWidth=1;movable=1;resizable=1;rotatable=1;deletable=1;editable=1;" parent="SBuyi_CQ05QwC0BAwkS6-74" vertex="1">
          <mxGeometry width="18" height="18" as="geometry">
            <mxRectangle width="18" height="18" as="alternateBounds" />
          </mxGeometry>
        </mxCell>
        <mxCell id="SBuyi_CQ05QwC0BAwkS6-76" value="" style="shape=partialRectangle;html=1;whiteSpace=wrap;connectable=1;overflow=hidden;fillColor=#dae8fc;top=0;left=0;bottom=0;right=0;pointerEvents=1;rounded=0;shadow=0;glass=0;sketch=0;strokeColor=#6c8ebf;strokeWidth=1;movable=1;resizable=1;rotatable=1;deletable=1;editable=1;" parent="SBuyi_CQ05QwC0BAwkS6-74" vertex="1">
          <mxGeometry x="18" width="18" height="18" as="geometry">
            <mxRectangle width="18" height="18" as="alternateBounds" />
          </mxGeometry>
        </mxCell>
        <mxCell id="SBuyi_CQ05QwC0BAwkS6-77" value="" style="shape=partialRectangle;html=1;whiteSpace=wrap;connectable=1;overflow=hidden;fillColor=#dae8fc;top=0;left=0;bottom=0;right=0;pointerEvents=1;rounded=0;shadow=0;glass=0;sketch=0;strokeColor=#6c8ebf;strokeWidth=1;movable=1;resizable=1;rotatable=1;deletable=1;editable=1;" parent="SBuyi_CQ05QwC0BAwkS6-74" vertex="1">
          <mxGeometry x="36" width="18" height="18" as="geometry">
            <mxRectangle width="18" height="18" as="alternateBounds" />
          </mxGeometry>
        </mxCell>
        <mxCell id="SBuyi_CQ05QwC0BAwkS6-78" value="" style="shape=partialRectangle;collapsible=0;dropTarget=0;pointerEvents=0;fillColor=#dae8fc;top=0;left=0;bottom=0;right=0;points=[[0,0.5],[1,0.5]];portConstraint=eastwest;rounded=0;shadow=0;glass=0;sketch=0;strokeColor=#6c8ebf;strokeWidth=1;movable=1;resizable=1;rotatable=1;deletable=1;editable=1;connectable=1;" parent="SBuyi_CQ05QwC0BAwkS6-73" vertex="1">
          <mxGeometry y="18" width="54" height="18" as="geometry" />
        </mxCell>
        <mxCell id="SBuyi_CQ05QwC0BAwkS6-79" value="" style="shape=partialRectangle;html=1;whiteSpace=wrap;connectable=1;overflow=hidden;fillColor=#dae8fc;top=0;left=0;bottom=0;right=0;pointerEvents=1;rounded=0;shadow=0;glass=0;sketch=0;strokeColor=#6c8ebf;strokeWidth=1;movable=1;resizable=1;rotatable=1;deletable=1;editable=1;" parent="SBuyi_CQ05QwC0BAwkS6-78" vertex="1">
          <mxGeometry width="18" height="18" as="geometry">
            <mxRectangle width="18" height="18" as="alternateBounds" />
          </mxGeometry>
        </mxCell>
        <mxCell id="SBuyi_CQ05QwC0BAwkS6-80" value="" style="shape=partialRectangle;html=1;whiteSpace=wrap;connectable=1;overflow=hidden;fillColor=#dae8fc;top=0;left=0;bottom=0;right=0;pointerEvents=1;rounded=0;shadow=0;glass=0;sketch=0;strokeColor=#6c8ebf;strokeWidth=1;movable=1;resizable=1;rotatable=1;deletable=1;editable=1;" parent="SBuyi_CQ05QwC0BAwkS6-78" vertex="1">
          <mxGeometry x="18" width="18" height="18" as="geometry">
            <mxRectangle width="18" height="18" as="alternateBounds" />
          </mxGeometry>
        </mxCell>
        <mxCell id="SBuyi_CQ05QwC0BAwkS6-81" value="" style="shape=partialRectangle;html=1;whiteSpace=wrap;connectable=1;overflow=hidden;fillColor=#dae8fc;top=0;left=0;bottom=0;right=0;pointerEvents=1;rounded=0;shadow=0;glass=0;sketch=0;strokeColor=#6c8ebf;strokeWidth=1;movable=1;resizable=1;rotatable=1;deletable=1;editable=1;" parent="SBuyi_CQ05QwC0BAwkS6-78" vertex="1">
          <mxGeometry x="36" width="18" height="18" as="geometry">
            <mxRectangle width="18" height="18" as="alternateBounds" />
          </mxGeometry>
        </mxCell>
        <mxCell id="SBuyi_CQ05QwC0BAwkS6-82" value="" style="shape=partialRectangle;collapsible=0;dropTarget=0;pointerEvents=0;fillColor=#dae8fc;top=0;left=0;bottom=0;right=0;points=[[0,0.5],[1,0.5]];portConstraint=eastwest;rounded=0;shadow=0;glass=0;sketch=0;strokeColor=#6c8ebf;strokeWidth=1;movable=1;resizable=1;rotatable=1;deletable=1;editable=1;connectable=1;" parent="SBuyi_CQ05QwC0BAwkS6-73" vertex="1">
          <mxGeometry y="36" width="54" height="18" as="geometry" />
        </mxCell>
        <mxCell id="SBuyi_CQ05QwC0BAwkS6-83" value="" style="shape=partialRectangle;html=1;whiteSpace=wrap;connectable=1;overflow=hidden;fillColor=#dae8fc;top=0;left=0;bottom=0;right=0;pointerEvents=1;rounded=0;shadow=0;glass=0;sketch=0;strokeColor=#6c8ebf;strokeWidth=1;movable=1;resizable=1;rotatable=1;deletable=1;editable=1;" parent="SBuyi_CQ05QwC0BAwkS6-82" vertex="1">
          <mxGeometry width="18" height="18" as="geometry">
            <mxRectangle width="18" height="18" as="alternateBounds" />
          </mxGeometry>
        </mxCell>
        <mxCell id="SBuyi_CQ05QwC0BAwkS6-84" value="" style="shape=partialRectangle;html=1;whiteSpace=wrap;connectable=1;overflow=hidden;fillColor=#dae8fc;top=0;left=0;bottom=0;right=0;pointerEvents=1;rounded=0;shadow=0;glass=0;sketch=0;strokeColor=#6c8ebf;strokeWidth=1;movable=1;resizable=1;rotatable=1;deletable=1;editable=1;" parent="SBuyi_CQ05QwC0BAwkS6-82" vertex="1">
          <mxGeometry x="18" width="18" height="18" as="geometry">
            <mxRectangle width="18" height="18" as="alternateBounds" />
          </mxGeometry>
        </mxCell>
        <mxCell id="SBuyi_CQ05QwC0BAwkS6-85" value="" style="shape=partialRectangle;html=1;whiteSpace=wrap;connectable=1;overflow=hidden;fillColor=#dae8fc;top=0;left=0;bottom=0;right=0;pointerEvents=1;rounded=0;shadow=0;glass=0;sketch=0;strokeColor=#6c8ebf;strokeWidth=1;movable=1;resizable=1;rotatable=1;deletable=1;editable=1;" parent="SBuyi_CQ05QwC0BAwkS6-82" vertex="1">
          <mxGeometry x="36" width="18" height="18" as="geometry">
            <mxRectangle width="18" height="18" as="alternateBounds" />
          </mxGeometry>
        </mxCell>
        <mxCell id="SBuyi_CQ05QwC0BAwkS6-86" value="" style="shape=table;startSize=0;container=1;collapsible=0;childLayout=tableLayout;rounded=0;shadow=0;glass=0;sketch=0;strokeColor=#6c8ebf;strokeWidth=1;fillColor=#dae8fc;movable=1;resizable=1;rotatable=1;deletable=1;editable=1;connectable=1;" parent="1" vertex="1">
          <mxGeometry x="194" y="900" width="54" height="54" as="geometry" />
        </mxCell>
        <mxCell id="SBuyi_CQ05QwC0BAwkS6-87" value="" style="shape=partialRectangle;collapsible=0;dropTarget=0;pointerEvents=0;fillColor=#dae8fc;top=0;left=0;bottom=0;right=0;points=[[0,0.5],[1,0.5]];portConstraint=eastwest;rounded=0;shadow=0;glass=0;sketch=0;strokeColor=#6c8ebf;strokeWidth=1;movable=1;resizable=1;rotatable=1;deletable=1;editable=1;connectable=1;" parent="SBuyi_CQ05QwC0BAwkS6-86" vertex="1">
          <mxGeometry width="54" height="18" as="geometry" />
        </mxCell>
        <mxCell id="SBuyi_CQ05QwC0BAwkS6-88" value="" style="shape=partialRectangle;html=1;whiteSpace=wrap;connectable=1;overflow=hidden;fillColor=#dae8fc;top=0;left=0;bottom=0;right=0;pointerEvents=1;rounded=0;shadow=0;glass=0;sketch=0;strokeColor=#6c8ebf;strokeWidth=1;movable=1;resizable=1;rotatable=1;deletable=1;editable=1;" parent="SBuyi_CQ05QwC0BAwkS6-87" vertex="1">
          <mxGeometry width="18" height="18" as="geometry">
            <mxRectangle width="18" height="18" as="alternateBounds" />
          </mxGeometry>
        </mxCell>
        <mxCell id="SBuyi_CQ05QwC0BAwkS6-89" value="" style="shape=partialRectangle;html=1;whiteSpace=wrap;connectable=1;overflow=hidden;fillColor=#dae8fc;top=0;left=0;bottom=0;right=0;pointerEvents=1;rounded=0;shadow=0;glass=0;sketch=0;strokeColor=#6c8ebf;strokeWidth=1;movable=1;resizable=1;rotatable=1;deletable=1;editable=1;" parent="SBuyi_CQ05QwC0BAwkS6-87" vertex="1">
          <mxGeometry x="18" width="18" height="18" as="geometry">
            <mxRectangle width="18" height="18" as="alternateBounds" />
          </mxGeometry>
        </mxCell>
        <mxCell id="SBuyi_CQ05QwC0BAwkS6-90" value="" style="shape=partialRectangle;html=1;whiteSpace=wrap;connectable=1;overflow=hidden;fillColor=#dae8fc;top=0;left=0;bottom=0;right=0;pointerEvents=1;rounded=0;shadow=0;glass=0;sketch=0;strokeColor=#6c8ebf;strokeWidth=1;movable=1;resizable=1;rotatable=1;deletable=1;editable=1;" parent="SBuyi_CQ05QwC0BAwkS6-87" vertex="1">
          <mxGeometry x="36" width="18" height="18" as="geometry">
            <mxRectangle width="18" height="18" as="alternateBounds" />
          </mxGeometry>
        </mxCell>
        <mxCell id="SBuyi_CQ05QwC0BAwkS6-91" value="" style="shape=partialRectangle;collapsible=0;dropTarget=0;pointerEvents=0;fillColor=#dae8fc;top=0;left=0;bottom=0;right=0;points=[[0,0.5],[1,0.5]];portConstraint=eastwest;rounded=0;shadow=0;glass=0;sketch=0;strokeColor=#6c8ebf;strokeWidth=1;movable=1;resizable=1;rotatable=1;deletable=1;editable=1;connectable=1;" parent="SBuyi_CQ05QwC0BAwkS6-86" vertex="1">
          <mxGeometry y="18" width="54" height="18" as="geometry" />
        </mxCell>
        <mxCell id="SBuyi_CQ05QwC0BAwkS6-92" value="" style="shape=partialRectangle;html=1;whiteSpace=wrap;connectable=1;overflow=hidden;fillColor=#dae8fc;top=0;left=0;bottom=0;right=0;pointerEvents=1;rounded=0;shadow=0;glass=0;sketch=0;strokeColor=#6c8ebf;strokeWidth=1;movable=1;resizable=1;rotatable=1;deletable=1;editable=1;" parent="SBuyi_CQ05QwC0BAwkS6-91" vertex="1">
          <mxGeometry width="18" height="18" as="geometry">
            <mxRectangle width="18" height="18" as="alternateBounds" />
          </mxGeometry>
        </mxCell>
        <mxCell id="SBuyi_CQ05QwC0BAwkS6-93" value="" style="shape=partialRectangle;html=1;whiteSpace=wrap;connectable=1;overflow=hidden;fillColor=#dae8fc;top=0;left=0;bottom=0;right=0;pointerEvents=1;rounded=0;shadow=0;glass=0;sketch=0;strokeColor=#6c8ebf;strokeWidth=1;movable=1;resizable=1;rotatable=1;deletable=1;editable=1;" parent="SBuyi_CQ05QwC0BAwkS6-91" vertex="1">
          <mxGeometry x="18" width="18" height="18" as="geometry">
            <mxRectangle width="18" height="18" as="alternateBounds" />
          </mxGeometry>
        </mxCell>
        <mxCell id="SBuyi_CQ05QwC0BAwkS6-94" value="" style="shape=partialRectangle;html=1;whiteSpace=wrap;connectable=1;overflow=hidden;fillColor=#dae8fc;top=0;left=0;bottom=0;right=0;pointerEvents=1;rounded=0;shadow=0;glass=0;sketch=0;strokeColor=#6c8ebf;strokeWidth=1;movable=1;resizable=1;rotatable=1;deletable=1;editable=1;" parent="SBuyi_CQ05QwC0BAwkS6-91" vertex="1">
          <mxGeometry x="36" width="18" height="18" as="geometry">
            <mxRectangle width="18" height="18" as="alternateBounds" />
          </mxGeometry>
        </mxCell>
        <mxCell id="SBuyi_CQ05QwC0BAwkS6-95" value="" style="shape=partialRectangle;collapsible=0;dropTarget=0;pointerEvents=0;fillColor=#dae8fc;top=0;left=0;bottom=0;right=0;points=[[0,0.5],[1,0.5]];portConstraint=eastwest;rounded=0;shadow=0;glass=0;sketch=0;strokeColor=#6c8ebf;strokeWidth=1;movable=1;resizable=1;rotatable=1;deletable=1;editable=1;connectable=1;" parent="SBuyi_CQ05QwC0BAwkS6-86" vertex="1">
          <mxGeometry y="36" width="54" height="18" as="geometry" />
        </mxCell>
        <mxCell id="SBuyi_CQ05QwC0BAwkS6-96" value="" style="shape=partialRectangle;html=1;whiteSpace=wrap;connectable=1;overflow=hidden;fillColor=#dae8fc;top=0;left=0;bottom=0;right=0;pointerEvents=1;rounded=0;shadow=0;glass=0;sketch=0;strokeColor=#6c8ebf;strokeWidth=1;movable=1;resizable=1;rotatable=1;deletable=1;editable=1;" parent="SBuyi_CQ05QwC0BAwkS6-95" vertex="1">
          <mxGeometry width="18" height="18" as="geometry">
            <mxRectangle width="18" height="18" as="alternateBounds" />
          </mxGeometry>
        </mxCell>
        <mxCell id="SBuyi_CQ05QwC0BAwkS6-97" value="" style="shape=partialRectangle;html=1;whiteSpace=wrap;connectable=1;overflow=hidden;fillColor=#dae8fc;top=0;left=0;bottom=0;right=0;pointerEvents=1;rounded=0;shadow=0;glass=0;sketch=0;strokeColor=#6c8ebf;strokeWidth=1;movable=1;resizable=1;rotatable=1;deletable=1;editable=1;" parent="SBuyi_CQ05QwC0BAwkS6-95" vertex="1">
          <mxGeometry x="18" width="18" height="18" as="geometry">
            <mxRectangle width="18" height="18" as="alternateBounds" />
          </mxGeometry>
        </mxCell>
        <mxCell id="SBuyi_CQ05QwC0BAwkS6-98" value="" style="shape=partialRectangle;html=1;whiteSpace=wrap;connectable=1;overflow=hidden;fillColor=#dae8fc;top=0;left=0;bottom=0;right=0;pointerEvents=1;rounded=0;shadow=0;glass=0;sketch=0;strokeColor=#6c8ebf;strokeWidth=1;movable=1;resizable=1;rotatable=1;deletable=1;editable=1;" parent="SBuyi_CQ05QwC0BAwkS6-95" vertex="1">
          <mxGeometry x="36" width="18" height="18" as="geometry">
            <mxRectangle width="18" height="18" as="alternateBounds" />
          </mxGeometry>
        </mxCell>
        <mxCell id="SBuyi_CQ05QwC0BAwkS6-138" value="" style="shape=table;startSize=0;container=1;collapsible=0;childLayout=tableLayout;rounded=0;shadow=0;glass=0;sketch=0;strokeColor=#6c8ebf;strokeWidth=1;fillColor=#dae8fc;movable=1;resizable=1;rotatable=1;deletable=1;editable=1;connectable=1;" parent="1" vertex="1">
          <mxGeometry x="173" y="1071" width="54" height="54" as="geometry" />
        </mxCell>
        <mxCell id="SBuyi_CQ05QwC0BAwkS6-139" value="" style="shape=partialRectangle;collapsible=0;dropTarget=0;pointerEvents=0;fillColor=#dae8fc;top=0;left=0;bottom=0;right=0;points=[[0,0.5],[1,0.5]];portConstraint=eastwest;rounded=0;shadow=0;glass=0;sketch=0;strokeColor=#6c8ebf;strokeWidth=1;movable=1;resizable=1;rotatable=1;deletable=1;editable=1;connectable=1;" parent="SBuyi_CQ05QwC0BAwkS6-138" vertex="1">
          <mxGeometry width="54" height="18" as="geometry" />
        </mxCell>
        <mxCell id="SBuyi_CQ05QwC0BAwkS6-140" value="" style="shape=partialRectangle;html=1;whiteSpace=wrap;connectable=1;overflow=hidden;fillColor=#dae8fc;top=0;left=0;bottom=0;right=0;pointerEvents=1;rounded=0;shadow=0;glass=0;sketch=0;strokeColor=#6c8ebf;strokeWidth=1;movable=1;resizable=1;rotatable=1;deletable=1;editable=1;" parent="SBuyi_CQ05QwC0BAwkS6-139" vertex="1">
          <mxGeometry width="18" height="18" as="geometry">
            <mxRectangle width="18" height="18" as="alternateBounds" />
          </mxGeometry>
        </mxCell>
        <mxCell id="SBuyi_CQ05QwC0BAwkS6-141" value="" style="shape=partialRectangle;html=1;whiteSpace=wrap;connectable=1;overflow=hidden;fillColor=#dae8fc;top=0;left=0;bottom=0;right=0;pointerEvents=1;rounded=0;shadow=0;glass=0;sketch=0;strokeColor=#6c8ebf;strokeWidth=1;movable=1;resizable=1;rotatable=1;deletable=1;editable=1;" parent="SBuyi_CQ05QwC0BAwkS6-139" vertex="1">
          <mxGeometry x="18" width="18" height="18" as="geometry">
            <mxRectangle width="18" height="18" as="alternateBounds" />
          </mxGeometry>
        </mxCell>
        <mxCell id="SBuyi_CQ05QwC0BAwkS6-142" value="" style="shape=partialRectangle;html=1;whiteSpace=wrap;connectable=1;overflow=hidden;fillColor=#dae8fc;top=0;left=0;bottom=0;right=0;pointerEvents=1;rounded=0;shadow=0;glass=0;sketch=0;strokeColor=#6c8ebf;strokeWidth=1;movable=1;resizable=1;rotatable=1;deletable=1;editable=1;" parent="SBuyi_CQ05QwC0BAwkS6-139" vertex="1">
          <mxGeometry x="36" width="18" height="18" as="geometry">
            <mxRectangle width="18" height="18" as="alternateBounds" />
          </mxGeometry>
        </mxCell>
        <mxCell id="SBuyi_CQ05QwC0BAwkS6-143" value="" style="shape=partialRectangle;collapsible=0;dropTarget=0;pointerEvents=0;fillColor=#dae8fc;top=0;left=0;bottom=0;right=0;points=[[0,0.5],[1,0.5]];portConstraint=eastwest;rounded=0;shadow=0;glass=0;sketch=0;strokeColor=#6c8ebf;strokeWidth=1;movable=1;resizable=1;rotatable=1;deletable=1;editable=1;connectable=1;" parent="SBuyi_CQ05QwC0BAwkS6-138" vertex="1">
          <mxGeometry y="18" width="54" height="18" as="geometry" />
        </mxCell>
        <mxCell id="SBuyi_CQ05QwC0BAwkS6-144" value="" style="shape=partialRectangle;html=1;whiteSpace=wrap;connectable=1;overflow=hidden;fillColor=#dae8fc;top=0;left=0;bottom=0;right=0;pointerEvents=1;rounded=0;shadow=0;glass=0;sketch=0;strokeColor=#6c8ebf;strokeWidth=1;movable=1;resizable=1;rotatable=1;deletable=1;editable=1;" parent="SBuyi_CQ05QwC0BAwkS6-143" vertex="1">
          <mxGeometry width="18" height="18" as="geometry">
            <mxRectangle width="18" height="18" as="alternateBounds" />
          </mxGeometry>
        </mxCell>
        <mxCell id="SBuyi_CQ05QwC0BAwkS6-145" value="" style="shape=partialRectangle;html=1;whiteSpace=wrap;connectable=1;overflow=hidden;fillColor=#dae8fc;top=0;left=0;bottom=0;right=0;pointerEvents=1;rounded=0;shadow=0;glass=0;sketch=0;strokeColor=#6c8ebf;strokeWidth=1;movable=1;resizable=1;rotatable=1;deletable=1;editable=1;" parent="SBuyi_CQ05QwC0BAwkS6-143" vertex="1">
          <mxGeometry x="18" width="18" height="18" as="geometry">
            <mxRectangle width="18" height="18" as="alternateBounds" />
          </mxGeometry>
        </mxCell>
        <mxCell id="SBuyi_CQ05QwC0BAwkS6-146" value="" style="shape=partialRectangle;html=1;whiteSpace=wrap;connectable=1;overflow=hidden;fillColor=#dae8fc;top=0;left=0;bottom=0;right=0;pointerEvents=1;rounded=0;shadow=0;glass=0;sketch=0;strokeColor=#6c8ebf;strokeWidth=1;movable=1;resizable=1;rotatable=1;deletable=1;editable=1;" parent="SBuyi_CQ05QwC0BAwkS6-143" vertex="1">
          <mxGeometry x="36" width="18" height="18" as="geometry">
            <mxRectangle width="18" height="18" as="alternateBounds" />
          </mxGeometry>
        </mxCell>
        <mxCell id="SBuyi_CQ05QwC0BAwkS6-147" value="" style="shape=partialRectangle;collapsible=0;dropTarget=0;pointerEvents=0;fillColor=#dae8fc;top=0;left=0;bottom=0;right=0;points=[[0,0.5],[1,0.5]];portConstraint=eastwest;rounded=0;shadow=0;glass=0;sketch=0;strokeColor=#6c8ebf;strokeWidth=1;movable=1;resizable=1;rotatable=1;deletable=1;editable=1;connectable=1;" parent="SBuyi_CQ05QwC0BAwkS6-138" vertex="1">
          <mxGeometry y="36" width="54" height="18" as="geometry" />
        </mxCell>
        <mxCell id="SBuyi_CQ05QwC0BAwkS6-148" value="" style="shape=partialRectangle;html=1;whiteSpace=wrap;connectable=1;overflow=hidden;fillColor=#dae8fc;top=0;left=0;bottom=0;right=0;pointerEvents=1;rounded=0;shadow=0;glass=0;sketch=0;strokeColor=#6c8ebf;strokeWidth=1;movable=1;resizable=1;rotatable=1;deletable=1;editable=1;" parent="SBuyi_CQ05QwC0BAwkS6-147" vertex="1">
          <mxGeometry width="18" height="18" as="geometry">
            <mxRectangle width="18" height="18" as="alternateBounds" />
          </mxGeometry>
        </mxCell>
        <mxCell id="SBuyi_CQ05QwC0BAwkS6-149" value="" style="shape=partialRectangle;html=1;whiteSpace=wrap;connectable=1;overflow=hidden;fillColor=#dae8fc;top=0;left=0;bottom=0;right=0;pointerEvents=1;rounded=0;shadow=0;glass=0;sketch=0;strokeColor=#6c8ebf;strokeWidth=1;movable=1;resizable=1;rotatable=1;deletable=1;editable=1;" parent="SBuyi_CQ05QwC0BAwkS6-147" vertex="1">
          <mxGeometry x="18" width="18" height="18" as="geometry">
            <mxRectangle width="18" height="18" as="alternateBounds" />
          </mxGeometry>
        </mxCell>
        <mxCell id="SBuyi_CQ05QwC0BAwkS6-150" value="" style="shape=partialRectangle;html=1;whiteSpace=wrap;connectable=1;overflow=hidden;fillColor=#dae8fc;top=0;left=0;bottom=0;right=0;pointerEvents=1;rounded=0;shadow=0;glass=0;sketch=0;strokeColor=#6c8ebf;strokeWidth=1;movable=1;resizable=1;rotatable=1;deletable=1;editable=1;" parent="SBuyi_CQ05QwC0BAwkS6-147" vertex="1">
          <mxGeometry x="36" width="18" height="18" as="geometry">
            <mxRectangle width="18" height="18" as="alternateBounds" />
          </mxGeometry>
        </mxCell>
        <mxCell id="SBuyi_CQ05QwC0BAwkS6-151" value="" style="shape=table;startSize=0;container=1;collapsible=0;childLayout=tableLayout;rounded=0;shadow=0;glass=0;sketch=0;strokeColor=#6c8ebf;strokeWidth=1;fillColor=#dae8fc;movable=1;resizable=1;rotatable=1;deletable=1;editable=1;connectable=1;" parent="1" vertex="1">
          <mxGeometry x="162" y="1083" width="54" height="54" as="geometry" />
        </mxCell>
        <mxCell id="SBuyi_CQ05QwC0BAwkS6-152" value="" style="shape=partialRectangle;collapsible=0;dropTarget=0;pointerEvents=0;fillColor=#dae8fc;top=0;left=0;bottom=0;right=0;points=[[0,0.5],[1,0.5]];portConstraint=eastwest;rounded=0;shadow=0;glass=0;sketch=0;strokeColor=#6c8ebf;strokeWidth=1;movable=1;resizable=1;rotatable=1;deletable=1;editable=1;connectable=1;" parent="SBuyi_CQ05QwC0BAwkS6-151" vertex="1">
          <mxGeometry width="54" height="18" as="geometry" />
        </mxCell>
        <mxCell id="SBuyi_CQ05QwC0BAwkS6-153" value="" style="shape=partialRectangle;html=1;whiteSpace=wrap;connectable=1;overflow=hidden;fillColor=#dae8fc;top=0;left=0;bottom=0;right=0;pointerEvents=1;rounded=0;shadow=0;glass=0;sketch=0;strokeColor=#6c8ebf;strokeWidth=1;movable=1;resizable=1;rotatable=1;deletable=1;editable=1;" parent="SBuyi_CQ05QwC0BAwkS6-152" vertex="1">
          <mxGeometry width="18" height="18" as="geometry">
            <mxRectangle width="18" height="18" as="alternateBounds" />
          </mxGeometry>
        </mxCell>
        <mxCell id="SBuyi_CQ05QwC0BAwkS6-154" value="" style="shape=partialRectangle;html=1;whiteSpace=wrap;connectable=1;overflow=hidden;fillColor=#dae8fc;top=0;left=0;bottom=0;right=0;pointerEvents=1;rounded=0;shadow=0;glass=0;sketch=0;strokeColor=#6c8ebf;strokeWidth=1;movable=1;resizable=1;rotatable=1;deletable=1;editable=1;" parent="SBuyi_CQ05QwC0BAwkS6-152" vertex="1">
          <mxGeometry x="18" width="18" height="18" as="geometry">
            <mxRectangle width="18" height="18" as="alternateBounds" />
          </mxGeometry>
        </mxCell>
        <mxCell id="SBuyi_CQ05QwC0BAwkS6-155" value="" style="shape=partialRectangle;html=1;whiteSpace=wrap;connectable=1;overflow=hidden;fillColor=#dae8fc;top=0;left=0;bottom=0;right=0;pointerEvents=1;rounded=0;shadow=0;glass=0;sketch=0;strokeColor=#6c8ebf;strokeWidth=1;movable=1;resizable=1;rotatable=1;deletable=1;editable=1;" parent="SBuyi_CQ05QwC0BAwkS6-152" vertex="1">
          <mxGeometry x="36" width="18" height="18" as="geometry">
            <mxRectangle width="18" height="18" as="alternateBounds" />
          </mxGeometry>
        </mxCell>
        <mxCell id="SBuyi_CQ05QwC0BAwkS6-156" value="" style="shape=partialRectangle;collapsible=0;dropTarget=0;pointerEvents=0;fillColor=#dae8fc;top=0;left=0;bottom=0;right=0;points=[[0,0.5],[1,0.5]];portConstraint=eastwest;rounded=0;shadow=0;glass=0;sketch=0;strokeColor=#6c8ebf;strokeWidth=1;movable=1;resizable=1;rotatable=1;deletable=1;editable=1;connectable=1;" parent="SBuyi_CQ05QwC0BAwkS6-151" vertex="1">
          <mxGeometry y="18" width="54" height="18" as="geometry" />
        </mxCell>
        <mxCell id="SBuyi_CQ05QwC0BAwkS6-157" value="" style="shape=partialRectangle;html=1;whiteSpace=wrap;connectable=1;overflow=hidden;fillColor=#dae8fc;top=0;left=0;bottom=0;right=0;pointerEvents=1;rounded=0;shadow=0;glass=0;sketch=0;strokeColor=#6c8ebf;strokeWidth=1;movable=1;resizable=1;rotatable=1;deletable=1;editable=1;" parent="SBuyi_CQ05QwC0BAwkS6-156" vertex="1">
          <mxGeometry width="18" height="18" as="geometry">
            <mxRectangle width="18" height="18" as="alternateBounds" />
          </mxGeometry>
        </mxCell>
        <mxCell id="SBuyi_CQ05QwC0BAwkS6-158" value="" style="shape=partialRectangle;html=1;whiteSpace=wrap;connectable=1;overflow=hidden;fillColor=#dae8fc;top=0;left=0;bottom=0;right=0;pointerEvents=1;rounded=0;shadow=0;glass=0;sketch=0;strokeColor=#6c8ebf;strokeWidth=1;movable=1;resizable=1;rotatable=1;deletable=1;editable=1;" parent="SBuyi_CQ05QwC0BAwkS6-156" vertex="1">
          <mxGeometry x="18" width="18" height="18" as="geometry">
            <mxRectangle width="18" height="18" as="alternateBounds" />
          </mxGeometry>
        </mxCell>
        <mxCell id="SBuyi_CQ05QwC0BAwkS6-159" value="" style="shape=partialRectangle;html=1;whiteSpace=wrap;connectable=1;overflow=hidden;fillColor=#dae8fc;top=0;left=0;bottom=0;right=0;pointerEvents=1;rounded=0;shadow=0;glass=0;sketch=0;strokeColor=#6c8ebf;strokeWidth=1;movable=1;resizable=1;rotatable=1;deletable=1;editable=1;" parent="SBuyi_CQ05QwC0BAwkS6-156" vertex="1">
          <mxGeometry x="36" width="18" height="18" as="geometry">
            <mxRectangle width="18" height="18" as="alternateBounds" />
          </mxGeometry>
        </mxCell>
        <mxCell id="SBuyi_CQ05QwC0BAwkS6-160" value="" style="shape=partialRectangle;collapsible=0;dropTarget=0;pointerEvents=0;fillColor=#dae8fc;top=0;left=0;bottom=0;right=0;points=[[0,0.5],[1,0.5]];portConstraint=eastwest;rounded=0;shadow=0;glass=0;sketch=0;strokeColor=#6c8ebf;strokeWidth=1;movable=1;resizable=1;rotatable=1;deletable=1;editable=1;connectable=1;" parent="SBuyi_CQ05QwC0BAwkS6-151" vertex="1">
          <mxGeometry y="36" width="54" height="18" as="geometry" />
        </mxCell>
        <mxCell id="SBuyi_CQ05QwC0BAwkS6-161" value="" style="shape=partialRectangle;html=1;whiteSpace=wrap;connectable=1;overflow=hidden;fillColor=#dae8fc;top=0;left=0;bottom=0;right=0;pointerEvents=1;rounded=0;shadow=0;glass=0;sketch=0;strokeColor=#6c8ebf;strokeWidth=1;movable=1;resizable=1;rotatable=1;deletable=1;editable=1;" parent="SBuyi_CQ05QwC0BAwkS6-160" vertex="1">
          <mxGeometry width="18" height="18" as="geometry">
            <mxRectangle width="18" height="18" as="alternateBounds" />
          </mxGeometry>
        </mxCell>
        <mxCell id="SBuyi_CQ05QwC0BAwkS6-162" value="" style="shape=partialRectangle;html=1;whiteSpace=wrap;connectable=1;overflow=hidden;fillColor=#dae8fc;top=0;left=0;bottom=0;right=0;pointerEvents=1;rounded=0;shadow=0;glass=0;sketch=0;strokeColor=#6c8ebf;strokeWidth=1;movable=1;resizable=1;rotatable=1;deletable=1;editable=1;" parent="SBuyi_CQ05QwC0BAwkS6-160" vertex="1">
          <mxGeometry x="18" width="18" height="18" as="geometry">
            <mxRectangle width="18" height="18" as="alternateBounds" />
          </mxGeometry>
        </mxCell>
        <mxCell id="SBuyi_CQ05QwC0BAwkS6-163" value="" style="shape=partialRectangle;html=1;whiteSpace=wrap;connectable=1;overflow=hidden;fillColor=#dae8fc;top=0;left=0;bottom=0;right=0;pointerEvents=1;rounded=0;shadow=0;glass=0;sketch=0;strokeColor=#6c8ebf;strokeWidth=1;movable=1;resizable=1;rotatable=1;deletable=1;editable=1;" parent="SBuyi_CQ05QwC0BAwkS6-160" vertex="1">
          <mxGeometry x="36" width="18" height="18" as="geometry">
            <mxRectangle width="18" height="18" as="alternateBounds" />
          </mxGeometry>
        </mxCell>
        <mxCell id="SBuyi_CQ05QwC0BAwkS6-164" value="" style="shape=table;startSize=0;container=1;collapsible=0;childLayout=tableLayout;rounded=0;shadow=0;glass=0;sketch=0;strokeColor=#6c8ebf;strokeWidth=1;fillColor=#dae8fc;movable=1;resizable=1;rotatable=1;deletable=1;editable=1;connectable=1;" parent="1" vertex="1">
          <mxGeometry x="153" y="1095" width="54" height="54" as="geometry" />
        </mxCell>
        <mxCell id="SBuyi_CQ05QwC0BAwkS6-165" value="" style="shape=partialRectangle;collapsible=0;dropTarget=0;pointerEvents=0;fillColor=#dae8fc;top=0;left=0;bottom=0;right=0;points=[[0,0.5],[1,0.5]];portConstraint=eastwest;rounded=0;shadow=0;glass=0;sketch=0;strokeColor=#6c8ebf;strokeWidth=1;movable=1;resizable=1;rotatable=1;deletable=1;editable=1;connectable=1;" parent="SBuyi_CQ05QwC0BAwkS6-164" vertex="1">
          <mxGeometry width="54" height="18" as="geometry" />
        </mxCell>
        <mxCell id="SBuyi_CQ05QwC0BAwkS6-166" value="" style="shape=partialRectangle;html=1;whiteSpace=wrap;connectable=1;overflow=hidden;fillColor=#dae8fc;top=0;left=0;bottom=0;right=0;pointerEvents=1;rounded=0;shadow=0;glass=0;sketch=0;strokeColor=#6c8ebf;strokeWidth=1;movable=1;resizable=1;rotatable=1;deletable=1;editable=1;" parent="SBuyi_CQ05QwC0BAwkS6-165" vertex="1">
          <mxGeometry width="18" height="18" as="geometry">
            <mxRectangle width="18" height="18" as="alternateBounds" />
          </mxGeometry>
        </mxCell>
        <mxCell id="SBuyi_CQ05QwC0BAwkS6-167" value="" style="shape=partialRectangle;html=1;whiteSpace=wrap;connectable=1;overflow=hidden;fillColor=#dae8fc;top=0;left=0;bottom=0;right=0;pointerEvents=1;rounded=0;shadow=0;glass=0;sketch=0;strokeColor=#6c8ebf;strokeWidth=1;movable=1;resizable=1;rotatable=1;deletable=1;editable=1;" parent="SBuyi_CQ05QwC0BAwkS6-165" vertex="1">
          <mxGeometry x="18" width="16" height="18" as="geometry">
            <mxRectangle width="16" height="18" as="alternateBounds" />
          </mxGeometry>
        </mxCell>
        <mxCell id="SBuyi_CQ05QwC0BAwkS6-168" value="" style="shape=partialRectangle;html=1;whiteSpace=wrap;connectable=1;overflow=hidden;fillColor=#dae8fc;top=0;left=0;bottom=0;right=0;pointerEvents=1;rounded=0;shadow=0;glass=0;sketch=0;strokeColor=#6c8ebf;strokeWidth=1;movable=1;resizable=1;rotatable=1;deletable=1;editable=1;" parent="SBuyi_CQ05QwC0BAwkS6-165" vertex="1">
          <mxGeometry x="34" width="20" height="18" as="geometry">
            <mxRectangle width="20" height="18" as="alternateBounds" />
          </mxGeometry>
        </mxCell>
        <mxCell id="SBuyi_CQ05QwC0BAwkS6-169" value="" style="shape=partialRectangle;collapsible=0;dropTarget=0;pointerEvents=0;fillColor=#dae8fc;top=0;left=0;bottom=0;right=0;points=[[0,0.5],[1,0.5]];portConstraint=eastwest;rounded=0;shadow=0;glass=0;sketch=0;strokeColor=#6c8ebf;strokeWidth=1;movable=1;resizable=1;rotatable=1;deletable=1;editable=1;connectable=1;" parent="SBuyi_CQ05QwC0BAwkS6-164" vertex="1">
          <mxGeometry y="18" width="54" height="18" as="geometry" />
        </mxCell>
        <mxCell id="SBuyi_CQ05QwC0BAwkS6-170" value="" style="shape=partialRectangle;html=1;whiteSpace=wrap;connectable=1;overflow=hidden;fillColor=#dae8fc;top=0;left=0;bottom=0;right=0;pointerEvents=1;rounded=0;shadow=0;glass=0;sketch=0;strokeColor=#6c8ebf;strokeWidth=1;movable=1;resizable=1;rotatable=1;deletable=1;editable=1;" parent="SBuyi_CQ05QwC0BAwkS6-169" vertex="1">
          <mxGeometry width="18" height="18" as="geometry">
            <mxRectangle width="18" height="18" as="alternateBounds" />
          </mxGeometry>
        </mxCell>
        <mxCell id="SBuyi_CQ05QwC0BAwkS6-171" value="" style="shape=partialRectangle;html=1;whiteSpace=wrap;connectable=1;overflow=hidden;fillColor=#dae8fc;top=0;left=0;bottom=0;right=0;pointerEvents=1;rounded=0;shadow=0;glass=0;sketch=0;strokeColor=#6c8ebf;strokeWidth=1;movable=1;resizable=1;rotatable=1;deletable=1;editable=1;" parent="SBuyi_CQ05QwC0BAwkS6-169" vertex="1">
          <mxGeometry x="18" width="16" height="18" as="geometry">
            <mxRectangle width="16" height="18" as="alternateBounds" />
          </mxGeometry>
        </mxCell>
        <mxCell id="SBuyi_CQ05QwC0BAwkS6-172" value="" style="shape=partialRectangle;html=1;whiteSpace=wrap;connectable=1;overflow=hidden;fillColor=#dae8fc;top=0;left=0;bottom=0;right=0;pointerEvents=1;rounded=0;shadow=0;glass=0;sketch=0;strokeColor=#6c8ebf;strokeWidth=1;movable=1;resizable=1;rotatable=1;deletable=1;editable=1;" parent="SBuyi_CQ05QwC0BAwkS6-169" vertex="1">
          <mxGeometry x="34" width="20" height="18" as="geometry">
            <mxRectangle width="20" height="18" as="alternateBounds" />
          </mxGeometry>
        </mxCell>
        <mxCell id="SBuyi_CQ05QwC0BAwkS6-173" value="" style="shape=partialRectangle;collapsible=0;dropTarget=0;pointerEvents=0;fillColor=#dae8fc;top=0;left=0;bottom=0;right=0;points=[[0,0.5],[1,0.5]];portConstraint=eastwest;rounded=0;shadow=0;glass=0;sketch=0;strokeColor=#6c8ebf;strokeWidth=1;movable=1;resizable=1;rotatable=1;deletable=1;editable=1;connectable=1;" parent="SBuyi_CQ05QwC0BAwkS6-164" vertex="1">
          <mxGeometry y="36" width="54" height="18" as="geometry" />
        </mxCell>
        <mxCell id="SBuyi_CQ05QwC0BAwkS6-174" value="" style="shape=partialRectangle;html=1;whiteSpace=wrap;connectable=1;overflow=hidden;fillColor=#dae8fc;top=0;left=0;bottom=0;right=0;pointerEvents=1;rounded=0;shadow=0;glass=0;sketch=0;strokeColor=#6c8ebf;strokeWidth=1;movable=1;resizable=1;rotatable=1;deletable=1;editable=1;" parent="SBuyi_CQ05QwC0BAwkS6-173" vertex="1">
          <mxGeometry width="18" height="18" as="geometry">
            <mxRectangle width="18" height="18" as="alternateBounds" />
          </mxGeometry>
        </mxCell>
        <mxCell id="SBuyi_CQ05QwC0BAwkS6-175" value="" style="shape=partialRectangle;html=1;whiteSpace=wrap;connectable=1;overflow=hidden;fillColor=#dae8fc;top=0;left=0;bottom=0;right=0;pointerEvents=1;rounded=0;shadow=0;glass=0;sketch=0;strokeColor=#6c8ebf;strokeWidth=1;movable=1;resizable=1;rotatable=1;deletable=1;editable=1;" parent="SBuyi_CQ05QwC0BAwkS6-173" vertex="1">
          <mxGeometry x="18" width="16" height="18" as="geometry">
            <mxRectangle width="16" height="18" as="alternateBounds" />
          </mxGeometry>
        </mxCell>
        <mxCell id="SBuyi_CQ05QwC0BAwkS6-176" value="" style="shape=partialRectangle;html=1;whiteSpace=wrap;connectable=1;overflow=hidden;fillColor=#dae8fc;top=0;left=0;bottom=0;right=0;pointerEvents=1;rounded=0;shadow=0;glass=0;sketch=0;strokeColor=#6c8ebf;strokeWidth=1;movable=1;resizable=1;rotatable=1;deletable=1;editable=1;" parent="SBuyi_CQ05QwC0BAwkS6-173" vertex="1">
          <mxGeometry x="34" width="20" height="18" as="geometry">
            <mxRectangle width="20" height="18" as="alternateBounds" />
          </mxGeometry>
        </mxCell>
        <mxCell id="SBuyi_CQ05QwC0BAwkS6-183" style="edgeStyle=orthogonalEdgeStyle;curved=1;rounded=0;orthogonalLoop=1;jettySize=auto;html=1;exitX=1;exitY=0.5;exitDx=0;exitDy=0;entryX=0.25;entryY=0;entryDx=0;entryDy=0;strokeColor=#B5739D;" parent="1" source="SBuyi_CQ05QwC0BAwkS6-4" target="SBuyi_CQ05QwC0BAwkS6-140" edge="1">
          <mxGeometry relative="1" as="geometry">
            <Array as="points">
              <mxPoint x="120" y="944" />
              <mxPoint x="120" y="1071" />
            </Array>
          </mxGeometry>
        </mxCell>
        <mxCell id="SBuyi_CQ05QwC0BAwkS6-199" value="" style="shape=table;startSize=0;container=1;collapsible=0;childLayout=tableLayout;rounded=0;shadow=0;glass=0;sketch=0;strokeColor=#d79b00;strokeWidth=1;fillColor=#FFE599;movable=1;resizable=1;rotatable=1;deletable=1;editable=1;connectable=1;" parent="1" vertex="1">
          <mxGeometry x="445" y="986" width="54" height="54" as="geometry" />
        </mxCell>
        <mxCell id="SBuyi_CQ05QwC0BAwkS6-200" value="" style="shape=partialRectangle;collapsible=0;dropTarget=0;pointerEvents=0;fillColor=#FFE599;top=0;left=0;bottom=0;right=0;points=[[0,0.5],[1,0.5]];portConstraint=eastwest;rounded=0;shadow=0;glass=0;sketch=0;strokeColor=#d79b00;strokeWidth=1;movable=1;resizable=1;rotatable=1;deletable=1;editable=1;connectable=1;" parent="SBuyi_CQ05QwC0BAwkS6-199" vertex="1">
          <mxGeometry width="54" height="18" as="geometry" />
        </mxCell>
        <mxCell id="SBuyi_CQ05QwC0BAwkS6-201" value="" style="shape=partialRectangle;html=1;whiteSpace=wrap;connectable=1;overflow=hidden;fillColor=#FFE599;top=0;left=0;bottom=0;right=0;pointerEvents=1;rounded=0;shadow=0;glass=0;sketch=0;strokeColor=#d79b00;strokeWidth=1;movable=1;resizable=1;rotatable=1;deletable=1;editable=1;" parent="SBuyi_CQ05QwC0BAwkS6-200" vertex="1">
          <mxGeometry width="18" height="18" as="geometry">
            <mxRectangle width="18" height="18" as="alternateBounds" />
          </mxGeometry>
        </mxCell>
        <mxCell id="SBuyi_CQ05QwC0BAwkS6-202" value="" style="shape=partialRectangle;html=1;whiteSpace=wrap;connectable=1;overflow=hidden;fillColor=#FFE599;top=0;left=0;bottom=0;right=0;pointerEvents=1;rounded=0;shadow=0;glass=0;sketch=0;strokeColor=#d79b00;strokeWidth=1;movable=1;resizable=1;rotatable=1;deletable=1;editable=1;" parent="SBuyi_CQ05QwC0BAwkS6-200" vertex="1">
          <mxGeometry x="18" width="18" height="18" as="geometry">
            <mxRectangle width="18" height="18" as="alternateBounds" />
          </mxGeometry>
        </mxCell>
        <mxCell id="SBuyi_CQ05QwC0BAwkS6-203" value="" style="shape=partialRectangle;html=1;whiteSpace=wrap;connectable=1;overflow=hidden;fillColor=#FFE599;top=0;left=0;bottom=0;right=0;pointerEvents=1;rounded=0;shadow=0;glass=0;sketch=0;strokeColor=#d79b00;strokeWidth=1;movable=1;resizable=1;rotatable=1;deletable=1;editable=1;" parent="SBuyi_CQ05QwC0BAwkS6-200" vertex="1">
          <mxGeometry x="36" width="18" height="18" as="geometry">
            <mxRectangle width="18" height="18" as="alternateBounds" />
          </mxGeometry>
        </mxCell>
        <mxCell id="SBuyi_CQ05QwC0BAwkS6-204" value="" style="shape=partialRectangle;collapsible=0;dropTarget=0;pointerEvents=0;fillColor=#FFE599;top=0;left=0;bottom=0;right=0;points=[[0,0.5],[1,0.5]];portConstraint=eastwest;rounded=0;shadow=0;glass=0;sketch=0;strokeColor=#d79b00;strokeWidth=1;movable=1;resizable=1;rotatable=1;deletable=1;editable=1;connectable=1;" parent="SBuyi_CQ05QwC0BAwkS6-199" vertex="1">
          <mxGeometry y="18" width="54" height="18" as="geometry" />
        </mxCell>
        <mxCell id="SBuyi_CQ05QwC0BAwkS6-205" value="" style="shape=partialRectangle;html=1;whiteSpace=wrap;connectable=1;overflow=hidden;fillColor=#FFE599;top=0;left=0;bottom=0;right=0;pointerEvents=1;rounded=0;shadow=0;glass=0;sketch=0;strokeColor=#d79b00;strokeWidth=1;movable=1;resizable=1;rotatable=1;deletable=1;editable=1;" parent="SBuyi_CQ05QwC0BAwkS6-204" vertex="1">
          <mxGeometry width="18" height="18" as="geometry">
            <mxRectangle width="18" height="18" as="alternateBounds" />
          </mxGeometry>
        </mxCell>
        <mxCell id="SBuyi_CQ05QwC0BAwkS6-206" value="" style="shape=partialRectangle;html=1;whiteSpace=wrap;connectable=1;overflow=hidden;fillColor=#FFE599;top=0;left=0;bottom=0;right=0;pointerEvents=1;rounded=0;shadow=0;glass=0;sketch=0;strokeColor=#d79b00;strokeWidth=1;movable=1;resizable=1;rotatable=1;deletable=1;editable=1;" parent="SBuyi_CQ05QwC0BAwkS6-204" vertex="1">
          <mxGeometry x="18" width="18" height="18" as="geometry">
            <mxRectangle width="18" height="18" as="alternateBounds" />
          </mxGeometry>
        </mxCell>
        <mxCell id="SBuyi_CQ05QwC0BAwkS6-207" value="" style="shape=partialRectangle;html=1;whiteSpace=wrap;connectable=1;overflow=hidden;fillColor=#FFE599;top=0;left=0;bottom=0;right=0;pointerEvents=1;rounded=0;shadow=0;glass=0;sketch=0;strokeColor=#d79b00;strokeWidth=1;movable=1;resizable=1;rotatable=1;deletable=1;editable=1;" parent="SBuyi_CQ05QwC0BAwkS6-204" vertex="1">
          <mxGeometry x="36" width="18" height="18" as="geometry">
            <mxRectangle width="18" height="18" as="alternateBounds" />
          </mxGeometry>
        </mxCell>
        <mxCell id="SBuyi_CQ05QwC0BAwkS6-208" value="" style="shape=partialRectangle;collapsible=0;dropTarget=0;pointerEvents=0;fillColor=#FFE599;top=0;left=0;bottom=0;right=0;points=[[0,0.5],[1,0.5]];portConstraint=eastwest;rounded=0;shadow=0;glass=0;sketch=0;strokeColor=#d79b00;strokeWidth=1;movable=1;resizable=1;rotatable=1;deletable=1;editable=1;connectable=1;" parent="SBuyi_CQ05QwC0BAwkS6-199" vertex="1">
          <mxGeometry y="36" width="54" height="18" as="geometry" />
        </mxCell>
        <mxCell id="SBuyi_CQ05QwC0BAwkS6-209" value="" style="shape=partialRectangle;html=1;whiteSpace=wrap;connectable=1;overflow=hidden;fillColor=#FFE599;top=0;left=0;bottom=0;right=0;pointerEvents=1;rounded=0;shadow=0;glass=0;sketch=0;strokeColor=#d79b00;strokeWidth=1;movable=1;resizable=1;rotatable=1;deletable=1;editable=1;" parent="SBuyi_CQ05QwC0BAwkS6-208" vertex="1">
          <mxGeometry width="18" height="18" as="geometry">
            <mxRectangle width="18" height="18" as="alternateBounds" />
          </mxGeometry>
        </mxCell>
        <mxCell id="SBuyi_CQ05QwC0BAwkS6-210" value="" style="shape=partialRectangle;html=1;whiteSpace=wrap;connectable=1;overflow=hidden;fillColor=#FFE599;top=0;left=0;bottom=0;right=0;pointerEvents=1;rounded=0;shadow=0;glass=0;sketch=0;strokeColor=#d79b00;strokeWidth=1;movable=1;resizable=1;rotatable=1;deletable=1;editable=1;" parent="SBuyi_CQ05QwC0BAwkS6-208" vertex="1">
          <mxGeometry x="18" width="18" height="18" as="geometry">
            <mxRectangle width="18" height="18" as="alternateBounds" />
          </mxGeometry>
        </mxCell>
        <mxCell id="SBuyi_CQ05QwC0BAwkS6-211" value="" style="shape=partialRectangle;html=1;whiteSpace=wrap;connectable=1;overflow=hidden;fillColor=#FFE599;top=0;left=0;bottom=0;right=0;pointerEvents=1;rounded=0;shadow=0;glass=0;sketch=0;strokeColor=#d79b00;strokeWidth=1;movable=1;resizable=1;rotatable=1;deletable=1;editable=1;" parent="SBuyi_CQ05QwC0BAwkS6-208" vertex="1">
          <mxGeometry x="36" width="18" height="18" as="geometry">
            <mxRectangle width="18" height="18" as="alternateBounds" />
          </mxGeometry>
        </mxCell>
        <mxCell id="SBuyi_CQ05QwC0BAwkS6-238" value="" style="shape=table;startSize=0;container=1;collapsible=0;childLayout=tableLayout;rounded=0;shadow=0;glass=0;sketch=0;strokeColor=#BD7000;strokeWidth=1;fillColor=#FFE599;movable=1;resizable=1;rotatable=1;deletable=1;editable=1;connectable=1;fontColor=#000000;" parent="1" vertex="1">
          <mxGeometry x="466" y="890" width="54" height="54" as="geometry" />
        </mxCell>
        <mxCell id="SBuyi_CQ05QwC0BAwkS6-239" value="" style="shape=partialRectangle;collapsible=0;dropTarget=0;pointerEvents=0;fillColor=#FFE599;top=0;left=0;bottom=0;right=0;points=[[0,0.5],[1,0.5]];portConstraint=eastwest;rounded=0;shadow=0;glass=0;sketch=0;strokeColor=#BD7000;strokeWidth=1;movable=1;resizable=1;rotatable=1;deletable=1;editable=1;connectable=1;fontColor=#000000;" parent="SBuyi_CQ05QwC0BAwkS6-238" vertex="1">
          <mxGeometry width="54" height="18" as="geometry" />
        </mxCell>
        <mxCell id="SBuyi_CQ05QwC0BAwkS6-240" value="" style="shape=partialRectangle;html=1;whiteSpace=wrap;connectable=1;overflow=hidden;fillColor=#FFE599;top=0;left=0;bottom=0;right=0;pointerEvents=1;rounded=0;shadow=0;glass=0;sketch=0;strokeColor=#BD7000;strokeWidth=1;movable=1;resizable=1;rotatable=1;deletable=1;editable=1;fontColor=#000000;" parent="SBuyi_CQ05QwC0BAwkS6-239" vertex="1">
          <mxGeometry width="18" height="18" as="geometry">
            <mxRectangle width="18" height="18" as="alternateBounds" />
          </mxGeometry>
        </mxCell>
        <mxCell id="SBuyi_CQ05QwC0BAwkS6-241" value="" style="shape=partialRectangle;html=1;whiteSpace=wrap;connectable=1;overflow=hidden;fillColor=#FFE599;top=0;left=0;bottom=0;right=0;pointerEvents=1;rounded=0;shadow=0;glass=0;sketch=0;strokeColor=#BD7000;strokeWidth=1;movable=1;resizable=1;rotatable=1;deletable=1;editable=1;fontColor=#000000;" parent="SBuyi_CQ05QwC0BAwkS6-239" vertex="1">
          <mxGeometry x="18" width="18" height="18" as="geometry">
            <mxRectangle width="18" height="18" as="alternateBounds" />
          </mxGeometry>
        </mxCell>
        <mxCell id="SBuyi_CQ05QwC0BAwkS6-242" value="" style="shape=partialRectangle;html=1;whiteSpace=wrap;connectable=1;overflow=hidden;fillColor=#FFE599;top=0;left=0;bottom=0;right=0;pointerEvents=1;rounded=0;shadow=0;glass=0;sketch=0;strokeColor=#BD7000;strokeWidth=1;movable=1;resizable=1;rotatable=1;deletable=1;editable=1;fontColor=#000000;" parent="SBuyi_CQ05QwC0BAwkS6-239" vertex="1">
          <mxGeometry x="36" width="18" height="18" as="geometry">
            <mxRectangle width="18" height="18" as="alternateBounds" />
          </mxGeometry>
        </mxCell>
        <mxCell id="SBuyi_CQ05QwC0BAwkS6-243" value="" style="shape=partialRectangle;collapsible=0;dropTarget=0;pointerEvents=0;fillColor=#FFE599;top=0;left=0;bottom=0;right=0;points=[[0,0.5],[1,0.5]];portConstraint=eastwest;rounded=0;shadow=0;glass=0;sketch=0;strokeColor=#BD7000;strokeWidth=1;movable=1;resizable=1;rotatable=1;deletable=1;editable=1;connectable=1;fontColor=#000000;" parent="SBuyi_CQ05QwC0BAwkS6-238" vertex="1">
          <mxGeometry y="18" width="54" height="18" as="geometry" />
        </mxCell>
        <mxCell id="SBuyi_CQ05QwC0BAwkS6-244" value="" style="shape=partialRectangle;html=1;whiteSpace=wrap;connectable=1;overflow=hidden;fillColor=#FFE599;top=0;left=0;bottom=0;right=0;pointerEvents=1;rounded=0;shadow=0;glass=0;sketch=0;strokeColor=#BD7000;strokeWidth=1;movable=1;resizable=1;rotatable=1;deletable=1;editable=1;fontColor=#000000;" parent="SBuyi_CQ05QwC0BAwkS6-243" vertex="1">
          <mxGeometry width="18" height="18" as="geometry">
            <mxRectangle width="18" height="18" as="alternateBounds" />
          </mxGeometry>
        </mxCell>
        <mxCell id="SBuyi_CQ05QwC0BAwkS6-245" value="" style="shape=partialRectangle;html=1;whiteSpace=wrap;connectable=1;overflow=hidden;fillColor=#FFE599;top=0;left=0;bottom=0;right=0;pointerEvents=1;rounded=0;shadow=0;glass=0;sketch=0;strokeColor=#BD7000;strokeWidth=1;movable=1;resizable=1;rotatable=1;deletable=1;editable=1;fontColor=#000000;" parent="SBuyi_CQ05QwC0BAwkS6-243" vertex="1">
          <mxGeometry x="18" width="18" height="18" as="geometry">
            <mxRectangle width="18" height="18" as="alternateBounds" />
          </mxGeometry>
        </mxCell>
        <mxCell id="SBuyi_CQ05QwC0BAwkS6-246" value="" style="shape=partialRectangle;html=1;whiteSpace=wrap;connectable=1;overflow=hidden;fillColor=#FFE599;top=0;left=0;bottom=0;right=0;pointerEvents=1;rounded=0;shadow=0;glass=0;sketch=0;strokeColor=#BD7000;strokeWidth=1;movable=1;resizable=1;rotatable=1;deletable=1;editable=1;fontColor=#000000;" parent="SBuyi_CQ05QwC0BAwkS6-243" vertex="1">
          <mxGeometry x="36" width="18" height="18" as="geometry">
            <mxRectangle width="18" height="18" as="alternateBounds" />
          </mxGeometry>
        </mxCell>
        <mxCell id="SBuyi_CQ05QwC0BAwkS6-247" value="" style="shape=partialRectangle;collapsible=0;dropTarget=0;pointerEvents=0;fillColor=#FFE599;top=0;left=0;bottom=0;right=0;points=[[0,0.5],[1,0.5]];portConstraint=eastwest;rounded=0;shadow=0;glass=0;sketch=0;strokeColor=#BD7000;strokeWidth=1;movable=1;resizable=1;rotatable=1;deletable=1;editable=1;connectable=1;fontColor=#000000;" parent="SBuyi_CQ05QwC0BAwkS6-238" vertex="1">
          <mxGeometry y="36" width="54" height="18" as="geometry" />
        </mxCell>
        <mxCell id="SBuyi_CQ05QwC0BAwkS6-248" value="" style="shape=partialRectangle;html=1;whiteSpace=wrap;connectable=1;overflow=hidden;fillColor=#FFE599;top=0;left=0;bottom=0;right=0;pointerEvents=1;rounded=0;shadow=0;glass=0;sketch=0;strokeColor=#BD7000;strokeWidth=1;movable=1;resizable=1;rotatable=1;deletable=1;editable=1;fontColor=#000000;" parent="SBuyi_CQ05QwC0BAwkS6-247" vertex="1">
          <mxGeometry width="18" height="18" as="geometry">
            <mxRectangle width="18" height="18" as="alternateBounds" />
          </mxGeometry>
        </mxCell>
        <mxCell id="SBuyi_CQ05QwC0BAwkS6-249" value="" style="shape=partialRectangle;html=1;whiteSpace=wrap;connectable=1;overflow=hidden;fillColor=#FFE599;top=0;left=0;bottom=0;right=0;pointerEvents=1;rounded=0;shadow=0;glass=0;sketch=0;strokeColor=#BD7000;strokeWidth=1;movable=1;resizable=1;rotatable=1;deletable=1;editable=1;fontColor=#000000;" parent="SBuyi_CQ05QwC0BAwkS6-247" vertex="1">
          <mxGeometry x="18" width="18" height="18" as="geometry">
            <mxRectangle width="18" height="18" as="alternateBounds" />
          </mxGeometry>
        </mxCell>
        <mxCell id="SBuyi_CQ05QwC0BAwkS6-250" value="" style="shape=partialRectangle;html=1;whiteSpace=wrap;connectable=1;overflow=hidden;fillColor=#FFE599;top=0;left=0;bottom=0;right=0;pointerEvents=1;rounded=0;shadow=0;glass=0;sketch=0;strokeColor=#BD7000;strokeWidth=1;movable=1;resizable=1;rotatable=1;deletable=1;editable=1;fontColor=#000000;" parent="SBuyi_CQ05QwC0BAwkS6-247" vertex="1">
          <mxGeometry x="36" width="18" height="18" as="geometry">
            <mxRectangle width="18" height="18" as="alternateBounds" />
          </mxGeometry>
        </mxCell>
        <mxCell id="SBuyi_CQ05QwC0BAwkS6-277" value="" style="shape=table;startSize=0;container=1;collapsible=0;childLayout=tableLayout;rounded=0;shadow=0;glass=0;sketch=0;strokeColor=#BD7000;strokeWidth=1;fillColor=#FFE599;movable=1;resizable=1;rotatable=1;deletable=1;editable=1;connectable=1;fontColor=#000000;" parent="1" vertex="1">
          <mxGeometry x="485" y="792" width="54" height="54" as="geometry" />
        </mxCell>
        <mxCell id="SBuyi_CQ05QwC0BAwkS6-278" value="" style="shape=partialRectangle;collapsible=0;dropTarget=0;pointerEvents=0;fillColor=#FFE599;top=0;left=0;bottom=0;right=0;points=[[0,0.5],[1,0.5]];portConstraint=eastwest;rounded=0;shadow=0;glass=0;sketch=0;strokeColor=#BD7000;strokeWidth=1;movable=1;resizable=1;rotatable=1;deletable=1;editable=1;connectable=1;fontColor=#000000;" parent="SBuyi_CQ05QwC0BAwkS6-277" vertex="1">
          <mxGeometry width="54" height="18" as="geometry" />
        </mxCell>
        <mxCell id="SBuyi_CQ05QwC0BAwkS6-279" value="" style="shape=partialRectangle;html=1;whiteSpace=wrap;connectable=1;overflow=hidden;fillColor=#FFE599;top=0;left=0;bottom=0;right=0;pointerEvents=1;rounded=0;shadow=0;glass=0;sketch=0;strokeColor=#BD7000;strokeWidth=1;movable=1;resizable=1;rotatable=1;deletable=1;editable=1;fontColor=#000000;" parent="SBuyi_CQ05QwC0BAwkS6-278" vertex="1">
          <mxGeometry width="18" height="18" as="geometry">
            <mxRectangle width="18" height="18" as="alternateBounds" />
          </mxGeometry>
        </mxCell>
        <mxCell id="SBuyi_CQ05QwC0BAwkS6-280" value="" style="shape=partialRectangle;html=1;whiteSpace=wrap;connectable=1;overflow=hidden;fillColor=#FFE599;top=0;left=0;bottom=0;right=0;pointerEvents=1;rounded=0;shadow=0;glass=0;sketch=0;strokeColor=#BD7000;strokeWidth=1;movable=1;resizable=1;rotatable=1;deletable=1;editable=1;fontColor=#000000;" parent="SBuyi_CQ05QwC0BAwkS6-278" vertex="1">
          <mxGeometry x="18" width="18" height="18" as="geometry">
            <mxRectangle width="18" height="18" as="alternateBounds" />
          </mxGeometry>
        </mxCell>
        <mxCell id="SBuyi_CQ05QwC0BAwkS6-281" value="" style="shape=partialRectangle;html=1;whiteSpace=wrap;connectable=1;overflow=hidden;fillColor=#FFE599;top=0;left=0;bottom=0;right=0;pointerEvents=1;rounded=0;shadow=0;glass=0;sketch=0;strokeColor=#BD7000;strokeWidth=1;movable=1;resizable=1;rotatable=1;deletable=1;editable=1;fontColor=#000000;" parent="SBuyi_CQ05QwC0BAwkS6-278" vertex="1">
          <mxGeometry x="36" width="18" height="18" as="geometry">
            <mxRectangle width="18" height="18" as="alternateBounds" />
          </mxGeometry>
        </mxCell>
        <mxCell id="SBuyi_CQ05QwC0BAwkS6-282" value="" style="shape=partialRectangle;collapsible=0;dropTarget=0;pointerEvents=0;fillColor=#FFE599;top=0;left=0;bottom=0;right=0;points=[[0,0.5],[1,0.5]];portConstraint=eastwest;rounded=0;shadow=0;glass=0;sketch=0;strokeColor=#BD7000;strokeWidth=1;movable=1;resizable=1;rotatable=1;deletable=1;editable=1;connectable=1;fontColor=#000000;" parent="SBuyi_CQ05QwC0BAwkS6-277" vertex="1">
          <mxGeometry y="18" width="54" height="18" as="geometry" />
        </mxCell>
        <mxCell id="SBuyi_CQ05QwC0BAwkS6-283" value="" style="shape=partialRectangle;html=1;whiteSpace=wrap;connectable=1;overflow=hidden;fillColor=#FFE599;top=0;left=0;bottom=0;right=0;pointerEvents=1;rounded=0;shadow=0;glass=0;sketch=0;strokeColor=#BD7000;strokeWidth=1;movable=1;resizable=1;rotatable=1;deletable=1;editable=1;fontColor=#000000;" parent="SBuyi_CQ05QwC0BAwkS6-282" vertex="1">
          <mxGeometry width="18" height="18" as="geometry">
            <mxRectangle width="18" height="18" as="alternateBounds" />
          </mxGeometry>
        </mxCell>
        <mxCell id="SBuyi_CQ05QwC0BAwkS6-284" value="" style="shape=partialRectangle;html=1;whiteSpace=wrap;connectable=1;overflow=hidden;fillColor=#FFE599;top=0;left=0;bottom=0;right=0;pointerEvents=1;rounded=0;shadow=0;glass=0;sketch=0;strokeColor=#BD7000;strokeWidth=1;movable=1;resizable=1;rotatable=1;deletable=1;editable=1;fontColor=#000000;" parent="SBuyi_CQ05QwC0BAwkS6-282" vertex="1">
          <mxGeometry x="18" width="18" height="18" as="geometry">
            <mxRectangle width="18" height="18" as="alternateBounds" />
          </mxGeometry>
        </mxCell>
        <mxCell id="SBuyi_CQ05QwC0BAwkS6-285" value="" style="shape=partialRectangle;html=1;whiteSpace=wrap;connectable=1;overflow=hidden;fillColor=#FFE599;top=0;left=0;bottom=0;right=0;pointerEvents=1;rounded=0;shadow=0;glass=0;sketch=0;strokeColor=#BD7000;strokeWidth=1;movable=1;resizable=1;rotatable=1;deletable=1;editable=1;fontColor=#000000;" parent="SBuyi_CQ05QwC0BAwkS6-282" vertex="1">
          <mxGeometry x="36" width="18" height="18" as="geometry">
            <mxRectangle width="18" height="18" as="alternateBounds" />
          </mxGeometry>
        </mxCell>
        <mxCell id="SBuyi_CQ05QwC0BAwkS6-286" value="" style="shape=partialRectangle;collapsible=0;dropTarget=0;pointerEvents=0;fillColor=#FFE599;top=0;left=0;bottom=0;right=0;points=[[0,0.5],[1,0.5]];portConstraint=eastwest;rounded=0;shadow=0;glass=0;sketch=0;strokeColor=#BD7000;strokeWidth=1;movable=1;resizable=1;rotatable=1;deletable=1;editable=1;connectable=1;fontColor=#000000;" parent="SBuyi_CQ05QwC0BAwkS6-277" vertex="1">
          <mxGeometry y="36" width="54" height="18" as="geometry" />
        </mxCell>
        <mxCell id="SBuyi_CQ05QwC0BAwkS6-287" value="" style="shape=partialRectangle;html=1;whiteSpace=wrap;connectable=1;overflow=hidden;fillColor=#FFE599;top=0;left=0;bottom=0;right=0;pointerEvents=1;rounded=0;shadow=0;glass=0;sketch=0;strokeColor=#BD7000;strokeWidth=1;movable=1;resizable=1;rotatable=1;deletable=1;editable=1;fontColor=#000000;" parent="SBuyi_CQ05QwC0BAwkS6-286" vertex="1">
          <mxGeometry width="18" height="18" as="geometry">
            <mxRectangle width="18" height="18" as="alternateBounds" />
          </mxGeometry>
        </mxCell>
        <mxCell id="SBuyi_CQ05QwC0BAwkS6-288" value="" style="shape=partialRectangle;html=1;whiteSpace=wrap;connectable=1;overflow=hidden;fillColor=#FFE599;top=0;left=0;bottom=0;right=0;pointerEvents=1;rounded=0;shadow=0;glass=0;sketch=0;strokeColor=#BD7000;strokeWidth=1;movable=1;resizable=1;rotatable=1;deletable=1;editable=1;fontColor=#000000;" parent="SBuyi_CQ05QwC0BAwkS6-286" vertex="1">
          <mxGeometry x="18" width="18" height="18" as="geometry">
            <mxRectangle width="18" height="18" as="alternateBounds" />
          </mxGeometry>
        </mxCell>
        <mxCell id="SBuyi_CQ05QwC0BAwkS6-289" value="" style="shape=partialRectangle;html=1;whiteSpace=wrap;connectable=1;overflow=hidden;fillColor=#FFE599;top=0;left=0;bottom=0;right=0;pointerEvents=1;rounded=0;shadow=0;glass=0;sketch=0;strokeColor=#BD7000;strokeWidth=1;movable=1;resizable=1;rotatable=1;deletable=1;editable=1;fontColor=#000000;" parent="SBuyi_CQ05QwC0BAwkS6-286" vertex="1">
          <mxGeometry x="36" width="18" height="18" as="geometry">
            <mxRectangle width="18" height="18" as="alternateBounds" />
          </mxGeometry>
        </mxCell>
        <mxCell id="SBuyi_CQ05QwC0BAwkS6-316" value="" style="shape=table;startSize=0;container=1;collapsible=0;childLayout=tableLayout;rounded=0;shadow=0;glass=0;sketch=0;strokeColor=#d6b656;strokeWidth=1;fillColor=#FFE599;movable=1;resizable=1;rotatable=1;deletable=1;editable=1;connectable=1;" parent="1" vertex="1">
          <mxGeometry x="426" y="1083" width="54" height="54" as="geometry" />
        </mxCell>
        <mxCell id="SBuyi_CQ05QwC0BAwkS6-317" value="" style="shape=partialRectangle;collapsible=0;dropTarget=0;pointerEvents=0;fillColor=#FFE599;top=0;left=0;bottom=0;right=0;points=[[0,0.5],[1,0.5]];portConstraint=eastwest;rounded=0;shadow=0;glass=0;sketch=0;strokeColor=#d79b00;strokeWidth=1;movable=1;resizable=1;rotatable=1;deletable=1;editable=1;connectable=1;" parent="SBuyi_CQ05QwC0BAwkS6-316" vertex="1">
          <mxGeometry width="54" height="18" as="geometry" />
        </mxCell>
        <mxCell id="SBuyi_CQ05QwC0BAwkS6-318" value="" style="shape=partialRectangle;html=1;whiteSpace=wrap;connectable=1;overflow=hidden;fillColor=#FFE599;top=0;left=0;bottom=0;right=0;pointerEvents=1;rounded=0;shadow=0;glass=0;sketch=0;strokeColor=#d79b00;strokeWidth=1;movable=1;resizable=1;rotatable=1;deletable=1;editable=1;" parent="SBuyi_CQ05QwC0BAwkS6-317" vertex="1">
          <mxGeometry width="18" height="18" as="geometry">
            <mxRectangle width="18" height="18" as="alternateBounds" />
          </mxGeometry>
        </mxCell>
        <mxCell id="SBuyi_CQ05QwC0BAwkS6-319" value="" style="shape=partialRectangle;html=1;whiteSpace=wrap;connectable=1;overflow=hidden;fillColor=#FFE599;top=0;left=0;bottom=0;right=0;pointerEvents=1;rounded=0;shadow=0;glass=0;sketch=0;strokeColor=#d79b00;strokeWidth=1;movable=1;resizable=1;rotatable=1;deletable=1;editable=1;" parent="SBuyi_CQ05QwC0BAwkS6-317" vertex="1">
          <mxGeometry x="18" width="16" height="18" as="geometry">
            <mxRectangle width="16" height="18" as="alternateBounds" />
          </mxGeometry>
        </mxCell>
        <mxCell id="SBuyi_CQ05QwC0BAwkS6-320" value="" style="shape=partialRectangle;html=1;whiteSpace=wrap;connectable=1;overflow=hidden;fillColor=#FFE599;top=0;left=0;bottom=0;right=0;pointerEvents=1;rounded=0;shadow=0;glass=0;sketch=0;strokeColor=#d79b00;strokeWidth=1;movable=1;resizable=1;rotatable=1;deletable=1;editable=1;" parent="SBuyi_CQ05QwC0BAwkS6-317" vertex="1">
          <mxGeometry x="34" width="20" height="18" as="geometry">
            <mxRectangle width="20" height="18" as="alternateBounds" />
          </mxGeometry>
        </mxCell>
        <mxCell id="SBuyi_CQ05QwC0BAwkS6-321" value="" style="shape=partialRectangle;collapsible=0;dropTarget=0;pointerEvents=0;fillColor=#FFE599;top=0;left=0;bottom=0;right=0;points=[[0,0.5],[1,0.5]];portConstraint=eastwest;rounded=0;shadow=0;glass=0;sketch=0;strokeColor=#d79b00;strokeWidth=1;movable=1;resizable=1;rotatable=1;deletable=1;editable=1;connectable=1;" parent="SBuyi_CQ05QwC0BAwkS6-316" vertex="1">
          <mxGeometry y="18" width="54" height="18" as="geometry" />
        </mxCell>
        <mxCell id="SBuyi_CQ05QwC0BAwkS6-322" value="" style="shape=partialRectangle;html=1;whiteSpace=wrap;connectable=1;overflow=hidden;fillColor=#FFE599;top=0;left=0;bottom=0;right=0;pointerEvents=1;rounded=0;shadow=0;glass=0;sketch=0;strokeColor=#d79b00;strokeWidth=1;movable=1;resizable=1;rotatable=1;deletable=1;editable=1;" parent="SBuyi_CQ05QwC0BAwkS6-321" vertex="1">
          <mxGeometry width="18" height="18" as="geometry">
            <mxRectangle width="18" height="18" as="alternateBounds" />
          </mxGeometry>
        </mxCell>
        <mxCell id="SBuyi_CQ05QwC0BAwkS6-323" value="" style="shape=partialRectangle;html=1;whiteSpace=wrap;connectable=1;overflow=hidden;fillColor=#FFE599;top=0;left=0;bottom=0;right=0;pointerEvents=1;rounded=0;shadow=0;glass=0;sketch=0;strokeColor=#d79b00;strokeWidth=1;movable=1;resizable=1;rotatable=1;deletable=1;editable=1;" parent="SBuyi_CQ05QwC0BAwkS6-321" vertex="1">
          <mxGeometry x="18" width="16" height="18" as="geometry">
            <mxRectangle width="16" height="18" as="alternateBounds" />
          </mxGeometry>
        </mxCell>
        <mxCell id="SBuyi_CQ05QwC0BAwkS6-324" value="" style="shape=partialRectangle;html=1;whiteSpace=wrap;connectable=1;overflow=hidden;fillColor=#FFE599;top=0;left=0;bottom=0;right=0;pointerEvents=1;rounded=0;shadow=0;glass=0;sketch=0;strokeColor=#d79b00;strokeWidth=1;movable=1;resizable=1;rotatable=1;deletable=1;editable=1;" parent="SBuyi_CQ05QwC0BAwkS6-321" vertex="1">
          <mxGeometry x="34" width="20" height="18" as="geometry">
            <mxRectangle width="20" height="18" as="alternateBounds" />
          </mxGeometry>
        </mxCell>
        <mxCell id="SBuyi_CQ05QwC0BAwkS6-325" value="" style="shape=partialRectangle;collapsible=0;dropTarget=0;pointerEvents=0;fillColor=#FFE599;top=0;left=0;bottom=0;right=0;points=[[0,0.5],[1,0.5]];portConstraint=eastwest;rounded=0;shadow=0;glass=0;sketch=0;strokeColor=#d6b656;strokeWidth=1;movable=1;resizable=1;rotatable=1;deletable=1;editable=1;connectable=1;" parent="SBuyi_CQ05QwC0BAwkS6-316" vertex="1">
          <mxGeometry y="36" width="54" height="18" as="geometry" />
        </mxCell>
        <mxCell id="SBuyi_CQ05QwC0BAwkS6-326" value="" style="shape=partialRectangle;html=1;whiteSpace=wrap;connectable=1;overflow=hidden;fillColor=#FFE599;top=0;left=0;bottom=0;right=0;pointerEvents=1;rounded=0;shadow=0;glass=0;sketch=0;strokeColor=#d6b656;strokeWidth=1;movable=1;resizable=1;rotatable=1;deletable=1;editable=1;" parent="SBuyi_CQ05QwC0BAwkS6-325" vertex="1">
          <mxGeometry width="18" height="18" as="geometry">
            <mxRectangle width="18" height="18" as="alternateBounds" />
          </mxGeometry>
        </mxCell>
        <mxCell id="SBuyi_CQ05QwC0BAwkS6-327" value="" style="shape=partialRectangle;html=1;whiteSpace=wrap;connectable=1;overflow=hidden;fillColor=#FFE599;top=0;left=0;bottom=0;right=0;pointerEvents=1;rounded=0;shadow=0;glass=0;sketch=0;strokeColor=#d6b656;strokeWidth=1;movable=1;resizable=1;rotatable=1;deletable=1;editable=1;" parent="SBuyi_CQ05QwC0BAwkS6-325" vertex="1">
          <mxGeometry x="18" width="16" height="18" as="geometry">
            <mxRectangle width="16" height="18" as="alternateBounds" />
          </mxGeometry>
        </mxCell>
        <mxCell id="SBuyi_CQ05QwC0BAwkS6-328" value="" style="shape=partialRectangle;html=1;whiteSpace=wrap;connectable=1;overflow=hidden;fillColor=#FFE599;top=0;left=0;bottom=0;right=0;pointerEvents=1;rounded=0;shadow=0;glass=0;sketch=0;strokeColor=#d6b656;strokeWidth=1;movable=1;resizable=1;rotatable=1;deletable=1;editable=1;" parent="SBuyi_CQ05QwC0BAwkS6-325" vertex="1">
          <mxGeometry x="34" width="20" height="18" as="geometry">
            <mxRectangle width="20" height="18" as="alternateBounds" />
          </mxGeometry>
        </mxCell>
        <mxCell id="SBuyi_CQ05QwC0BAwkS6-350" value="" style="curved=1;endArrow=classic;html=1;rounded=0;strokeColor=#B5739D;entryX=0.25;entryY=1;entryDx=0;entryDy=0;" parent="1" edge="1">
          <mxGeometry width="50" height="50" relative="1" as="geometry">
            <mxPoint x="217" y="1110" as="sourcePoint" />
            <mxPoint x="445" y="1137" as="targetPoint" />
            <Array as="points">
              <mxPoint x="217" y="1127" />
              <mxPoint x="267" y="1156" />
              <mxPoint x="317" y="1160" />
            </Array>
          </mxGeometry>
        </mxCell>
        <mxCell id="SBuyi_CQ05QwC0BAwkS6-351" value="" style="curved=1;endArrow=classic;html=1;rounded=0;strokeColor=#B5739D;entryX=0.5;entryY=1;entryDx=0;entryDy=0;" parent="1" edge="1">
          <mxGeometry width="50" height="50" relative="1" as="geometry">
            <mxPoint x="228" y="1100" as="sourcePoint" />
            <mxPoint x="451" y="1137" as="targetPoint" />
            <Array as="points">
              <mxPoint x="278" y="1150" />
            </Array>
          </mxGeometry>
        </mxCell>
        <mxCell id="SBuyi_CQ05QwC0BAwkS6-348" value="" style="curved=1;endArrow=classic;html=1;rounded=0;strokeColor=#B5739D;entryX=0.5;entryY=1;entryDx=0;entryDy=0;" parent="1" edge="1">
          <mxGeometry width="50" height="50" relative="1" as="geometry">
            <mxPoint x="207" y="1124" as="sourcePoint" />
            <mxPoint x="450" y="1137" as="targetPoint" />
            <Array as="points">
              <mxPoint x="207" y="1143" />
              <mxPoint x="257" y="1172" />
              <mxPoint x="307" y="1180" />
              <mxPoint x="357" y="1170" />
            </Array>
          </mxGeometry>
        </mxCell>
        <mxCell id="SBuyi_CQ05QwC0BAwkS6-352" value="Input" style="text;html=1;align=center;verticalAlign=middle;resizable=0;points=[];autosize=1;strokeColor=none;fillColor=none;fontSize=18;" parent="1" vertex="1">
          <mxGeometry x="3" y="735" width="60" height="30" as="geometry" />
        </mxCell>
        <mxCell id="SBuyi_CQ05QwC0BAwkS6-353" value="Filters" style="text;html=1;align=center;verticalAlign=middle;resizable=0;points=[];autosize=1;strokeColor=none;fillColor=none;fontSize=18;" parent="1" vertex="1">
          <mxGeometry x="231" y="735" width="60" height="30" as="geometry" />
        </mxCell>
        <mxCell id="SBuyi_CQ05QwC0BAwkS6-354" value="Feature image" style="text;html=1;align=center;verticalAlign=middle;resizable=0;points=[];autosize=1;strokeColor=none;fillColor=none;fontSize=18;" parent="1" vertex="1">
          <mxGeometry x="444" y="735" width="130" height="30" as="geometry" />
        </mxCell>
        <mxCell id="SBuyi_CQ05QwC0BAwkS6-99" value="" style="shape=table;startSize=0;container=1;collapsible=0;childLayout=tableLayout;rounded=0;shadow=0;glass=0;sketch=0;strokeColor=#6C8EBF;strokeWidth=1;fillColor=#dae8fc;movable=1;resizable=1;rotatable=1;deletable=1;editable=1;connectable=1;" parent="1" vertex="1">
          <mxGeometry x="234" y="780" width="54" height="54" as="geometry" />
        </mxCell>
        <mxCell id="SBuyi_CQ05QwC0BAwkS6-100" value="" style="shape=partialRectangle;collapsible=0;dropTarget=0;pointerEvents=0;fillColor=#dae8fc;top=0;left=0;bottom=0;right=0;points=[[0,0.5],[1,0.5]];portConstraint=eastwest;rounded=0;shadow=0;glass=0;sketch=0;strokeColor=#000000;strokeWidth=1;movable=1;resizable=1;rotatable=1;deletable=1;editable=1;connectable=1;" parent="SBuyi_CQ05QwC0BAwkS6-99" vertex="1">
          <mxGeometry width="54" height="18" as="geometry" />
        </mxCell>
        <mxCell id="SBuyi_CQ05QwC0BAwkS6-101" value="" style="shape=partialRectangle;html=1;whiteSpace=wrap;connectable=1;overflow=hidden;fillColor=#dae8fc;top=0;left=0;bottom=0;right=0;pointerEvents=1;rounded=0;shadow=0;glass=0;sketch=0;strokeColor=#000000;strokeWidth=1;movable=1;resizable=1;rotatable=1;deletable=1;editable=1;" parent="SBuyi_CQ05QwC0BAwkS6-100" vertex="1">
          <mxGeometry width="18" height="18" as="geometry">
            <mxRectangle width="18" height="18" as="alternateBounds" />
          </mxGeometry>
        </mxCell>
        <mxCell id="SBuyi_CQ05QwC0BAwkS6-102" value="" style="shape=partialRectangle;html=1;whiteSpace=wrap;connectable=1;overflow=hidden;fillColor=#dae8fc;top=0;left=0;bottom=0;right=0;pointerEvents=1;rounded=0;shadow=0;glass=0;sketch=0;strokeColor=#000000;strokeWidth=1;movable=1;resizable=1;rotatable=1;deletable=1;editable=1;" parent="SBuyi_CQ05QwC0BAwkS6-100" vertex="1">
          <mxGeometry x="18" width="18" height="18" as="geometry">
            <mxRectangle width="18" height="18" as="alternateBounds" />
          </mxGeometry>
        </mxCell>
        <mxCell id="SBuyi_CQ05QwC0BAwkS6-103" value="" style="shape=partialRectangle;html=1;whiteSpace=wrap;connectable=1;overflow=hidden;fillColor=#dae8fc;top=0;left=0;bottom=0;right=0;pointerEvents=1;rounded=0;shadow=0;glass=0;sketch=0;strokeColor=#000000;strokeWidth=1;movable=1;resizable=1;rotatable=1;deletable=1;editable=1;" parent="SBuyi_CQ05QwC0BAwkS6-100" vertex="1">
          <mxGeometry x="36" width="18" height="18" as="geometry">
            <mxRectangle width="18" height="18" as="alternateBounds" />
          </mxGeometry>
        </mxCell>
        <mxCell id="SBuyi_CQ05QwC0BAwkS6-104" value="" style="shape=partialRectangle;collapsible=0;dropTarget=0;pointerEvents=0;fillColor=#dae8fc;top=0;left=0;bottom=0;right=0;points=[[0,0.5],[1,0.5]];portConstraint=eastwest;rounded=0;shadow=0;glass=0;sketch=0;strokeColor=#000000;strokeWidth=1;movable=1;resizable=1;rotatable=1;deletable=1;editable=1;connectable=1;" parent="SBuyi_CQ05QwC0BAwkS6-99" vertex="1">
          <mxGeometry y="18" width="54" height="18" as="geometry" />
        </mxCell>
        <mxCell id="SBuyi_CQ05QwC0BAwkS6-105" value="" style="shape=partialRectangle;html=1;whiteSpace=wrap;connectable=1;overflow=hidden;fillColor=#dae8fc;top=0;left=0;bottom=0;right=0;pointerEvents=1;rounded=0;shadow=0;glass=0;sketch=0;strokeColor=#000000;strokeWidth=1;movable=1;resizable=1;rotatable=1;deletable=1;editable=1;" parent="SBuyi_CQ05QwC0BAwkS6-104" vertex="1">
          <mxGeometry width="18" height="18" as="geometry">
            <mxRectangle width="18" height="18" as="alternateBounds" />
          </mxGeometry>
        </mxCell>
        <mxCell id="SBuyi_CQ05QwC0BAwkS6-106" value="" style="shape=partialRectangle;html=1;whiteSpace=wrap;connectable=1;overflow=hidden;fillColor=#dae8fc;top=0;left=0;bottom=0;right=0;pointerEvents=1;rounded=0;shadow=0;glass=0;sketch=0;strokeColor=#000000;strokeWidth=1;movable=1;resizable=1;rotatable=1;deletable=1;editable=1;" parent="SBuyi_CQ05QwC0BAwkS6-104" vertex="1">
          <mxGeometry x="18" width="18" height="18" as="geometry">
            <mxRectangle width="18" height="18" as="alternateBounds" />
          </mxGeometry>
        </mxCell>
        <mxCell id="SBuyi_CQ05QwC0BAwkS6-107" value="" style="shape=partialRectangle;html=1;whiteSpace=wrap;connectable=1;overflow=hidden;fillColor=#dae8fc;top=0;left=0;bottom=0;right=0;pointerEvents=1;rounded=0;shadow=0;glass=0;sketch=0;strokeColor=#000000;strokeWidth=1;movable=1;resizable=1;rotatable=1;deletable=1;editable=1;" parent="SBuyi_CQ05QwC0BAwkS6-104" vertex="1">
          <mxGeometry x="36" width="18" height="18" as="geometry">
            <mxRectangle width="18" height="18" as="alternateBounds" />
          </mxGeometry>
        </mxCell>
        <mxCell id="SBuyi_CQ05QwC0BAwkS6-108" value="" style="shape=partialRectangle;collapsible=0;dropTarget=0;pointerEvents=0;fillColor=#dae8fc;top=0;left=0;bottom=0;right=0;points=[[0,0.5],[1,0.5]];portConstraint=eastwest;rounded=0;shadow=0;glass=0;sketch=0;strokeColor=#000000;strokeWidth=1;movable=1;resizable=1;rotatable=1;deletable=1;editable=1;connectable=1;" parent="SBuyi_CQ05QwC0BAwkS6-99" vertex="1">
          <mxGeometry y="36" width="54" height="18" as="geometry" />
        </mxCell>
        <mxCell id="SBuyi_CQ05QwC0BAwkS6-109" value="" style="shape=partialRectangle;html=1;whiteSpace=wrap;connectable=1;overflow=hidden;fillColor=#dae8fc;top=0;left=0;bottom=0;right=0;pointerEvents=1;rounded=0;shadow=0;glass=0;sketch=0;strokeColor=#000000;strokeWidth=1;movable=1;resizable=1;rotatable=1;deletable=1;editable=1;" parent="SBuyi_CQ05QwC0BAwkS6-108" vertex="1">
          <mxGeometry width="18" height="18" as="geometry">
            <mxRectangle width="18" height="18" as="alternateBounds" />
          </mxGeometry>
        </mxCell>
        <mxCell id="SBuyi_CQ05QwC0BAwkS6-110" value="" style="shape=partialRectangle;html=1;whiteSpace=wrap;connectable=1;overflow=hidden;fillColor=#dae8fc;top=0;left=0;bottom=0;right=0;pointerEvents=1;rounded=0;shadow=0;glass=0;sketch=0;strokeColor=#000000;strokeWidth=1;movable=1;resizable=1;rotatable=1;deletable=1;editable=1;" parent="SBuyi_CQ05QwC0BAwkS6-108" vertex="1">
          <mxGeometry x="18" width="18" height="18" as="geometry">
            <mxRectangle width="18" height="18" as="alternateBounds" />
          </mxGeometry>
        </mxCell>
        <mxCell id="SBuyi_CQ05QwC0BAwkS6-111" value="" style="shape=partialRectangle;html=1;whiteSpace=wrap;connectable=1;overflow=hidden;fillColor=#dae8fc;top=0;left=0;bottom=0;right=0;pointerEvents=1;rounded=0;shadow=0;glass=0;sketch=0;strokeColor=#000000;strokeWidth=1;movable=1;resizable=1;rotatable=1;deletable=1;editable=1;" parent="SBuyi_CQ05QwC0BAwkS6-108" vertex="1">
          <mxGeometry x="36" width="18" height="18" as="geometry">
            <mxRectangle width="18" height="18" as="alternateBounds" />
          </mxGeometry>
        </mxCell>
        <mxCell id="SBuyi_CQ05QwC0BAwkS6-112" value="" style="shape=table;startSize=0;container=1;collapsible=0;childLayout=tableLayout;rounded=0;shadow=0;glass=0;sketch=0;strokeColor=#6C8EBF;strokeWidth=1;fillColor=#dae8fc;movable=1;resizable=1;rotatable=1;deletable=1;editable=1;connectable=1;" parent="1" vertex="1">
          <mxGeometry x="223" y="792" width="54" height="54" as="geometry" />
        </mxCell>
        <mxCell id="SBuyi_CQ05QwC0BAwkS6-113" value="" style="shape=partialRectangle;collapsible=0;dropTarget=0;pointerEvents=0;fillColor=#dae8fc;top=0;left=0;bottom=0;right=0;points=[[0,0.5],[1,0.5]];portConstraint=eastwest;rounded=0;shadow=0;glass=0;sketch=0;strokeColor=#000000;strokeWidth=1;movable=1;resizable=1;rotatable=1;deletable=1;editable=1;connectable=1;" parent="SBuyi_CQ05QwC0BAwkS6-112" vertex="1">
          <mxGeometry width="54" height="18" as="geometry" />
        </mxCell>
        <mxCell id="SBuyi_CQ05QwC0BAwkS6-114" value="" style="shape=partialRectangle;html=1;whiteSpace=wrap;connectable=1;overflow=hidden;fillColor=#dae8fc;top=0;left=0;bottom=0;right=0;pointerEvents=1;rounded=0;shadow=0;glass=0;sketch=0;strokeColor=#000000;strokeWidth=1;movable=1;resizable=1;rotatable=1;deletable=1;editable=1;" parent="SBuyi_CQ05QwC0BAwkS6-113" vertex="1">
          <mxGeometry width="18" height="18" as="geometry">
            <mxRectangle width="18" height="18" as="alternateBounds" />
          </mxGeometry>
        </mxCell>
        <mxCell id="SBuyi_CQ05QwC0BAwkS6-115" value="" style="shape=partialRectangle;html=1;whiteSpace=wrap;connectable=1;overflow=hidden;fillColor=#dae8fc;top=0;left=0;bottom=0;right=0;pointerEvents=1;rounded=0;shadow=0;glass=0;sketch=0;strokeColor=#000000;strokeWidth=1;movable=1;resizable=1;rotatable=1;deletable=1;editable=1;" parent="SBuyi_CQ05QwC0BAwkS6-113" vertex="1">
          <mxGeometry x="18" width="18" height="18" as="geometry">
            <mxRectangle width="18" height="18" as="alternateBounds" />
          </mxGeometry>
        </mxCell>
        <mxCell id="SBuyi_CQ05QwC0BAwkS6-116" value="" style="shape=partialRectangle;html=1;whiteSpace=wrap;connectable=1;overflow=hidden;fillColor=#dae8fc;top=0;left=0;bottom=0;right=0;pointerEvents=1;rounded=0;shadow=0;glass=0;sketch=0;strokeColor=#000000;strokeWidth=1;movable=1;resizable=1;rotatable=1;deletable=1;editable=1;" parent="SBuyi_CQ05QwC0BAwkS6-113" vertex="1">
          <mxGeometry x="36" width="18" height="18" as="geometry">
            <mxRectangle width="18" height="18" as="alternateBounds" />
          </mxGeometry>
        </mxCell>
        <mxCell id="SBuyi_CQ05QwC0BAwkS6-117" value="" style="shape=partialRectangle;collapsible=0;dropTarget=0;pointerEvents=0;fillColor=#dae8fc;top=0;left=0;bottom=0;right=0;points=[[0,0.5],[1,0.5]];portConstraint=eastwest;rounded=0;shadow=0;glass=0;sketch=0;strokeColor=#000000;strokeWidth=1;movable=1;resizable=1;rotatable=1;deletable=1;editable=1;connectable=1;" parent="SBuyi_CQ05QwC0BAwkS6-112" vertex="1">
          <mxGeometry y="18" width="54" height="18" as="geometry" />
        </mxCell>
        <mxCell id="SBuyi_CQ05QwC0BAwkS6-118" value="" style="shape=partialRectangle;html=1;whiteSpace=wrap;connectable=1;overflow=hidden;fillColor=#dae8fc;top=0;left=0;bottom=0;right=0;pointerEvents=1;rounded=0;shadow=0;glass=0;sketch=0;strokeColor=#000000;strokeWidth=1;movable=1;resizable=1;rotatable=1;deletable=1;editable=1;" parent="SBuyi_CQ05QwC0BAwkS6-117" vertex="1">
          <mxGeometry width="18" height="18" as="geometry">
            <mxRectangle width="18" height="18" as="alternateBounds" />
          </mxGeometry>
        </mxCell>
        <mxCell id="SBuyi_CQ05QwC0BAwkS6-119" value="" style="shape=partialRectangle;html=1;whiteSpace=wrap;connectable=1;overflow=hidden;fillColor=#dae8fc;top=0;left=0;bottom=0;right=0;pointerEvents=1;rounded=0;shadow=0;glass=0;sketch=0;strokeColor=#000000;strokeWidth=1;movable=1;resizable=1;rotatable=1;deletable=1;editable=1;" parent="SBuyi_CQ05QwC0BAwkS6-117" vertex="1">
          <mxGeometry x="18" width="18" height="18" as="geometry">
            <mxRectangle width="18" height="18" as="alternateBounds" />
          </mxGeometry>
        </mxCell>
        <mxCell id="SBuyi_CQ05QwC0BAwkS6-120" value="" style="shape=partialRectangle;html=1;whiteSpace=wrap;connectable=1;overflow=hidden;fillColor=#dae8fc;top=0;left=0;bottom=0;right=0;pointerEvents=1;rounded=0;shadow=0;glass=0;sketch=0;strokeColor=#000000;strokeWidth=1;movable=1;resizable=1;rotatable=1;deletable=1;editable=1;" parent="SBuyi_CQ05QwC0BAwkS6-117" vertex="1">
          <mxGeometry x="36" width="18" height="18" as="geometry">
            <mxRectangle width="18" height="18" as="alternateBounds" />
          </mxGeometry>
        </mxCell>
        <mxCell id="SBuyi_CQ05QwC0BAwkS6-121" value="" style="shape=partialRectangle;collapsible=0;dropTarget=0;pointerEvents=0;fillColor=#dae8fc;top=0;left=0;bottom=0;right=0;points=[[0,0.5],[1,0.5]];portConstraint=eastwest;rounded=0;shadow=0;glass=0;sketch=0;strokeColor=#000000;strokeWidth=1;movable=1;resizable=1;rotatable=1;deletable=1;editable=1;connectable=1;" parent="SBuyi_CQ05QwC0BAwkS6-112" vertex="1">
          <mxGeometry y="36" width="54" height="18" as="geometry" />
        </mxCell>
        <mxCell id="SBuyi_CQ05QwC0BAwkS6-122" value="" style="shape=partialRectangle;html=1;whiteSpace=wrap;connectable=1;overflow=hidden;fillColor=#dae8fc;top=0;left=0;bottom=0;right=0;pointerEvents=1;rounded=0;shadow=0;glass=0;sketch=0;strokeColor=#000000;strokeWidth=1;movable=1;resizable=1;rotatable=1;deletable=1;editable=1;" parent="SBuyi_CQ05QwC0BAwkS6-121" vertex="1">
          <mxGeometry width="18" height="18" as="geometry">
            <mxRectangle width="18" height="18" as="alternateBounds" />
          </mxGeometry>
        </mxCell>
        <mxCell id="SBuyi_CQ05QwC0BAwkS6-123" value="" style="shape=partialRectangle;html=1;whiteSpace=wrap;connectable=1;overflow=hidden;fillColor=#dae8fc;top=0;left=0;bottom=0;right=0;pointerEvents=1;rounded=0;shadow=0;glass=0;sketch=0;strokeColor=#000000;strokeWidth=1;movable=1;resizable=1;rotatable=1;deletable=1;editable=1;" parent="SBuyi_CQ05QwC0BAwkS6-121" vertex="1">
          <mxGeometry x="18" width="18" height="18" as="geometry">
            <mxRectangle width="18" height="18" as="alternateBounds" />
          </mxGeometry>
        </mxCell>
        <mxCell id="SBuyi_CQ05QwC0BAwkS6-124" value="" style="shape=partialRectangle;html=1;whiteSpace=wrap;connectable=1;overflow=hidden;fillColor=#dae8fc;top=0;left=0;bottom=0;right=0;pointerEvents=1;rounded=0;shadow=0;glass=0;sketch=0;strokeColor=#000000;strokeWidth=1;movable=1;resizable=1;rotatable=1;deletable=1;editable=1;" parent="SBuyi_CQ05QwC0BAwkS6-121" vertex="1">
          <mxGeometry x="36" width="18" height="18" as="geometry">
            <mxRectangle width="18" height="18" as="alternateBounds" />
          </mxGeometry>
        </mxCell>
        <mxCell id="SBuyi_CQ05QwC0BAwkS6-125" value="" style="shape=table;startSize=0;container=1;collapsible=0;childLayout=tableLayout;rounded=0;shadow=0;glass=0;sketch=0;strokeColor=#6C8EBF;strokeWidth=1;fillColor=#dae8fc;movable=1;resizable=1;rotatable=1;deletable=1;editable=1;connectable=1;" parent="1" vertex="1">
          <mxGeometry x="214" y="804" width="54" height="54" as="geometry" />
        </mxCell>
        <mxCell id="SBuyi_CQ05QwC0BAwkS6-126" value="" style="shape=partialRectangle;collapsible=0;dropTarget=0;pointerEvents=0;fillColor=#dae8fc;top=0;left=0;bottom=0;right=0;points=[[0,0.5],[1,0.5]];portConstraint=eastwest;rounded=0;shadow=0;glass=0;sketch=0;strokeColor=#000000;strokeWidth=1;movable=1;resizable=1;rotatable=1;deletable=1;editable=1;connectable=1;" parent="SBuyi_CQ05QwC0BAwkS6-125" vertex="1">
          <mxGeometry width="54" height="18" as="geometry" />
        </mxCell>
        <mxCell id="SBuyi_CQ05QwC0BAwkS6-127" value="" style="shape=partialRectangle;html=1;whiteSpace=wrap;connectable=1;overflow=hidden;fillColor=#dae8fc;top=0;left=0;bottom=0;right=0;pointerEvents=1;rounded=0;shadow=0;glass=0;sketch=0;strokeColor=#000000;strokeWidth=1;movable=1;resizable=1;rotatable=1;deletable=1;editable=1;" parent="SBuyi_CQ05QwC0BAwkS6-126" vertex="1">
          <mxGeometry width="18" height="18" as="geometry">
            <mxRectangle width="18" height="18" as="alternateBounds" />
          </mxGeometry>
        </mxCell>
        <mxCell id="SBuyi_CQ05QwC0BAwkS6-128" value="" style="shape=partialRectangle;html=1;whiteSpace=wrap;connectable=1;overflow=hidden;fillColor=#dae8fc;top=0;left=0;bottom=0;right=0;pointerEvents=1;rounded=0;shadow=0;glass=0;sketch=0;strokeColor=#000000;strokeWidth=1;movable=1;resizable=1;rotatable=1;deletable=1;editable=1;" parent="SBuyi_CQ05QwC0BAwkS6-126" vertex="1">
          <mxGeometry x="18" width="18" height="18" as="geometry">
            <mxRectangle width="18" height="18" as="alternateBounds" />
          </mxGeometry>
        </mxCell>
        <mxCell id="SBuyi_CQ05QwC0BAwkS6-129" value="" style="shape=partialRectangle;html=1;whiteSpace=wrap;connectable=1;overflow=hidden;fillColor=#dae8fc;top=0;left=0;bottom=0;right=0;pointerEvents=1;rounded=0;shadow=0;glass=0;sketch=0;strokeColor=#000000;strokeWidth=1;movable=1;resizable=1;rotatable=1;deletable=1;editable=1;" parent="SBuyi_CQ05QwC0BAwkS6-126" vertex="1">
          <mxGeometry x="36" width="18" height="18" as="geometry">
            <mxRectangle width="18" height="18" as="alternateBounds" />
          </mxGeometry>
        </mxCell>
        <mxCell id="SBuyi_CQ05QwC0BAwkS6-130" value="" style="shape=partialRectangle;collapsible=0;dropTarget=0;pointerEvents=0;fillColor=#dae8fc;top=0;left=0;bottom=0;right=0;points=[[0,0.5],[1,0.5]];portConstraint=eastwest;rounded=0;shadow=0;glass=0;sketch=0;strokeColor=#000000;strokeWidth=1;movable=1;resizable=1;rotatable=1;deletable=1;editable=1;connectable=1;" parent="SBuyi_CQ05QwC0BAwkS6-125" vertex="1">
          <mxGeometry y="18" width="54" height="18" as="geometry" />
        </mxCell>
        <mxCell id="SBuyi_CQ05QwC0BAwkS6-131" value="" style="shape=partialRectangle;html=1;whiteSpace=wrap;connectable=1;overflow=hidden;fillColor=#dae8fc;top=0;left=0;bottom=0;right=0;pointerEvents=1;rounded=0;shadow=0;glass=0;sketch=0;strokeColor=#000000;strokeWidth=1;movable=1;resizable=1;rotatable=1;deletable=1;editable=1;" parent="SBuyi_CQ05QwC0BAwkS6-130" vertex="1">
          <mxGeometry width="18" height="18" as="geometry">
            <mxRectangle width="18" height="18" as="alternateBounds" />
          </mxGeometry>
        </mxCell>
        <mxCell id="SBuyi_CQ05QwC0BAwkS6-132" value="" style="shape=partialRectangle;html=1;whiteSpace=wrap;connectable=1;overflow=hidden;fillColor=#dae8fc;top=0;left=0;bottom=0;right=0;pointerEvents=1;rounded=0;shadow=0;glass=0;sketch=0;strokeColor=#000000;strokeWidth=1;movable=1;resizable=1;rotatable=1;deletable=1;editable=1;" parent="SBuyi_CQ05QwC0BAwkS6-130" vertex="1">
          <mxGeometry x="18" width="18" height="18" as="geometry">
            <mxRectangle width="18" height="18" as="alternateBounds" />
          </mxGeometry>
        </mxCell>
        <mxCell id="SBuyi_CQ05QwC0BAwkS6-133" value="" style="shape=partialRectangle;html=1;whiteSpace=wrap;connectable=1;overflow=hidden;fillColor=#dae8fc;top=0;left=0;bottom=0;right=0;pointerEvents=1;rounded=0;shadow=0;glass=0;sketch=0;strokeColor=#000000;strokeWidth=1;movable=1;resizable=1;rotatable=1;deletable=1;editable=1;" parent="SBuyi_CQ05QwC0BAwkS6-130" vertex="1">
          <mxGeometry x="36" width="18" height="18" as="geometry">
            <mxRectangle width="18" height="18" as="alternateBounds" />
          </mxGeometry>
        </mxCell>
        <mxCell id="SBuyi_CQ05QwC0BAwkS6-134" value="" style="shape=partialRectangle;collapsible=0;dropTarget=0;pointerEvents=0;fillColor=#dae8fc;top=0;left=0;bottom=0;right=0;points=[[0,0.5],[1,0.5]];portConstraint=eastwest;rounded=0;shadow=0;glass=0;sketch=0;strokeColor=#000000;strokeWidth=1;movable=1;resizable=1;rotatable=1;deletable=1;editable=1;connectable=1;" parent="SBuyi_CQ05QwC0BAwkS6-125" vertex="1">
          <mxGeometry y="36" width="54" height="18" as="geometry" />
        </mxCell>
        <mxCell id="SBuyi_CQ05QwC0BAwkS6-135" value="" style="shape=partialRectangle;html=1;whiteSpace=wrap;connectable=1;overflow=hidden;fillColor=#dae8fc;top=0;left=0;bottom=0;right=0;pointerEvents=1;rounded=0;shadow=0;glass=0;sketch=0;strokeColor=#000000;strokeWidth=1;movable=1;resizable=1;rotatable=1;deletable=1;editable=1;" parent="SBuyi_CQ05QwC0BAwkS6-134" vertex="1">
          <mxGeometry width="18" height="18" as="geometry">
            <mxRectangle width="18" height="18" as="alternateBounds" />
          </mxGeometry>
        </mxCell>
        <mxCell id="SBuyi_CQ05QwC0BAwkS6-136" value="" style="shape=partialRectangle;html=1;whiteSpace=wrap;connectable=1;overflow=hidden;fillColor=#dae8fc;top=0;left=0;bottom=0;right=0;pointerEvents=1;rounded=0;shadow=0;glass=0;sketch=0;strokeColor=#000000;strokeWidth=1;movable=1;resizable=1;rotatable=1;deletable=1;editable=1;" parent="SBuyi_CQ05QwC0BAwkS6-134" vertex="1">
          <mxGeometry x="18" width="18" height="18" as="geometry">
            <mxRectangle width="18" height="18" as="alternateBounds" />
          </mxGeometry>
        </mxCell>
        <mxCell id="SBuyi_CQ05QwC0BAwkS6-137" value="" style="shape=partialRectangle;html=1;whiteSpace=wrap;connectable=1;overflow=hidden;fillColor=#dae8fc;top=0;left=0;bottom=0;right=0;pointerEvents=1;rounded=0;shadow=0;glass=0;sketch=0;strokeColor=#000000;strokeWidth=1;movable=1;resizable=1;rotatable=1;deletable=1;editable=1;" parent="SBuyi_CQ05QwC0BAwkS6-134" vertex="1">
          <mxGeometry x="36" width="18" height="18" as="geometry">
            <mxRectangle width="18" height="18" as="alternateBounds" />
          </mxGeometry>
        </mxCell>
        <mxCell id="y2dvOFARiCJRjm47jgir-1" value="" style="shape=table;startSize=0;container=1;collapsible=0;childLayout=tableLayout;rounded=0;shadow=0;glass=0;sketch=0;strokeColor=#6c8ebf;strokeWidth=1;fillColor=#dae8fc;movable=1;resizable=1;rotatable=1;deletable=1;editable=1;connectable=1;" parent="1" vertex="1">
          <mxGeometry x="984" y="985" width="54" height="54" as="geometry" />
        </mxCell>
        <mxCell id="y2dvOFARiCJRjm47jgir-2" value="" style="shape=partialRectangle;collapsible=0;dropTarget=0;pointerEvents=0;fillColor=#dae8fc;top=0;left=0;bottom=0;right=0;points=[[0,0.5],[1,0.5]];portConstraint=eastwest;rounded=0;shadow=0;glass=0;sketch=0;strokeColor=#6c8ebf;strokeWidth=1;movable=1;resizable=1;rotatable=1;deletable=1;editable=1;connectable=1;" parent="y2dvOFARiCJRjm47jgir-1" vertex="1">
          <mxGeometry width="54" height="18" as="geometry" />
        </mxCell>
        <mxCell id="y2dvOFARiCJRjm47jgir-3" value="" style="shape=partialRectangle;html=1;whiteSpace=wrap;connectable=1;overflow=hidden;fillColor=#dae8fc;top=0;left=0;bottom=0;right=0;pointerEvents=1;rounded=0;shadow=0;glass=0;sketch=0;strokeColor=#6c8ebf;strokeWidth=1;movable=1;resizable=1;rotatable=1;deletable=1;editable=1;" parent="y2dvOFARiCJRjm47jgir-2" vertex="1">
          <mxGeometry width="18" height="18" as="geometry">
            <mxRectangle width="18" height="18" as="alternateBounds" />
          </mxGeometry>
        </mxCell>
        <mxCell id="y2dvOFARiCJRjm47jgir-4" value="" style="shape=partialRectangle;html=1;whiteSpace=wrap;connectable=1;overflow=hidden;fillColor=#dae8fc;top=0;left=0;bottom=0;right=0;pointerEvents=1;rounded=0;shadow=0;glass=0;sketch=0;strokeColor=#6c8ebf;strokeWidth=1;movable=1;resizable=1;rotatable=1;deletable=1;editable=1;" parent="y2dvOFARiCJRjm47jgir-2" vertex="1">
          <mxGeometry x="18" width="18" height="18" as="geometry">
            <mxRectangle width="18" height="18" as="alternateBounds" />
          </mxGeometry>
        </mxCell>
        <mxCell id="y2dvOFARiCJRjm47jgir-5" value="" style="shape=partialRectangle;html=1;whiteSpace=wrap;connectable=1;overflow=hidden;fillColor=#dae8fc;top=0;left=0;bottom=0;right=0;pointerEvents=1;rounded=0;shadow=0;glass=0;sketch=0;strokeColor=#6c8ebf;strokeWidth=1;movable=1;resizable=1;rotatable=1;deletable=1;editable=1;" parent="y2dvOFARiCJRjm47jgir-2" vertex="1">
          <mxGeometry x="36" width="18" height="18" as="geometry">
            <mxRectangle width="18" height="18" as="alternateBounds" />
          </mxGeometry>
        </mxCell>
        <mxCell id="y2dvOFARiCJRjm47jgir-6" value="" style="shape=partialRectangle;collapsible=0;dropTarget=0;pointerEvents=0;fillColor=#dae8fc;top=0;left=0;bottom=0;right=0;points=[[0,0.5],[1,0.5]];portConstraint=eastwest;rounded=0;shadow=0;glass=0;sketch=0;strokeColor=#6c8ebf;strokeWidth=1;movable=1;resizable=1;rotatable=1;deletable=1;editable=1;connectable=1;" parent="y2dvOFARiCJRjm47jgir-1" vertex="1">
          <mxGeometry y="18" width="54" height="18" as="geometry" />
        </mxCell>
        <mxCell id="y2dvOFARiCJRjm47jgir-7" value="" style="shape=partialRectangle;html=1;whiteSpace=wrap;connectable=1;overflow=hidden;fillColor=#dae8fc;top=0;left=0;bottom=0;right=0;pointerEvents=1;rounded=0;shadow=0;glass=0;sketch=0;strokeColor=#6c8ebf;strokeWidth=1;movable=1;resizable=1;rotatable=1;deletable=1;editable=1;" parent="y2dvOFARiCJRjm47jgir-6" vertex="1">
          <mxGeometry width="18" height="18" as="geometry">
            <mxRectangle width="18" height="18" as="alternateBounds" />
          </mxGeometry>
        </mxCell>
        <mxCell id="y2dvOFARiCJRjm47jgir-8" value="" style="shape=partialRectangle;html=1;whiteSpace=wrap;connectable=1;overflow=hidden;fillColor=#dae8fc;top=0;left=0;bottom=0;right=0;pointerEvents=1;rounded=0;shadow=0;glass=0;sketch=0;strokeColor=#6c8ebf;strokeWidth=1;movable=1;resizable=1;rotatable=1;deletable=1;editable=1;" parent="y2dvOFARiCJRjm47jgir-6" vertex="1">
          <mxGeometry x="18" width="18" height="18" as="geometry">
            <mxRectangle width="18" height="18" as="alternateBounds" />
          </mxGeometry>
        </mxCell>
        <mxCell id="y2dvOFARiCJRjm47jgir-9" value="" style="shape=partialRectangle;html=1;whiteSpace=wrap;connectable=1;overflow=hidden;fillColor=#dae8fc;top=0;left=0;bottom=0;right=0;pointerEvents=1;rounded=0;shadow=0;glass=0;sketch=0;strokeColor=#6c8ebf;strokeWidth=1;movable=1;resizable=1;rotatable=1;deletable=1;editable=1;" parent="y2dvOFARiCJRjm47jgir-6" vertex="1">
          <mxGeometry x="36" width="18" height="18" as="geometry">
            <mxRectangle width="18" height="18" as="alternateBounds" />
          </mxGeometry>
        </mxCell>
        <mxCell id="y2dvOFARiCJRjm47jgir-10" value="" style="shape=partialRectangle;collapsible=0;dropTarget=0;pointerEvents=0;fillColor=#dae8fc;top=0;left=0;bottom=0;right=0;points=[[0,0.5],[1,0.5]];portConstraint=eastwest;rounded=0;shadow=0;glass=0;sketch=0;strokeColor=#6c8ebf;strokeWidth=1;movable=1;resizable=1;rotatable=1;deletable=1;editable=1;connectable=1;" parent="y2dvOFARiCJRjm47jgir-1" vertex="1">
          <mxGeometry y="36" width="54" height="18" as="geometry" />
        </mxCell>
        <mxCell id="y2dvOFARiCJRjm47jgir-11" value="" style="shape=partialRectangle;html=1;whiteSpace=wrap;connectable=1;overflow=hidden;fillColor=#dae8fc;top=0;left=0;bottom=0;right=0;pointerEvents=1;rounded=0;shadow=0;glass=0;sketch=0;strokeColor=#6c8ebf;strokeWidth=1;movable=1;resizable=1;rotatable=1;deletable=1;editable=1;" parent="y2dvOFARiCJRjm47jgir-10" vertex="1">
          <mxGeometry width="18" height="18" as="geometry">
            <mxRectangle width="18" height="18" as="alternateBounds" />
          </mxGeometry>
        </mxCell>
        <mxCell id="y2dvOFARiCJRjm47jgir-12" value="" style="shape=partialRectangle;html=1;whiteSpace=wrap;connectable=1;overflow=hidden;fillColor=#dae8fc;top=0;left=0;bottom=0;right=0;pointerEvents=1;rounded=0;shadow=0;glass=0;sketch=0;strokeColor=#6c8ebf;strokeWidth=1;movable=1;resizable=1;rotatable=1;deletable=1;editable=1;" parent="y2dvOFARiCJRjm47jgir-10" vertex="1">
          <mxGeometry x="18" width="18" height="18" as="geometry">
            <mxRectangle width="18" height="18" as="alternateBounds" />
          </mxGeometry>
        </mxCell>
        <mxCell id="y2dvOFARiCJRjm47jgir-13" value="" style="shape=partialRectangle;html=1;whiteSpace=wrap;connectable=1;overflow=hidden;fillColor=#dae8fc;top=0;left=0;bottom=0;right=0;pointerEvents=1;rounded=0;shadow=0;glass=0;sketch=0;strokeColor=#6c8ebf;strokeWidth=1;movable=1;resizable=1;rotatable=1;deletable=1;editable=1;" parent="y2dvOFARiCJRjm47jgir-10" vertex="1">
          <mxGeometry x="36" width="18" height="18" as="geometry">
            <mxRectangle width="18" height="18" as="alternateBounds" />
          </mxGeometry>
        </mxCell>
        <mxCell id="y2dvOFARiCJRjm47jgir-45" value="" style="shape=table;startSize=0;container=1;collapsible=0;childLayout=tableLayout;rounded=0;shadow=0;glass=0;sketch=0;strokeColor=#6c8ebf;strokeWidth=1;fillColor=#dae8fc;movable=1;resizable=1;rotatable=1;deletable=1;editable=1;connectable=1;" parent="1" vertex="1">
          <mxGeometry x="1010" y="899" width="54" height="54" as="geometry" />
        </mxCell>
        <mxCell id="y2dvOFARiCJRjm47jgir-46" value="" style="shape=partialRectangle;collapsible=0;dropTarget=0;pointerEvents=0;fillColor=#dae8fc;top=0;left=0;bottom=0;right=0;points=[[0,0.5],[1,0.5]];portConstraint=eastwest;rounded=0;shadow=0;glass=0;sketch=0;strokeColor=#6c8ebf;strokeWidth=1;movable=1;resizable=1;rotatable=1;deletable=1;editable=1;connectable=1;" parent="y2dvOFARiCJRjm47jgir-45" vertex="1">
          <mxGeometry width="54" height="18" as="geometry" />
        </mxCell>
        <mxCell id="y2dvOFARiCJRjm47jgir-47" value="" style="shape=partialRectangle;html=1;whiteSpace=wrap;connectable=1;overflow=hidden;fillColor=#dae8fc;top=0;left=0;bottom=0;right=0;pointerEvents=1;rounded=0;shadow=0;glass=0;sketch=0;strokeColor=#6c8ebf;strokeWidth=1;movable=1;resizable=1;rotatable=1;deletable=1;editable=1;" parent="y2dvOFARiCJRjm47jgir-46" vertex="1">
          <mxGeometry width="18" height="18" as="geometry">
            <mxRectangle width="18" height="18" as="alternateBounds" />
          </mxGeometry>
        </mxCell>
        <mxCell id="y2dvOFARiCJRjm47jgir-48" value="" style="shape=partialRectangle;html=1;whiteSpace=wrap;connectable=1;overflow=hidden;fillColor=#dae8fc;top=0;left=0;bottom=0;right=0;pointerEvents=1;rounded=0;shadow=0;glass=0;sketch=0;strokeColor=#6c8ebf;strokeWidth=1;movable=1;resizable=1;rotatable=1;deletable=1;editable=1;" parent="y2dvOFARiCJRjm47jgir-46" vertex="1">
          <mxGeometry x="18" width="18" height="18" as="geometry">
            <mxRectangle width="18" height="18" as="alternateBounds" />
          </mxGeometry>
        </mxCell>
        <mxCell id="y2dvOFARiCJRjm47jgir-49" value="" style="shape=partialRectangle;html=1;whiteSpace=wrap;connectable=1;overflow=hidden;fillColor=#dae8fc;top=0;left=0;bottom=0;right=0;pointerEvents=1;rounded=0;shadow=0;glass=0;sketch=0;strokeColor=#6c8ebf;strokeWidth=1;movable=1;resizable=1;rotatable=1;deletable=1;editable=1;" parent="y2dvOFARiCJRjm47jgir-46" vertex="1">
          <mxGeometry x="36" width="18" height="18" as="geometry">
            <mxRectangle width="18" height="18" as="alternateBounds" />
          </mxGeometry>
        </mxCell>
        <mxCell id="y2dvOFARiCJRjm47jgir-50" value="" style="shape=partialRectangle;collapsible=0;dropTarget=0;pointerEvents=0;fillColor=#dae8fc;top=0;left=0;bottom=0;right=0;points=[[0,0.5],[1,0.5]];portConstraint=eastwest;rounded=0;shadow=0;glass=0;sketch=0;strokeColor=#6c8ebf;strokeWidth=1;movable=1;resizable=1;rotatable=1;deletable=1;editable=1;connectable=1;" parent="y2dvOFARiCJRjm47jgir-45" vertex="1">
          <mxGeometry y="18" width="54" height="18" as="geometry" />
        </mxCell>
        <mxCell id="y2dvOFARiCJRjm47jgir-51" value="" style="shape=partialRectangle;html=1;whiteSpace=wrap;connectable=1;overflow=hidden;fillColor=#dae8fc;top=0;left=0;bottom=0;right=0;pointerEvents=1;rounded=0;shadow=0;glass=0;sketch=0;strokeColor=#6c8ebf;strokeWidth=1;movable=1;resizable=1;rotatable=1;deletable=1;editable=1;" parent="y2dvOFARiCJRjm47jgir-50" vertex="1">
          <mxGeometry width="18" height="18" as="geometry">
            <mxRectangle width="18" height="18" as="alternateBounds" />
          </mxGeometry>
        </mxCell>
        <mxCell id="y2dvOFARiCJRjm47jgir-52" value="" style="shape=partialRectangle;html=1;whiteSpace=wrap;connectable=1;overflow=hidden;fillColor=#dae8fc;top=0;left=0;bottom=0;right=0;pointerEvents=1;rounded=0;shadow=0;glass=0;sketch=0;strokeColor=#6c8ebf;strokeWidth=1;movable=1;resizable=1;rotatable=1;deletable=1;editable=1;" parent="y2dvOFARiCJRjm47jgir-50" vertex="1">
          <mxGeometry x="18" width="18" height="18" as="geometry">
            <mxRectangle width="18" height="18" as="alternateBounds" />
          </mxGeometry>
        </mxCell>
        <mxCell id="y2dvOFARiCJRjm47jgir-53" value="" style="shape=partialRectangle;html=1;whiteSpace=wrap;connectable=1;overflow=hidden;fillColor=#dae8fc;top=0;left=0;bottom=0;right=0;pointerEvents=1;rounded=0;shadow=0;glass=0;sketch=0;strokeColor=#6c8ebf;strokeWidth=1;movable=1;resizable=1;rotatable=1;deletable=1;editable=1;" parent="y2dvOFARiCJRjm47jgir-50" vertex="1">
          <mxGeometry x="36" width="18" height="18" as="geometry">
            <mxRectangle width="18" height="18" as="alternateBounds" />
          </mxGeometry>
        </mxCell>
        <mxCell id="y2dvOFARiCJRjm47jgir-54" value="" style="shape=partialRectangle;collapsible=0;dropTarget=0;pointerEvents=0;fillColor=#dae8fc;top=0;left=0;bottom=0;right=0;points=[[0,0.5],[1,0.5]];portConstraint=eastwest;rounded=0;shadow=0;glass=0;sketch=0;strokeColor=#6c8ebf;strokeWidth=1;movable=1;resizable=1;rotatable=1;deletable=1;editable=1;connectable=1;" parent="y2dvOFARiCJRjm47jgir-45" vertex="1">
          <mxGeometry y="36" width="54" height="18" as="geometry" />
        </mxCell>
        <mxCell id="y2dvOFARiCJRjm47jgir-55" value="" style="shape=partialRectangle;html=1;whiteSpace=wrap;connectable=1;overflow=hidden;fillColor=#dae8fc;top=0;left=0;bottom=0;right=0;pointerEvents=1;rounded=0;shadow=0;glass=0;sketch=0;strokeColor=#6c8ebf;strokeWidth=1;movable=1;resizable=1;rotatable=1;deletable=1;editable=1;" parent="y2dvOFARiCJRjm47jgir-54" vertex="1">
          <mxGeometry width="18" height="18" as="geometry">
            <mxRectangle width="18" height="18" as="alternateBounds" />
          </mxGeometry>
        </mxCell>
        <mxCell id="y2dvOFARiCJRjm47jgir-56" value="" style="shape=partialRectangle;html=1;whiteSpace=wrap;connectable=1;overflow=hidden;fillColor=#dae8fc;top=0;left=0;bottom=0;right=0;pointerEvents=1;rounded=0;shadow=0;glass=0;sketch=0;strokeColor=#6c8ebf;strokeWidth=1;movable=1;resizable=1;rotatable=1;deletable=1;editable=1;" parent="y2dvOFARiCJRjm47jgir-54" vertex="1">
          <mxGeometry x="18" width="18" height="18" as="geometry">
            <mxRectangle width="18" height="18" as="alternateBounds" />
          </mxGeometry>
        </mxCell>
        <mxCell id="y2dvOFARiCJRjm47jgir-57" value="" style="shape=partialRectangle;html=1;whiteSpace=wrap;connectable=1;overflow=hidden;fillColor=#dae8fc;top=0;left=0;bottom=0;right=0;pointerEvents=1;rounded=0;shadow=0;glass=0;sketch=0;strokeColor=#6c8ebf;strokeWidth=1;movable=1;resizable=1;rotatable=1;deletable=1;editable=1;" parent="y2dvOFARiCJRjm47jgir-54" vertex="1">
          <mxGeometry x="36" width="18" height="18" as="geometry">
            <mxRectangle width="18" height="18" as="alternateBounds" />
          </mxGeometry>
        </mxCell>
        <mxCell id="y2dvOFARiCJRjm47jgir-179" value="Input" style="text;html=1;align=center;verticalAlign=middle;resizable=0;points=[];autosize=1;strokeColor=none;fillColor=none;fontSize=18;" parent="1" vertex="1">
          <mxGeometry x="857" y="745" width="60" height="30" as="geometry" />
        </mxCell>
        <mxCell id="y2dvOFARiCJRjm47jgir-180" value="Filters" style="text;html=1;align=center;verticalAlign=middle;resizable=0;points=[];autosize=1;strokeColor=none;fillColor=none;fontSize=18;" parent="1" vertex="1">
          <mxGeometry x="1032" y="745" width="60" height="30" as="geometry" />
        </mxCell>
        <mxCell id="y2dvOFARiCJRjm47jgir-181" value="Feature image" style="text;html=1;align=center;verticalAlign=middle;resizable=0;points=[];autosize=1;strokeColor=none;fillColor=none;fontSize=18;" parent="1" vertex="1">
          <mxGeometry x="1194" y="745" width="130" height="30" as="geometry" />
        </mxCell>
        <mxCell id="y2dvOFARiCJRjm47jgir-182" value="" style="shape=table;startSize=0;container=1;collapsible=0;childLayout=tableLayout;rounded=0;shadow=0;glass=0;sketch=0;strokeColor=#000000;strokeWidth=1;fillColor=#dae8fc;movable=1;resizable=1;rotatable=1;deletable=1;editable=1;connectable=1;" parent="1" vertex="1">
          <mxGeometry x="1034" y="814" width="54" height="54" as="geometry" />
        </mxCell>
        <mxCell id="y2dvOFARiCJRjm47jgir-183" value="" style="shape=partialRectangle;collapsible=0;dropTarget=0;pointerEvents=0;fillColor=#dae8fc;top=0;left=0;bottom=0;right=0;points=[[0,0.5],[1,0.5]];portConstraint=eastwest;rounded=0;shadow=0;glass=0;sketch=0;strokeColor=#000000;strokeWidth=1;movable=1;resizable=1;rotatable=1;deletable=1;editable=1;connectable=1;" parent="y2dvOFARiCJRjm47jgir-182" vertex="1">
          <mxGeometry width="54" height="18" as="geometry" />
        </mxCell>
        <mxCell id="y2dvOFARiCJRjm47jgir-184" value="" style="shape=partialRectangle;html=1;whiteSpace=wrap;connectable=1;overflow=hidden;fillColor=#dae8fc;top=0;left=0;bottom=0;right=0;pointerEvents=1;rounded=0;shadow=0;glass=0;sketch=0;strokeColor=#000000;strokeWidth=1;movable=1;resizable=1;rotatable=1;deletable=1;editable=1;" parent="y2dvOFARiCJRjm47jgir-183" vertex="1">
          <mxGeometry width="18" height="18" as="geometry">
            <mxRectangle width="18" height="18" as="alternateBounds" />
          </mxGeometry>
        </mxCell>
        <mxCell id="y2dvOFARiCJRjm47jgir-185" value="" style="shape=partialRectangle;html=1;whiteSpace=wrap;connectable=1;overflow=hidden;fillColor=#dae8fc;top=0;left=0;bottom=0;right=0;pointerEvents=1;rounded=0;shadow=0;glass=0;sketch=0;strokeColor=#000000;strokeWidth=1;movable=1;resizable=1;rotatable=1;deletable=1;editable=1;" parent="y2dvOFARiCJRjm47jgir-183" vertex="1">
          <mxGeometry x="18" width="18" height="18" as="geometry">
            <mxRectangle width="18" height="18" as="alternateBounds" />
          </mxGeometry>
        </mxCell>
        <mxCell id="y2dvOFARiCJRjm47jgir-186" value="" style="shape=partialRectangle;html=1;whiteSpace=wrap;connectable=1;overflow=hidden;fillColor=#dae8fc;top=0;left=0;bottom=0;right=0;pointerEvents=1;rounded=0;shadow=0;glass=0;sketch=0;strokeColor=#000000;strokeWidth=1;movable=1;resizable=1;rotatable=1;deletable=1;editable=1;" parent="y2dvOFARiCJRjm47jgir-183" vertex="1">
          <mxGeometry x="36" width="18" height="18" as="geometry">
            <mxRectangle width="18" height="18" as="alternateBounds" />
          </mxGeometry>
        </mxCell>
        <mxCell id="y2dvOFARiCJRjm47jgir-187" value="" style="shape=partialRectangle;collapsible=0;dropTarget=0;pointerEvents=0;fillColor=#dae8fc;top=0;left=0;bottom=0;right=0;points=[[0,0.5],[1,0.5]];portConstraint=eastwest;rounded=0;shadow=0;glass=0;sketch=0;strokeColor=#000000;strokeWidth=1;movable=1;resizable=1;rotatable=1;deletable=1;editable=1;connectable=1;" parent="y2dvOFARiCJRjm47jgir-182" vertex="1">
          <mxGeometry y="18" width="54" height="18" as="geometry" />
        </mxCell>
        <mxCell id="y2dvOFARiCJRjm47jgir-188" value="" style="shape=partialRectangle;html=1;whiteSpace=wrap;connectable=1;overflow=hidden;fillColor=#dae8fc;top=0;left=0;bottom=0;right=0;pointerEvents=1;rounded=0;shadow=0;glass=0;sketch=0;strokeColor=#000000;strokeWidth=1;movable=1;resizable=1;rotatable=1;deletable=1;editable=1;" parent="y2dvOFARiCJRjm47jgir-187" vertex="1">
          <mxGeometry width="18" height="18" as="geometry">
            <mxRectangle width="18" height="18" as="alternateBounds" />
          </mxGeometry>
        </mxCell>
        <mxCell id="y2dvOFARiCJRjm47jgir-189" value="" style="shape=partialRectangle;html=1;whiteSpace=wrap;connectable=1;overflow=hidden;fillColor=#dae8fc;top=0;left=0;bottom=0;right=0;pointerEvents=1;rounded=0;shadow=0;glass=0;sketch=0;strokeColor=#000000;strokeWidth=1;movable=1;resizable=1;rotatable=1;deletable=1;editable=1;" parent="y2dvOFARiCJRjm47jgir-187" vertex="1">
          <mxGeometry x="18" width="18" height="18" as="geometry">
            <mxRectangle width="18" height="18" as="alternateBounds" />
          </mxGeometry>
        </mxCell>
        <mxCell id="y2dvOFARiCJRjm47jgir-190" value="" style="shape=partialRectangle;html=1;whiteSpace=wrap;connectable=1;overflow=hidden;fillColor=#dae8fc;top=0;left=0;bottom=0;right=0;pointerEvents=1;rounded=0;shadow=0;glass=0;sketch=0;strokeColor=#000000;strokeWidth=1;movable=1;resizable=1;rotatable=1;deletable=1;editable=1;" parent="y2dvOFARiCJRjm47jgir-187" vertex="1">
          <mxGeometry x="36" width="18" height="18" as="geometry">
            <mxRectangle width="18" height="18" as="alternateBounds" />
          </mxGeometry>
        </mxCell>
        <mxCell id="y2dvOFARiCJRjm47jgir-191" value="" style="shape=partialRectangle;collapsible=0;dropTarget=0;pointerEvents=0;fillColor=#dae8fc;top=0;left=0;bottom=0;right=0;points=[[0,0.5],[1,0.5]];portConstraint=eastwest;rounded=0;shadow=0;glass=0;sketch=0;strokeColor=#000000;strokeWidth=1;movable=1;resizable=1;rotatable=1;deletable=1;editable=1;connectable=1;" parent="y2dvOFARiCJRjm47jgir-182" vertex="1">
          <mxGeometry y="36" width="54" height="18" as="geometry" />
        </mxCell>
        <mxCell id="y2dvOFARiCJRjm47jgir-192" value="" style="shape=partialRectangle;html=1;whiteSpace=wrap;connectable=1;overflow=hidden;fillColor=#dae8fc;top=0;left=0;bottom=0;right=0;pointerEvents=1;rounded=0;shadow=0;glass=0;sketch=0;strokeColor=#000000;strokeWidth=1;movable=1;resizable=1;rotatable=1;deletable=1;editable=1;" parent="y2dvOFARiCJRjm47jgir-191" vertex="1">
          <mxGeometry width="18" height="18" as="geometry">
            <mxRectangle width="18" height="18" as="alternateBounds" />
          </mxGeometry>
        </mxCell>
        <mxCell id="y2dvOFARiCJRjm47jgir-193" value="" style="shape=partialRectangle;html=1;whiteSpace=wrap;connectable=1;overflow=hidden;fillColor=#dae8fc;top=0;left=0;bottom=0;right=0;pointerEvents=1;rounded=0;shadow=0;glass=0;sketch=0;strokeColor=#000000;strokeWidth=1;movable=1;resizable=1;rotatable=1;deletable=1;editable=1;" parent="y2dvOFARiCJRjm47jgir-191" vertex="1">
          <mxGeometry x="18" width="18" height="18" as="geometry">
            <mxRectangle width="18" height="18" as="alternateBounds" />
          </mxGeometry>
        </mxCell>
        <mxCell id="y2dvOFARiCJRjm47jgir-194" value="" style="shape=partialRectangle;html=1;whiteSpace=wrap;connectable=1;overflow=hidden;fillColor=#dae8fc;top=0;left=0;bottom=0;right=0;pointerEvents=1;rounded=0;shadow=0;glass=0;sketch=0;strokeColor=#000000;strokeWidth=1;movable=1;resizable=1;rotatable=1;deletable=1;editable=1;" parent="y2dvOFARiCJRjm47jgir-191" vertex="1">
          <mxGeometry x="36" width="18" height="18" as="geometry">
            <mxRectangle width="18" height="18" as="alternateBounds" />
          </mxGeometry>
        </mxCell>
        <mxCell id="y2dvOFARiCJRjm47jgir-27" value="" style="whiteSpace=wrap;html=1;aspect=fixed;shadow=1;strokeColor=#FFFFFF;fillColor=#0000FF;strokeWidth=2;" parent="1" vertex="1">
          <mxGeometry x="847" y="865" width="80" height="80" as="geometry" />
        </mxCell>
        <mxCell id="y2dvOFARiCJRjm47jgir-29" value="" style="whiteSpace=wrap;html=1;aspect=fixed;shadow=1;fillColor=#00FF00;strokeColor=#FFFFFF;strokeWidth=2;" parent="1" vertex="1">
          <mxGeometry x="827" y="890" width="80" height="80" as="geometry" />
        </mxCell>
        <mxCell id="y2dvOFARiCJRjm47jgir-31" value="" style="whiteSpace=wrap;html=1;aspect=fixed;fillColor=#e51400;fontColor=#ffffff;strokeColor=#FFFFFF;shadow=1;sketch=0;glass=0;rounded=0;strokeWidth=2;" parent="1" vertex="1">
          <mxGeometry x="807" y="914" width="80" height="80" as="geometry" />
        </mxCell>
        <mxCell id="y2dvOFARiCJRjm47jgir-28" style="edgeStyle=orthogonalEdgeStyle;curved=1;rounded=0;orthogonalLoop=1;jettySize=auto;html=1;entryX=0.5;entryY=0;entryDx=0;entryDy=0;strokeColor=#B5739D;" parent="1" edge="1">
          <mxGeometry relative="1" as="geometry">
            <Array as="points">
              <mxPoint x="870" y="860" />
              <mxPoint x="1039" y="860" />
            </Array>
            <mxPoint x="870" y="890" as="sourcePoint" />
            <mxPoint x="1040" y="899" as="targetPoint" />
          </mxGeometry>
        </mxCell>
        <mxCell id="y2dvOFARiCJRjm47jgir-30" style="edgeStyle=orthogonalEdgeStyle;curved=1;rounded=0;orthogonalLoop=1;jettySize=auto;html=1;exitX=0.5;exitY=0;exitDx=0;exitDy=0;strokeColor=#B5739D;" parent="1" edge="1">
          <mxGeometry relative="1" as="geometry">
            <mxPoint x="845" y="915" as="sourcePoint" />
            <mxPoint x="1010" y="985" as="targetPoint" />
            <Array as="points">
              <mxPoint x="845" y="900" />
              <mxPoint x="1009" y="900" />
            </Array>
          </mxGeometry>
        </mxCell>
        <mxCell id="y2dvOFARiCJRjm47jgir-267" value="" style="group" parent="1" vertex="1" connectable="0">
          <mxGeometry x="1213" y="880" width="84" height="81" as="geometry" />
        </mxCell>
        <mxCell id="y2dvOFARiCJRjm47jgir-263" value="" style="whiteSpace=wrap;html=1;aspect=fixed;strokeWidth=1;fillColor=#FFE599;strokeColor=#FFFFFF;container=0;" parent="y2dvOFARiCJRjm47jgir-267" vertex="1">
          <mxGeometry x="34" width="50" height="50" as="geometry" />
        </mxCell>
        <mxCell id="y2dvOFARiCJRjm47jgir-264" value="" style="whiteSpace=wrap;html=1;aspect=fixed;strokeWidth=1;fillColor=#FFE599;strokeColor=#FFFFFF;container=0;" parent="y2dvOFARiCJRjm47jgir-267" vertex="1">
          <mxGeometry x="16" y="16" width="50" height="50" as="geometry" />
        </mxCell>
        <mxCell id="y2dvOFARiCJRjm47jgir-265" value="" style="whiteSpace=wrap;html=1;aspect=fixed;strokeWidth=1;fillColor=#FFE599;strokeColor=#FFFFFF;container=0;" parent="y2dvOFARiCJRjm47jgir-267" vertex="1">
          <mxGeometry x="1" y="31" width="50" height="50" as="geometry" />
        </mxCell>
        <mxCell id="y2dvOFARiCJRjm47jgir-123" style="edgeStyle=orthogonalEdgeStyle;curved=1;rounded=0;orthogonalLoop=1;jettySize=auto;html=1;entryX=0.5;entryY=0;entryDx=0;entryDy=0;strokeColor=#B5739D;exitX=0.5;exitY=0;exitDx=0;exitDy=0;" parent="1" source="y2dvOFARiCJRjm47jgir-27" target="y2dvOFARiCJRjm47jgir-182" edge="1">
          <mxGeometry relative="1" as="geometry">
            <Array as="points">
              <mxPoint x="887" y="800" />
              <mxPoint x="1061" y="800" />
            </Array>
            <mxPoint x="884" y="860" as="sourcePoint" />
            <mxPoint x="1062.5" y="804" as="targetPoint" />
          </mxGeometry>
        </mxCell>
        <mxCell id="y2dvOFARiCJRjm47jgir-270" style="edgeStyle=orthogonalEdgeStyle;curved=1;rounded=0;orthogonalLoop=1;jettySize=auto;html=1;entryX=0.5;entryY=0;entryDx=0;entryDy=0;strokeColor=#B5739D;" parent="1" edge="1">
          <mxGeometry relative="1" as="geometry">
            <Array as="points">
              <mxPoint x="1090" y="821" />
              <mxPoint x="1275" y="821" />
            </Array>
            <mxPoint x="1090" y="841" as="sourcePoint" />
            <mxPoint x="1275" y="881" as="targetPoint" />
          </mxGeometry>
        </mxCell>
        <mxCell id="y2dvOFARiCJRjm47jgir-271" style="edgeStyle=orthogonalEdgeStyle;curved=1;rounded=0;orthogonalLoop=1;jettySize=auto;html=1;entryX=0.5;entryY=0;entryDx=0;entryDy=0;strokeColor=#B5739D;exitX=1;exitY=0.5;exitDx=0;exitDy=0;" parent="1" source="y2dvOFARiCJRjm47jgir-53" target="y2dvOFARiCJRjm47jgir-264" edge="1">
          <mxGeometry relative="1" as="geometry">
            <Array as="points">
              <mxPoint x="1064" y="876" />
              <mxPoint x="1254" y="876" />
            </Array>
            <mxPoint x="1064" y="921" as="sourcePoint" />
            <mxPoint x="1249" y="970" as="targetPoint" />
          </mxGeometry>
        </mxCell>
        <mxCell id="y2dvOFARiCJRjm47jgir-272" style="edgeStyle=orthogonalEdgeStyle;curved=1;rounded=0;orthogonalLoop=1;jettySize=auto;html=1;entryX=0;entryY=0.5;entryDx=0;entryDy=0;strokeColor=#B5739D;exitX=1;exitY=0.5;exitDx=0;exitDy=0;" parent="1" target="y2dvOFARiCJRjm47jgir-265" edge="1">
          <mxGeometry relative="1" as="geometry">
            <mxPoint x="1038" y="1017" as="sourcePoint" />
            <mxPoint x="1231" y="987" as="targetPoint" />
          </mxGeometry>
        </mxCell>
        <mxCell id="y2dvOFARiCJRjm47jgir-507" value="" style="group" parent="1" vertex="1" connectable="0">
          <mxGeometry y="1273" width="522" height="417" as="geometry" />
        </mxCell>
        <mxCell id="Q_0czmEG-ZNnUK1mFxcz-424" value="Input" style="text;html=1;align=center;verticalAlign=middle;resizable=0;points=[];autosize=1;strokeColor=none;fillColor=none;fontSize=18;" parent="y2dvOFARiCJRjm47jgir-507" vertex="1">
          <mxGeometry x="40" width="60" height="30" as="geometry" />
        </mxCell>
        <mxCell id="Q_0czmEG-ZNnUK1mFxcz-425" value="Filters" style="text;html=1;align=center;verticalAlign=middle;resizable=0;points=[];autosize=1;strokeColor=none;fillColor=none;fontSize=18;" parent="y2dvOFARiCJRjm47jgir-507" vertex="1">
          <mxGeometry x="239" width="60" height="30" as="geometry" />
        </mxCell>
        <mxCell id="Q_0czmEG-ZNnUK1mFxcz-426" value="Feature image" style="text;html=1;align=center;verticalAlign=middle;resizable=0;points=[];autosize=1;strokeColor=none;fillColor=none;fontSize=18;" parent="y2dvOFARiCJRjm47jgir-507" vertex="1">
          <mxGeometry x="392" width="130" height="30" as="geometry" />
        </mxCell>
        <mxCell id="Q_0czmEG-ZNnUK1mFxcz-518" value="" style="whiteSpace=wrap;html=1;aspect=fixed;strokeWidth=0;fillColor=#FFE599;strokeColor=#d6b656;" parent="y2dvOFARiCJRjm47jgir-507" vertex="1">
          <mxGeometry x="427" y="53" width="60" height="60" as="geometry" />
        </mxCell>
        <mxCell id="Q_0czmEG-ZNnUK1mFxcz-521" value="" style="group" parent="y2dvOFARiCJRjm47jgir-507" vertex="1" connectable="0">
          <mxGeometry x="254" y="63" width="38" height="40" as="geometry" />
        </mxCell>
        <mxCell id="Q_0czmEG-ZNnUK1mFxcz-502" value="" style="whiteSpace=wrap;html=1;aspect=fixed;fillColor=#dae8fc;strokeColor=#6c8ebf;strokeWidth=0;container=0;" parent="Q_0czmEG-ZNnUK1mFxcz-521" vertex="1">
          <mxGeometry x="18" width="20" height="20" as="geometry" />
        </mxCell>
        <mxCell id="Q_0czmEG-ZNnUK1mFxcz-503" value="" style="whiteSpace=wrap;html=1;aspect=fixed;fillColor=#dae8fc;strokeColor=#6c8ebf;strokeWidth=0;container=0;" parent="Q_0czmEG-ZNnUK1mFxcz-521" vertex="1">
          <mxGeometry x="10" y="10" width="20" height="20" as="geometry" />
        </mxCell>
        <mxCell id="Q_0czmEG-ZNnUK1mFxcz-504" value="" style="whiteSpace=wrap;html=1;aspect=fixed;fillColor=#DAE8FC;strokeColor=#6c8ebf;strokeWidth=0;container=0;" parent="Q_0czmEG-ZNnUK1mFxcz-521" vertex="1">
          <mxGeometry y="20" width="20" height="20" as="geometry" />
        </mxCell>
        <mxCell id="Q_0czmEG-ZNnUK1mFxcz-522" value="" style="group" parent="y2dvOFARiCJRjm47jgir-507" vertex="1" connectable="0">
          <mxGeometry x="244" y="143" width="38" height="40" as="geometry" />
        </mxCell>
        <mxCell id="Q_0czmEG-ZNnUK1mFxcz-507" value="" style="whiteSpace=wrap;html=1;aspect=fixed;fillColor=#dae8fc;strokeColor=#6c8ebf;strokeWidth=0;container=0;" parent="Q_0czmEG-ZNnUK1mFxcz-522" vertex="1">
          <mxGeometry x="18" width="20" height="20" as="geometry" />
        </mxCell>
        <mxCell id="Q_0czmEG-ZNnUK1mFxcz-508" value="" style="whiteSpace=wrap;html=1;aspect=fixed;fillColor=#dae8fc;strokeColor=#6c8ebf;strokeWidth=0;container=0;" parent="Q_0czmEG-ZNnUK1mFxcz-522" vertex="1">
          <mxGeometry x="10" y="10" width="20" height="20" as="geometry" />
        </mxCell>
        <mxCell id="Q_0czmEG-ZNnUK1mFxcz-509" value="" style="whiteSpace=wrap;html=1;aspect=fixed;fillColor=#dae8fc;strokeColor=#6c8ebf;strokeWidth=0;container=0;" parent="Q_0czmEG-ZNnUK1mFxcz-522" vertex="1">
          <mxGeometry y="20" width="20" height="20" as="geometry" />
        </mxCell>
        <mxCell id="Q_0czmEG-ZNnUK1mFxcz-523" value="" style="group" parent="y2dvOFARiCJRjm47jgir-507" vertex="1" connectable="0">
          <mxGeometry x="224" y="225" width="38" height="40" as="geometry" />
        </mxCell>
        <mxCell id="Q_0czmEG-ZNnUK1mFxcz-511" value="" style="whiteSpace=wrap;html=1;aspect=fixed;fillColor=#dae8fc;strokeColor=#6c8ebf;strokeWidth=0;container=0;" parent="Q_0czmEG-ZNnUK1mFxcz-523" vertex="1">
          <mxGeometry x="18" width="20" height="20" as="geometry" />
        </mxCell>
        <mxCell id="Q_0czmEG-ZNnUK1mFxcz-512" value="" style="whiteSpace=wrap;html=1;aspect=fixed;fillColor=#dae8fc;strokeColor=#6c8ebf;strokeWidth=0;container=0;" parent="Q_0czmEG-ZNnUK1mFxcz-523" vertex="1">
          <mxGeometry x="10" y="10" width="20" height="20" as="geometry" />
        </mxCell>
        <mxCell id="Q_0czmEG-ZNnUK1mFxcz-513" value="" style="whiteSpace=wrap;html=1;aspect=fixed;fillColor=#dae8fc;strokeColor=#6c8ebf;strokeWidth=0;container=0;" parent="Q_0czmEG-ZNnUK1mFxcz-523" vertex="1">
          <mxGeometry y="20" width="20" height="20" as="geometry" />
        </mxCell>
        <mxCell id="Q_0czmEG-ZNnUK1mFxcz-524" value="" style="group" parent="y2dvOFARiCJRjm47jgir-507" vertex="1" connectable="0">
          <mxGeometry x="214" y="304" width="38" height="40" as="geometry" />
        </mxCell>
        <mxCell id="Q_0czmEG-ZNnUK1mFxcz-515" value="" style="whiteSpace=wrap;html=1;aspect=fixed;fillColor=#dae8fc;strokeColor=#6c8ebf;strokeWidth=0;container=0;" parent="Q_0czmEG-ZNnUK1mFxcz-524" vertex="1">
          <mxGeometry x="18" width="20" height="20" as="geometry" />
        </mxCell>
        <mxCell id="Q_0czmEG-ZNnUK1mFxcz-516" value="" style="whiteSpace=wrap;html=1;aspect=fixed;fillColor=#dae8fc;strokeColor=#6c8ebf;strokeWidth=0;container=0;" parent="Q_0czmEG-ZNnUK1mFxcz-524" vertex="1">
          <mxGeometry x="10" y="10" width="20" height="20" as="geometry" />
        </mxCell>
        <mxCell id="Q_0czmEG-ZNnUK1mFxcz-517" value="" style="whiteSpace=wrap;html=1;aspect=fixed;fillColor=#dae8fc;strokeColor=#6c8ebf;strokeWidth=0;container=0;" parent="Q_0czmEG-ZNnUK1mFxcz-524" vertex="1">
          <mxGeometry y="20" width="20" height="20" as="geometry" />
        </mxCell>
        <mxCell id="Q_0czmEG-ZNnUK1mFxcz-525" value="" style="group" parent="y2dvOFARiCJRjm47jgir-507" vertex="1" connectable="0">
          <mxGeometry y="134" width="120" height="120" as="geometry" />
        </mxCell>
        <mxCell id="Q_0czmEG-ZNnUK1mFxcz-272" value="" style="whiteSpace=wrap;html=1;aspect=fixed;shadow=1;strokeColor=#FFFFFF;fillColor=#0000FF;strokeWidth=2;" parent="Q_0czmEG-ZNnUK1mFxcz-525" vertex="1">
          <mxGeometry x="40" width="80" height="80" as="geometry" />
        </mxCell>
        <mxCell id="Q_0czmEG-ZNnUK1mFxcz-274" value="" style="whiteSpace=wrap;html=1;aspect=fixed;shadow=1;fillColor=#00FF00;strokeColor=#FFFFFF;strokeWidth=2;" parent="Q_0czmEG-ZNnUK1mFxcz-525" vertex="1">
          <mxGeometry x="20" y="20" width="80" height="80" as="geometry" />
        </mxCell>
        <mxCell id="Q_0czmEG-ZNnUK1mFxcz-276" value="" style="whiteSpace=wrap;html=1;aspect=fixed;fillColor=#e51400;fontColor=#ffffff;strokeColor=#FFFFFF;shadow=1;sketch=0;glass=0;rounded=0;strokeWidth=2;" parent="Q_0czmEG-ZNnUK1mFxcz-525" vertex="1">
          <mxGeometry y="40" width="80" height="80" as="geometry" />
        </mxCell>
        <mxCell id="Q_0czmEG-ZNnUK1mFxcz-526" value="" style="whiteSpace=wrap;html=1;aspect=fixed;strokeWidth=0;fillColor=#FFE599;strokeColor=#d6b656;" parent="y2dvOFARiCJRjm47jgir-507" vertex="1">
          <mxGeometry x="407" y="133" width="60" height="60" as="geometry" />
        </mxCell>
        <mxCell id="Q_0czmEG-ZNnUK1mFxcz-527" value="" style="whiteSpace=wrap;html=1;aspect=fixed;strokeWidth=0;fillColor=#FFE599;strokeColor=#d6b656;" parent="y2dvOFARiCJRjm47jgir-507" vertex="1">
          <mxGeometry x="384" y="214" width="60" height="60" as="geometry" />
        </mxCell>
        <mxCell id="Q_0czmEG-ZNnUK1mFxcz-528" value="" style="whiteSpace=wrap;html=1;aspect=fixed;strokeWidth=0;fillColor=#FFE599;strokeColor=#d6b656;" parent="y2dvOFARiCJRjm47jgir-507" vertex="1">
          <mxGeometry x="367" y="294" width="60" height="60" as="geometry" />
        </mxCell>
        <mxCell id="Q_0czmEG-ZNnUK1mFxcz-533" style="edgeStyle=orthogonalEdgeStyle;curved=1;rounded=0;orthogonalLoop=1;jettySize=auto;html=1;exitX=1;exitY=0.5;exitDx=0;exitDy=0;entryX=0;entryY=0.25;entryDx=0;entryDy=0;strokeColor=#B5739D;" parent="y2dvOFARiCJRjm47jgir-507" target="Q_0czmEG-ZNnUK1mFxcz-515" edge="1">
          <mxGeometry relative="1" as="geometry">
            <mxPoint x="120" y="176.99999999999977" as="sourcePoint" />
            <mxPoint x="154.50000000000023" y="339" as="targetPoint" />
          </mxGeometry>
        </mxCell>
        <mxCell id="Q_0czmEG-ZNnUK1mFxcz-535" style="edgeStyle=orthogonalEdgeStyle;curved=1;rounded=0;orthogonalLoop=1;jettySize=auto;html=1;exitX=1;exitY=0.5;exitDx=0;exitDy=0;strokeColor=#B5739D;" parent="y2dvOFARiCJRjm47jgir-507" edge="1">
          <mxGeometry relative="1" as="geometry">
            <mxPoint x="101.5" y="194" as="sourcePoint" />
            <mxPoint x="224" y="318" as="targetPoint" />
            <Array as="points">
              <mxPoint x="164" y="194" />
              <mxPoint x="164" y="318" />
            </Array>
          </mxGeometry>
        </mxCell>
        <mxCell id="Q_0czmEG-ZNnUK1mFxcz-536" style="edgeStyle=orthogonalEdgeStyle;curved=1;rounded=0;orthogonalLoop=1;jettySize=auto;html=1;exitX=1;exitY=0.5;exitDx=0;exitDy=0;strokeColor=#B5739D;" parent="y2dvOFARiCJRjm47jgir-507" edge="1">
          <mxGeometry relative="1" as="geometry">
            <mxPoint x="84" y="210" as="sourcePoint" />
            <mxPoint x="214" y="333" as="targetPoint" />
            <Array as="points">
              <mxPoint x="146.5" y="210" />
              <mxPoint x="146.5" y="334" />
            </Array>
          </mxGeometry>
        </mxCell>
        <mxCell id="Q_0czmEG-ZNnUK1mFxcz-537" value="" style="curved=1;endArrow=classic;html=1;rounded=0;strokeColor=#B5739D;exitX=1;exitY=0.5;exitDx=0;exitDy=0;" parent="y2dvOFARiCJRjm47jgir-507" source="Q_0czmEG-ZNnUK1mFxcz-515" edge="1">
          <mxGeometry width="50" height="50" relative="1" as="geometry">
            <mxPoint x="283" y="317" as="sourcePoint" />
            <mxPoint x="399" y="357" as="targetPoint" />
            <Array as="points">
              <mxPoint x="279" y="336" />
              <mxPoint x="329" y="377" />
              <mxPoint x="370" y="377" />
            </Array>
          </mxGeometry>
        </mxCell>
        <mxCell id="Q_0czmEG-ZNnUK1mFxcz-538" value="" style="curved=1;endArrow=classic;html=1;rounded=0;strokeColor=#B5739D;exitX=1;exitY=0.5;exitDx=0;exitDy=0;entryX=0.5;entryY=1;entryDx=0;entryDy=0;" parent="y2dvOFARiCJRjm47jgir-507" target="Q_0czmEG-ZNnUK1mFxcz-528" edge="1">
          <mxGeometry width="50" height="50" relative="1" as="geometry">
            <mxPoint x="243.49999999999977" y="327" as="sourcePoint" />
            <mxPoint x="390.5" y="370" as="targetPoint" />
            <Array as="points">
              <mxPoint x="270.5" y="349" />
              <mxPoint x="320.5" y="390" />
              <mxPoint x="361.5" y="390" />
            </Array>
          </mxGeometry>
        </mxCell>
        <mxCell id="Q_0czmEG-ZNnUK1mFxcz-539" value="" style="curved=1;endArrow=classic;html=1;rounded=0;strokeColor=#B5739D;exitX=1;exitY=0.5;exitDx=0;exitDy=0;" parent="y2dvOFARiCJRjm47jgir-507" edge="1">
          <mxGeometry width="50" height="50" relative="1" as="geometry">
            <mxPoint x="223.49999999999977" y="344" as="sourcePoint" />
            <mxPoint x="400" y="357" as="targetPoint" />
            <Array as="points">
              <mxPoint x="250.5" y="366" />
              <mxPoint x="300.5" y="407" />
              <mxPoint x="350" y="417" />
              <mxPoint x="380" y="387" />
            </Array>
          </mxGeometry>
        </mxCell>
      </root>
    </mxGraphModel>
  </diagram>
</mxfile>
